<svg xmlns="http://www.w3.org/2000/svg" xmlns:xlink="http://www.w3.org/1999/xlink" viewBox="0 0 189.99 163.37"><defs><style>.cls-1{isolation:isolate;}.cls-2{fill:url(#linear-gradient);}.cls-3{fill:gray;fill-opacity:0.11;mix-blend-mode:multiply;}.cls-4{fill:url(#linear-gradient-2);}.cls-5{fill:url(#linear-gradient-3);}.cls-6{fill:#8e4f41;}.cls-7{fill:#894c3e;}.cls-8{fill:#694a42;}.cls-9{fill:#fff;}.cls-10{fill:#eee;}.cls-11{fill:#b0958f;}</style><linearGradient id="linear-gradient" x1="-214.81" y1="528.1" x2="-210.61" y2="528.1" gradientTransform="matrix(-16.96, 23.5, 23.5, 16.96, -15925.85, -3870.35)" gradientUnits="userSpaceOnUse"><stop offset="0" stop-color="#aa5137"/><stop offset="0.45" stop-color="#c26a48"/><stop offset="1" stop-color="#943a27"/></linearGradient><linearGradient id="linear-gradient-2" x1="37.47" y1="164.07" x2="72.34" y2="200.73" gradientTransform="translate(184.96 -43.64) rotate(78.2)" gradientUnits="userSpaceOnUse"><stop offset="0" stop-color="#fff"/><stop offset="1" stop-color="#9abdcb"/></linearGradient><linearGradient id="linear-gradient-3" x1="162.22" y1="51.84" x2="196.2" y2="85.37" xlink:href="#linear-gradient-2"/></defs><title>Asset 1</title><g class="cls-1"><g id="Layer_2" data-name="Layer 2"><g id="balls"><path class="cls-2" d="M182.68,152.27a11.73,11.73,0,0,0,6-8.44c7.6-48-18.83-91.76-54.24-117-34.3-24.44-89-37.5-127.85-15.93A11.65,11.65,0,0,0,.7,19.68C-4.67,64,21.46,110.61,61.36,139.13,97.77,165.15,147.06,171.32,182.68,152.27Z"/><path class="cls-3" d="M182.68,152.27a12.52,12.52,0,0,0,2.12-1.47c-22.54,6.17-48,1-73.39-10.61-7.23-3.28-14.18-7.24-21.3-11.37Q79.91,122.9,70,115.94a222.23,222.23,0,0,1-19-14.57A159.79,159.79,0,0,1,26.16,74.54C14.53,58.26,5.42,40,1.11,17.72a11.76,11.76,0,0,0-.41,2C-4.67,64,21.46,110.61,61.36,139.13,97.77,165.15,147.06,171.32,182.68,152.27Z"/><path class="cls-4" d="M47.58,20.79A94.88,94.88,0,0,0,56,.06,112,112,0,0,0,37,1a24.81,24.81,0,0,1-1.6,4.34C28.83,18.3,19.5,33.63,9.28,42.05a106.2,106.2,0,0,0,8.49,17.16C27.85,50.92,40.16,34.81,47.58,20.79Z"/><path class="cls-5" d="M145.47,149.35a95.9,95.9,0,0,0,21.35,2.4,107.25,107.25,0,0,0,22.54-36.09,113.64,113.64,0,0,0-10.42-36.29c2,6.63,1.51,15.49-1,23.29C172.38,120.11,157.14,136.7,145.47,149.35Z"/><path class="cls-6" d="M120.73,38.8C74.67,6.27,28.45,8.21,5.22,11.82a11.79,11.79,0,0,0-2.77,3c21.62-3.81,69.32-7.54,116.84,26,41.68,29.45,66,59.48,66.89,108.53a11.71,11.71,0,0,0,2.35-4.78C186.17,97.44,161.8,67.81,120.73,38.8Z"/><path class="cls-7" d="M161,154.14a69.8,69.8,0,0,0,22.34-2.25,11.69,11.69,0,0,0,3.88-4c-7.51,3-16.38,4.17-26.1,3.72-18.44-.86-39.89-7.48-60.95-18.26C68.49,117.17,37.71,91.55,19.36,61.79,10.15,46.86,4.08,30.89,2.63,14.55A11.61,11.61,0,0,0,.7,19.67c2.16,15,8,29.66,16.52,43.43C35.81,93.23,67,119.2,99,135.61,120.42,146.57,142.24,153.27,161,154.14Z"/><path class="cls-8" d="M81.82,19c-10,1.11-19.88,2.9-29.85,4a1.26,1.26,0,0,0-1,.75A1.23,1.23,0,0,0,51.1,25a63.1,63.1,0,0,0,9.2,10.51c3.67,3.14,7.84,5.3,12.61,5.29A33.36,33.36,0,0,1,89,44.67c8.9,4.82,14,12,22.41,17.57,8.85,5.87,20.8,13,28.77,20.27,3,2.74,5.28,6.34,7.71,9.77,2.58,3.65,5.35,7.12,9.19,9.35a25.86,25.86,0,0,0,9.84,3.09,1.25,1.25,0,0,0,1.38-1.53,215.6,215.6,0,0,0-6.62-22.09l-2.36.84c2.33,6.55,4.41,13.26,6.1,20a21.83,21.83,0,0,1-7.08-2.49c-3.53-2-6-5.27-8.41-8.63-2.53-3.58-4.92-7.31-8.06-10.18-8.06-7.35-20.13-14.57-29.08-20.5-8.47-5.6-13.63-12.83-22.6-17.69a35.85,35.85,0,0,0-17.3-4.19c-4.16,0-7.77-1.94-11-4.68a54.3,54.3,0,0,1-7.52-8.36c9.25-1.13,18.43-2.74,27.68-3.77Z"/><path class="cls-8" d="M162.7,79c4.45.92,8.88,1.91,13.36,2.67A1.24,1.24,0,0,0,177.42,80c-3.76-8.41-10.73-13.5-17-19.87C150.32,49.94,141.47,38.14,129.58,30c-11.35-7.76-24.56-11.83-37-17.55a38,38,0,0,1-5.54-3.08A36.28,36.28,0,0,0,82,6c-5.91-2.74-12.88-3-19.26-2.38a1.25,1.25,0,0,0-.37,2.4c7,2.93,13.55,7.18,17.69,11.56l1.82-1.73A52.75,52.75,0,0,0,68,5.89,30.61,30.61,0,0,1,81,8.31a33.38,33.38,0,0,1,4.7,3.13,40,40,0,0,0,5.9,3.29c12.28,5.66,25.37,9.66,36.6,17.34,11.76,8,20.49,19.74,30.44,29.78,5.53,5.57,11.64,10.09,15.44,16.93-3.63-.68-7.22-1.47-10.83-2.21Z"/><path class="cls-9" d="M75.76,22.2c8.11,2,17.56,6.16,27.27,11.71,21.7,12.4,44.67,31.64,56.94,49.51l7.8-5.36c-13-18.87-37.14-39.27-60.05-52.36C97.15,19.66,86.83,15.17,78,13Z"/><path class="cls-10" d="M162,82.06a121.06,121.06,0,0,0-14.24-16.21,250.71,250.71,0,0,0-48.8-36.31A98.72,98.72,0,0,0,81.1,21.42a29.08,29.08,0,0,0-4.88-1.12l-.46,1.9c8.11,2,17.56,6.16,27.27,11.71,21.7,12.4,44.67,31.64,56.94,49.51Z"/><path class="cls-11" d="M77.19,16.92c27,6.59,68.81,37,87.07,63.54l.88-.58c-18.46-26.87-60.44-57-87.7-63.67Z"/><path class="cls-9" d="M123.31,56.69c1.72-1.52,3.26-2.65,4.76-4a17.83,17.83,0,0,0,1.42-1.47,14.9,14.9,0,0,0,1.24-1.63,33.4,33.4,0,0,0,2-3.62c.91-1.84,1.66-3.7,2.52-5.84l-5-3.23c-1.82,1.95-3.53,3.51-5.13,5.22a21.29,21.29,0,0,0-1.6,1.84,16.79,16.79,0,0,0-1.39,2,28.11,28.11,0,0,0-1.76,3.8c-.53,1.34-.9,2.6-1.37,4.09Z"/><path class="cls-9" d="M137.89,69.43c2-1.11,3.64-1.94,5.3-3a15.62,15.62,0,0,0,1.58-1.2,13.94,13.94,0,0,0,1.4-1.37,34,34,0,0,0,2.38-3.11c1.07-1.55,2-3.16,3.17-5l-4.29-4.17c-1.8,1.25-3.37,2.26-4.88,3.42a35.09,35.09,0,0,0-3,2.51,14.51,14.51,0,0,0-1.28,1.43,16.21,16.21,0,0,0-1.12,1.59c-1,1.66-1.79,3.29-2.9,5.23Z"/><path class="cls-9" d="M153,84.28c1.92-.81,3.57-1.37,5.3-2.22a16,16,0,0,0,1.62-.91,14.29,14.29,0,0,0,1.46-1.1,30.5,30.5,0,0,0,2.6-2.61c1.25-1.36,2.32-2.78,3.61-4.3l-3.66-4.72c-1.82.89-3.46,1.61-5.09,2.52a27.59,27.59,0,0,0-3.17,2,12.5,12.5,0,0,0-1.41,1.21,15.21,15.21,0,0,0-1.25,1.4c-1.19,1.53-2.09,3-3.28,4.76Z"/><path class="cls-9" d="M77.93,10.18c-1.1,1.58-2.15,2.73-3.13,4.18a15.3,15.3,0,0,0-.87,1.44,11.61,11.61,0,0,0-.67,1.53,27,27,0,0,0-.86,3.3c-.37,1.7-.58,3.34-.87,5.24l5.55,2.2c1.07-1.57,2.08-2.86,3-4.31a24.2,24.2,0,0,0,1.7-3.06A11.8,11.8,0,0,0,82.36,19a12.58,12.58,0,0,0,.33-1.77,45.51,45.51,0,0,0,.18-5.56Z"/><path class="cls-9" d="M92.73,34.75a38.68,38.68,0,0,0,3.85-3.86,10.21,10.21,0,0,0,1-1.39,9.38,9.38,0,0,0,.8-1.5,24.56,24.56,0,0,0,1.06-3.25c.64-2.43.93-4.35,1.07-5.15L95,17.29c-.46.63-1.69,2-3.07,4A25.26,25.26,0,0,0,90.16,24a10.15,10.15,0,0,0-.66,1.51,11.91,11.91,0,0,0-.44,1.6c-.44,2-.52,3.7-.8,5Z"/><path class="cls-9" d="M109.19,45.34c1.59-1.4,3.07-2.48,4.54-3.88A15.25,15.25,0,0,0,115.08,40a13.76,13.76,0,0,0,1.15-1.6,27.47,27.47,0,0,0,1.82-3.59A53.73,53.73,0,0,0,120.11,29l-5.26-2.83c-1.5,1.86-3.07,3.37-4.56,5.08-.51.58-1,1.14-1.45,1.76A16.16,16.16,0,0,0,107.61,35a26.76,26.76,0,0,0-1.56,3.64c-.49,1.32-.79,2.53-1.2,3.93Z"/></g></g></g></svg>