<svg xmlns="http://www.w3.org/2000/svg" xmlns:xlink="http://www.w3.org/1999/xlink" viewBox="0 0 133.5898 94.0911"><defs><style>.cls-1{fill:url(#linear-gradient);}.cls-2{fill:#cab2b2;}.cls-3{fill:#f2e5ea;}.cls-4{fill:url(#linear-gradient-2);}.cls-5{fill:#f6f2f4;}.cls-6{fill:url(#linear-gradient-3);}</style><linearGradient id="linear-gradient" x1="-450.87906" y1="-29.07415" x2="-446.68238" y2="-29.07415" gradientTransform="matrix(-3.5278, 12.1975, 12.1975, 3.5278, -1177.34583, 5649.93381)" gradientUnits="userSpaceOnUse"><stop offset="0" stop-color="#decfcf"/><stop offset="1" stop-color="#d5c5c5"/></linearGradient><linearGradient id="linear-gradient-2" x1="-429.04209" y1="6.61378" x2="-424.84541" y2="6.61378" gradientTransform="matrix(-4.9358, 6.0294, 6.0294, 4.9358, -2039.3136, 2623.29416)" gradientUnits="userSpaceOnUse"><stop offset="0" stop-color="#fbfcfc"/><stop offset="1" stop-color="#dfb6c5"/></linearGradient><linearGradient id="linear-gradient-3" x1="41.17797" y1="70.5543" x2="61.54783" y2="85.98601" gradientTransform="matrix(0.4612, 0.8873, -0.8873, 0.4612, 148.45731, 3.4991)" gradientUnits="userSpaceOnUse"><stop offset="0" stop-color="#4c4c4c"/><stop offset="1" stop-color="#232323"/></linearGradient></defs><title>Asset 15</title><g id="Layer_2" data-name="Layer 2"><g id="balls"><path class="cls-1" d="M107.2354,58.1046,31.5818,0,30.39821,9.2983,17.6631,12.7084l2.3056,15.2678L7.6838,34.1589l6.2751,14.8737L2.1639,57.8042,10.17,69.6229,0,79.3889l8.5641,7.443L3.4369,94.0911l98.7578-7.1676Z"/><polygon class="cls-2" points="99.804 52.397 70.779 30.105 66.273 31.154 71.342 42.642 60.725 45.064 66.625 55.841 55.659 59.702 62.564 70.067 51.939 74.65 60.045 80.872 51.69 86.619 57.68 90.154 89.987 87.809 99.804 52.397"/><path class="cls-3" d="M90.9689,45.6114l-3.5834-2.7522A104.69169,104.69169,0,0,0,74.7944,88.9121l4.4816-.3253A100.2141,100.2141,0,0,1,90.9689,45.6114Z"/><path class="cls-3" d="M103.0804,54.9135l-3.639-2.795a114.26281,114.26281,0,0,0-9.0701,35.6631l4.5024-.3268A109.69961,109.69961,0,0,1,103.0804,54.9135Z"/><path class="cls-3" d="M59.1797,90.0454l2.516-.1826c.6507-18.1171,6.2182-38.9333,15.9292-54.5001l-1.9985-1.5349C65.569,49.8551,59.8066,71.3725,59.1797,90.0454Z"/><path class="cls-3" d="M104.00621,61.1283,21.4385,12.8715l-1.266,2.1662L102.74,63.2941Z"/><path class="cls-3" d="M102.1881,67.8152,10.12921,33.3587,9.2498,35.7089,101.3085,70.165Z"/><path class="cls-3" d="M100.4921,74.6245,4.5798,56.4485l-.4671,2.4651L100.025,77.0897Z"/><path class="cls-3" d="M98.936,80.4002.4121,78.8393.3723,81.3482l98.5235,1.5607Z"/><path class="cls-4" d="M119.8737,57.8277l-14.8766-3.6356L96.4338,88.6273l17.8961,3.8592C132.1096,96.7502,144.2327,64.4034,119.8737,57.8277Z"/><path class="cls-5" d="M128.478,87.5748a14.234,14.234,0,0,0,2.7207-3.5543,19.63372,19.63372,0,0,0,2.1563-6.4358,19.84487,19.84487,0,0,0,.10021-5.3486,17.59008,17.59008,0,0,0-.42651-2.2776,16.74036,16.74036,0,0,0-1.7483-4.3112,15.46616,15.46616,0,0,0-1.8388-2.516,17.02449,17.02449,0,0,0-4.5517-3.5764,21.58816,21.58816,0,0,0-5.3466-2.011l-14.5462-3.3518,14.267,4.389a20.959,20.959,0,0,1,4.9275,2.1812,16.25016,16.25016,0,0,1,5.6462,5.7312,17.20154,17.20154,0,0,1,1.6767,3.8785,19.511,19.511,0,0,1,.7793,5.2849,21.59871,21.59871,0,0,1-.2568,3.5991A16.82192,16.82192,0,0,1,128.478,87.5748Z"/><path class="cls-6" d="M105.2356,90.5254c2.3822-11.4238,5.1047-23.033,7.7217-34.388l-7.9602-1.9453L99.2706,77.2199Q97.989,82.97645,96.7873,88.7035Z"/></g></g></svg>