<svg xmlns="http://www.w3.org/2000/svg" xmlns:xlink="http://www.w3.org/1999/xlink" viewBox="0 0 102.4834 101.8489"><defs><style>.cls-1{fill:#e14d4d;}.cls-2{fill:url(#radial-gradient);}.cls-3{fill:#878787;}.cls-4{fill:#b5b5b5;}</style><radialGradient id="radial-gradient" cx="-79.93828" cy="506.93801" r="0.24118" gradientTransform="translate(265530.93482 -89136.06563) rotate(62.47689) scale(545.73367)" gradientUnits="userSpaceOnUse"><stop offset="0" stop-color="#e6e6e6"/><stop offset="0.51" stop-color="#d5d5d5"/><stop offset="1" stop-color="#9f9f9f"/></radialGradient></defs><title>Asset 8</title><g id="Layer_2" data-name="Layer 2"><g id="balls"><path class="cls-1" d="M90.0843,17.7626a6.05832,6.05832,0,0,0-.2318-1.3932,4.77223,4.77223,0,0,0-.2555-.819,2.50126,2.50126,0,0,0-.3109-.5821,1.82641,1.82641,0,0,0-.4475-.4312,4.80761,4.80761,0,0,0-1.2196-.5222,10.39167,10.39167,0,0,0-2.083-.5098,10.33137,10.33137,0,0,0,.6459,2.0451,4.74984,4.74984,0,0,0,.6033,1.1806,1.90042,1.90042,0,0,0,.4587.4201,2.53286,2.53286,0,0,0,.6022.2695,4.60836,4.60836,0,0,0,.834.2026A6.22492,6.22492,0,0,0,90.0843,17.7626Z"/><path class="cls-1" d="M93.9852,22.9021a5.622,5.622,0,0,0,.0223-1.3653,4.15958,4.15958,0,0,0-.1022-.8166,2.35026,2.35026,0,0,0-.1954-.5966,1.68254,1.68254,0,0,0-.3582-.4695,4.33483,4.33483,0,0,0-1.0828-.6517,9.44119,9.44119,0,0,0-1.9189-.7458,9.40446,9.40446,0,0,0,.2614,2.0413,4.3424,4.3424,0,0,0,.3751,1.2083,1.65563,1.65563,0,0,0,.3675.4591,2.26993,2.26993,0,0,0,.5337.3332,4.27489,4.27489,0,0,0,.7675.2969A5.62623,5.62623,0,0,0,93.9852,22.9021Z"/><path class="cls-1" d="M24.8944,7.6841a10.81719,10.81719,0,0,0-1.431-.2762,4.021,4.021,0,0,0-.9099-.0078,2.80754,2.80754,0,0,0-.8321.1893,1.66071,1.66071,0,0,0-.4664.2908,4.60216,4.60216,0,0,0-.9006,1.1156,11.81105,11.81105,0,0,0-.9602,2.025c.6035-.1024.9739-.1175,1.5637-.2067.3612-.0544.6263-.0745.9784-.1508a4.76038,4.76038,0,0,0,.8962-.2181,2.20656,2.20656,0,0,0,.4937-.3032,2.47983,2.47983,0,0,0,.3475-.3717,5.01814,5.01814,0,0,0,.4755-.6904C24.4921,8.5327,24.5653,8.2611,24.8944,7.6841Z"/><path class="cls-1" d="M19.6655,10.711a7.03016,7.03016,0,0,0-1.3995-.1416,2.1634,2.1634,0,0,0-.7996.1594,1.27357,1.27357,0,0,0-.3803.2609,2.92872,2.92872,0,0,0-.4463.5838,5.0604,5.0604,0,0,0-.3668.6693,8.89188,8.89188,0,0,0-.4178,1.1027c.626-.1542,1.0964-.1457,1.836-.2997a2.98931,2.98931,0,0,0,.6539-.1743,1.4995,1.4995,0,0,0,.3649-.2294,1.53755,1.53755,0,0,0,.2414-.2856,2.9636,2.9636,0,0,0,.3058-.5425C19.468,11.3592,19.4895,11.1723,19.6655,10.711Z"/><path class="cls-1" d="M4.5998,72.0394a8.0148,8.0148,0,0,0-.0707,1.274,3.21328,3.21328,0,0,0,.1388.8144,2.47875,2.47875,0,0,0,.3404.7395,1.77672,1.77672,0,0,0,.3769.3971,3.61054,3.61054,0,0,0,1.259.6488,4.7483,4.7483,0,0,0,2.0344.1347,5.69314,5.69314,0,0,1-1.2922-1.685c-.112-.1849-.1725-.3702-.2951-.5484a3.59943,3.59943,0,0,0-.3621-.4705,3.28988,3.28988,0,0,0-.4281-.3281,5.64208,5.64208,0,0,0-.5048-.3184C5.3476,72.425,5.0692,72.3254,4.5998,72.0394Z"/><ellipse class="cls-2" cx="51.2417" cy="50.92442" rx="51.2417" ry="50.92447"/><path class="cls-1" d="M3.0571,68.6174a10.25356,10.25356,0,0,0-.3337,1.0721,2.27654,2.27654,0,0,0-.0732.5889,1.20666,1.20666,0,0,0,.032.3608,1.25449,1.25449,0,0,0,.1783.3794,2.38665,2.38665,0,0,0,.4618.4805,13.36288,13.36288,0,0,0,1.4813,1.0183c.0549-.7618.1555-1.1485.1646-1.7635a2.48122,2.48122,0,0,0-.0365-.6442,1.166,1.166,0,0,0-.1509-.3731,1.394,1.394,0,0,0-.2332-.2679,2.777,2.777,0,0,0-.4755-.3544A8.13863,8.13863,0,0,0,3.0571,68.6174Z"/><path class="cls-3" d="M57.1996,40.099l-1.335,1.2299,1.3533,1.4201,1.4951-1.4141Z"/><path class="cls-3" d="M54.8398,46.9133l-1.3351,1.2299,1.3534,1.4201,1.495-1.4141Z"/><path class="cls-3" d="M54.4091,53.453l-1.335,1.2299,1.2801,1.3716,1.4037-1.3519Z"/><path class="cls-3" d="M54.1171,60.7657l-1.335,1.2299,1.2801,1.3716,1.4037-1.3519Z"/><path class="cls-3" d="M40.0696,54.3891l-1.335,1.2299,1.2801,1.3716,1.4037-1.3519Z"/><path class="cls-3" d="M40.4749,64.0541l-1.0047,1.5118,1.5692,1.0284,1.0425-1.6466Z"/><path class="cls-3" d="M41.519,72.2462l-.1806,1.8062,1.868.1746.1508-1.943Z"/><path class="cls-3" d="M44.1892,81.161l.5319,1.7355,1.7903-.5614-.6124-1.8502Z"/><path class="cls-3" d="M49.3805,87.9764l1.3215,1.2444,1.2774-1.3742-1.4481-1.3042Z"/><path class="cls-3" d="M52.9925,92.2695l1.1204,1.0525,1.2769-1.3743-1.2466-1.1122Z"/><path class="cls-3" d="M57.5053,96.7064l1.2171.5945.8196-1.6873-1.3552-.6149Z"/><path class="cls-3" d="M62.4111,99.5548l1.0563.4898.8131-1.6064-1.1878-.5911Z"/><path class="cls-3" d="M41.7765,45.8712l-1.4808,1.0497,1.0949,1.5236,1.5645-1.1621Z"/><path class="cls-3" d="M44.5746,38.0525l-1.6257.8077.8457,1.6748,1.7257-.9057Z"/><path class="cls-3" d="M48.6505,30.9211l-1.7919.2898.3115,1.8502,1.9165-.3538Z"/><path class="cls-3" d="M54.3979,24.8338l-1.8145-.0487-.1143,1.5934,1.9489.009Z"/><path class="cls-3" d="M59.7234,19.9585l-1.6992-.6384-.6281,1.4688,1.8391.6447Z"/><path class="cls-3" d="M66.2466,16.7632l-1.5434-.9554-.9007,1.3193,1.6795.9887Z"/><path class="cls-3" d="M72.7109,15.1453l-1.32-1.2461-1.0259.9883,1.4465,1.3061Z"/><path class="cls-3" d="M77.4603,14.3412l-1.32-1.2461-1.0203.91,1.4465,1.3061Z"/><path class="cls-3" d="M82.6251,14.1551l-1.32-1.2461-.9408.7624,1.4465,1.306Z"/><path class="cls-3" d="M85.6517,14.0773l-1.3199-1.2461-.9409.7624,1.4465,1.3061Z"/><path class="cls-3" d="M54.921,68.3333l-1.335,1.2299,1.2801,1.3716,1.4037-1.3519Z"/><path class="cls-3" d="M14.6631,43.3819l-1.5968.8632.9029,1.6446,1.6934-.9645Z"/><path class="cls-3" d="M4.8127,42.1043l-.83,1.139.4917,1.4405.8797-1.256Z"/><path class="cls-3" d="M3.4835,48.4374l-.7656,1.1833.5708,1.4111.8087-1.3029Z"/><path class="cls-3" d="M3.0096,54.3943l-.6345,1.2585.7186,1.3419.6646-1.382Z"/><path class="cls-3" d="M2.5074,60.8545l-.5618,1.2926.7938,1.2987.5848-1.4175Z"/><path class="cls-3" d="M6.3724,36.5819l-.8765,1.1038.4317,1.4596.931-1.2185Z"/><path class="cls-3" d="M7.924,30.6869l-.9145,1.0724L7.39,33.2332l.9729-1.1853Z"/><path class="cls-3" d="M9.466,25.1394l-.9679,1.0244.3048,1.4914L9.835,26.521Z"/><path class="cls-3" d="M11.1772,20.9511l-.9179.8262.3605,1.2701.9772-.9161Z"/><path class="cls-3" d="M16.1117,37.9593l-1.5448.9533.9957,1.5902,1.6354-1.0601Z"/><path class="cls-3" d="M17.6839,32.3552l-1.5447.9534.9957,1.5902,1.6353-1.0601Z"/><path class="cls-3" d="M19.0494,27.0772l-1.5447.9533.9957,1.5903,1.6353-1.0601Z"/><path class="cls-3" d="M20.0832,22.7977l-.4935,1.4552,1.7978.5367.495-1.5976Z"/><path class="cls-3" d="M21.3588,18.5301l-.4935,1.4553,1.8243.3828.4466-1.2911Z"/><path class="cls-3" d="M22.8024,15.0484l-.4278,1.2779,1.8243.3828.3372-1.1703Z"/><path class="cls-3" d="M23.5306,10.9492l-.1944,1.0135,1.8621.0857.1225-.8924Z"/><path class="cls-3" d="M13.0789,49.8658,11.615,50.9392l1.1193,1.5058,1.5456-1.187Z"/><path class="cls-3" d="M12.1447,55.2084l-1.3549,1.208,1.2576,1.3923,1.4255-1.3289Z"/><path class="cls-3" d="M10.9504,62.1677l-.5643,1.542,1.7524.6701.5806-1.6858Z"/><path class="cls-3" d="M10.0159,68.6002l-.5643,1.542,1.7668.5226.5662-1.5383Z"/><path class="cls-3" d="M9.2664,74.3533l-.4851,1.3084,1.7669.5226.483-1.3022Z"/><path class="cls-3" d="M56.7696,73.1477l-1.0581,1.4749,1.5316,1.0837,1.1005-1.6083Z"/><path class="cls-3" d="M59.4764,78.3233l-.7943,1.6322,1.6924.8101.8136-1.7709Z"/><path class="cls-3" d="M62.36,83.6642l.344,1.7099,1.8301-.4136-.4125-1.8347Z"/><path class="cls-3" d="M66.7716,89.7654l.7978,1.2052,1.565-1.0348-.906-1.2976Z"/><path class="cls-3" d="M71.1501,92.4113l.9432.7539,1.2193-1.426-1.0723-.813Z"/><path class="cls-3" d="M75.6216,93.9429l.9432.7539,1.2193-1.426-1.0723-.813Z"/><path class="cls-3" d="M60.9451,35.2533l-1.2083,1.3545,1.4082,1.2399,1.2647-1.4828Z"/><path class="cls-3" d="M79.7912,23.0601l.6483,1.4437,1.1948-.3488-.605-1.4881Z"/><path class="cls-3" d="M84.6481,22.5938l.5887,1.465,1.2545-.3702-.605-1.488Z"/><path class="cls-3" d="M90.1534,22.2006l.5362,1.4584,1.3992-.2749-.6973-1.5767Z"/><path class="cls-3" d="M64.3798,30.6453l-1.128,1.4222,1.4775,1.1564,1.1769-1.5535Z"/><path class="cls-3" d="M69.5682,26.6232,68.4525,28.055l1.4874,1.1436,1.1634-1.5635Z"/><path class="cls-3" d="M75.4367,23.6898l-1.335,1.2299,1.4493,1.1518,1.2345-1.1321Z"/><path class="cls-1" d="M82.5466,16.8086a9.37759,9.37759,0,0,0-.7922-1.0217,6.887,6.887,0,0,0-.5731-.5955,3.80893,3.80893,0,0,0-.5208-.4181,3.08164,3.08164,0,0,0-.5829-.3011,7.934,7.934,0,0,0-1.3112-.3377,16.7695,16.7695,0,0,0-2.0845-.2932l-.4185.7637a16.91987,16.91987,0,0,0,1.3791,1.591,7.738,7.738,0,0,0,.9966.9189,3.23482,3.23482,0,0,0,.5692.3273,4.07563,4.07563,0,0,0,.6349.2098,6.70533,6.70533,0,0,0,.8116.158,9.44813,9.44813,0,0,0,1.2867.1093Z"/><path class="cls-1" d="M87.1877,16.9126a9.06391,9.06391,0,0,0-.6463-1.0673,5.9479,5.9479,0,0,0-.482-.631,3.82586,3.82586,0,0,0-.4529-.4526,2.90646,2.90646,0,0,0-.5307-.3422,7.20343,7.20343,0,0,0-1.2258-.4354,15.50872,15.50872,0,0,0-1.9788-.453l-.4881.7185a15.61667,15.61667,0,0,0,1.144,1.674,7.32624,7.32624,0,0,0,.8549.9825,2.86493,2.86493,0,0,0,.5114.3667,3.68654,3.68654,0,0,0,.5858.2564,6.19888,6.19888,0,0,0,.7664.2194,8.70723,8.70723,0,0,0,1.2281.2089Z"/><path class="cls-1" d="M77.5657,17.4009a8.668,8.668,0,0,0-.7617-.9863,6.19852,6.19852,0,0,0-.5511-.572,3.88007,3.88007,0,0,0-.5022-.3976,2.78813,2.78813,0,0,0-.5673-.2785,7.1255,7.1255,0,0,0-1.2665-.2921,15.356,15.356,0,0,0-2.0174-.2227l-.4037.77a15.50061,15.50061,0,0,0,1.3313,1.5311,7.21506,7.21506,0,0,0,.9594.8781,2.77742,2.77742,0,0,0,.5522.3054,3.72552,3.72552,0,0,0,.6107.1877,6.48491,6.48491,0,0,0,.7844.1302,8.809,8.809,0,0,0,1.2449.0663Z"/><path class="cls-1" d="M71.4349,19.4438a9.75265,9.75265,0,0,0-.8546-.991,6.63568,6.63568,0,0,0-.6103-.5736,4.12734,4.12734,0,0,0-.5472-.3982,3.17016,3.17016,0,0,0-.6068-.278,8.10048,8.10048,0,0,0-1.3475-.2837,17.25533,17.25533,0,0,0-2.1204-.2098l-.38.7824a17.05185,17.05185,0,0,0,1.4771,1.5386,8.37123,8.37123,0,0,0,1.0555.8801,3.31363,3.31363,0,0,0,.5947.304,3.912,3.912,0,0,0,.6508.1848,6.8593,6.8593,0,0,0,.8272.1258,9.693,9.693,0,0,0,1.3087.0564Z"/><path class="cls-1" d="M65.3251,22.843a10.92627,10.92627,0,0,0-.9359-1.0197,7.19585,7.19585,0,0,0-.6641-.5928,4.53825,4.53825,0,0,0-.5894-.4139,3.93592,3.93592,0,0,0-.6502-.2926,9.13541,9.13541,0,0,0-1.4302-.3134,19.55443,19.55443,0,0,0-2.245-.2524l-.3735.7848a19.39379,19.39379,0,0,0,1.6092,1.5863,9.06215,9.06215,0,0,0,1.1444.9112,3.69664,3.69664,0,0,0,.6371.3197,4.6269,4.6269,0,0,0,.694.1989,7.73431,7.73431,0,0,0,.8762.1434,10.97435,10.97435,0,0,0,1.3819.0823Z"/><path class="cls-1" d="M59.8573,27.3804a9.58419,9.58419,0,0,0-.899-.9247,6.55252,6.55252,0,0,0-.6375-.5256,4.06739,4.06739,0,0,0-.5636-.3564,3.09691,3.09691,0,0,0-.6134-.2322,7.65887,7.65887,0,0,0-1.3394-.1859,16.643,16.643,0,0,0-2.1014-.0539l-.3247.8053a16.18208,16.18208,0,0,0,1.5464,1.4234,7.83,7.83,0,0,0,1.0879.8001,3.25309,3.25309,0,0,0,.6036.2598,4.01611,4.01611,0,0,0,.6535.1357,6.36623,6.36623,0,0,0,.8224.0649,9.34861,9.34861,0,0,0,1.289-.0381Z"/><path class="cls-1" d="M55.1329,32.632a11.78322,11.78322,0,0,0-1.1787-.7525,8.05658,8.05658,0,0,0-.8065-.4049,5.02731,5.02731,0,0,0-.6878-.2503,3.59978,3.59978,0,0,0-.713-.1185,9.27437,9.27437,0,0,0-1.478.056,20.04557,20.04557,0,0,0-2.2665.3249l-.1608.8539a19.56322,19.56322,0,0,0,1.9911,1.1278,9.49977,9.49977,0,0,0,1.3559.5939,3.75109,3.75109,0,0,0,.7073.1484,4.81459,4.81459,0,0,0,.7325.0168,7.69848,7.69848,0,0,0,.8972-.0841,11.39006,11.39006,0,0,0,1.3718-.2684Z"/><path class="cls-1" d="M51.4332,39.0818a12.26859,12.26859,0,0,0-1.3116-.6053,8.29367,8.29367,0,0,0-.8782-.3066,5.02061,5.02061,0,0,0-.738-.167,3.98185,3.98185,0,0,0-.7429-.0333,10.04236,10.04236,0,0,0-1.5151.2333,21.89031,21.89031,0,0,0-2.285.5921l-.0557.8677a21.47455,21.47455,0,0,0,2.1918.8829,9.92515,9.92515,0,0,0,1.4695.4269,3.96779,3.96779,0,0,0,.7409.0628,5.16255,5.16255,0,0,0,.7543-.07,8.72672,8.72672,0,0,0,.9125-.1901,12.05862,12.05862,0,0,0,1.3746-.4314Z"/><path class="cls-1" d="M49.0908,45.2802a14.02262,14.02262,0,0,0-1.5091-.2454,9.92632,9.92632,0,0,0-.9931-.0672,5.80143,5.80143,0,0,0-.8033.0301,4.54537,4.54537,0,0,0-.7837.1622,11.44339,11.44339,0,0,0-1.5132.6203,24.19188,24.19188,0,0,0-2.217,1.1677l.1566.8549a24.22581,24.22581,0,0,0,2.4925.2847,11.59912,11.59912,0,0,0,1.6324.0304,4.55131,4.55131,0,0,0,.7891-.133,5.7884,5.7884,0,0,0,.765-.2643c.3375-.1371.6189-.2752.8989-.4218a13.64762,13.64762,0,0,0,1.3174-.7755Z"/><path class="cls-1" d="M47.1877,53.1856a14.01733,14.01733,0,0,0-1.5208-.1584,9.92922,9.92922,0,0,0-.9953-.0099,5.79628,5.79628,0,0,0-.8002.0761,4.55006,4.55006,0,0,0-.7731.207,11.44822,11.44822,0,0,0-1.4751.7063,24.19071,24.19071,0,0,0-2.1463,1.2931l.2056.8445a24.22,24.22,0,0,0,2.5047.1409,11.58654,11.58654,0,0,0,1.6315-.0634,4.55346,4.55346,0,0,0,.7801-.1781,5.77879,5.77879,0,0,0,.7486-.3078c.329-.1563.602-.3103.8731-.4727a13.644,13.644,0,0,0,1.2707-.8499Z"/><path class="cls-1" d="M47.0019,62.0101c-.5075-.0013-.9006-.0283-1.4081-.0055a8.15261,8.15261,0,0,0-.8962.0851,4.89246,4.89246,0,0,0-.7178.1522,3.77381,3.77381,0,0,0-.6675.2757,9.70778,9.70778,0,0,0-1.23.8285c-.6446.4828-1.143.9482-1.7693,1.4585l.3063.8147c.8093-.0246,1.4951-.0086,2.3044-.0813a9.28408,9.28408,0,0,0,1.4767-.2149,3.79092,3.79092,0,0,0,.6813-.2497,4.88,4.88,0,0,0,.6355-.3749,8.44346,8.44346,0,0,0,.7224-.55c.3841-.326.6584-.6163,1.0241-.962Z"/><path class="cls-1" d="M48.1459,69.662c-.5052.0481-.8992.0596-1.402.1318a8.13234,8.13234,0,0,0-.8836.1719,4.886,4.886,0,0,0-.6996.2215,3.76584,3.76584,0,0,0-.6375.3394,9.6872,9.6872,0,0,0-1.1433.9444c-.5945.5433-1.0452,1.0551-1.6189,1.6239l.3843.7811c.803-.1034,1.4871-.1544,2.2854-.3055a9.29889,9.29889,0,0,0,1.4489-.3578,3.80275,3.80275,0,0,0,.6536-.3148,4.88715,4.88715,0,0,0,.596-.4351,8.48651,8.48651,0,0,0,.6654-.6178c.3505-.3618.5952-.6775.9255-1.0572Z"/><path class="cls-1" d="M50.2753,76.6488c-.4731.1837-.8491.3019-1.3133.5082a8.13693,8.13693,0,0,0-.8034.4059,4.87859,4.87859,0,0,0-.613.4035,3.76755,3.76755,0,0,0-.521.5,9.69558,9.69558,0,0,0-.8433,1.2199c-.4242.6846-.7186,1.2996-1.1159,2.0031l.5823.647c.7446-.318,1.389-.5531,2.1161-.9158a9.29519,9.29519,0,0,0,1.2968-.7385,3.78966,3.78966,0,0,0,.5433-.4808,4.883,4.883,0,0,0,.4552-.5808,8.493,8.493,0,0,0,.4721-.7755c.2388-.4436.3884-.814.603-1.2692Z"/><path class="cls-1" d="M53.5568,82.6118c-.3884.2331-.6811.3784-1.0521.6299a6.082,6.082,0,0,0-.621.4729,3.5525,3.5525,0,0,0-.4464.4447,2.83421,2.83421,0,0,0-.3351.5172,7.13713,7.13713,0,0,0-.4227,1.202c-.2.6864-.2842,1.2455-.4465,1.9386l.7119.4993c.5999-.3932,1.0936-.6727,1.6665-1.1054a6.88849,6.88849,0,0,0,.9757-.8376,2.7433,2.7433,0,0,0,.3625-.5048,3.54907,3.54907,0,0,0,.25-.5793,6.28121,6.28121,0,0,0,.2128-.7572c.0947-.4404.1215-.7662.1928-1.2133Z"/><path class="cls-1" d="M56.7729,87.0954c-.3652.2132-.6211.3325-.9715.566a5.01124,5.01124,0,0,0-.5674.4296,2.932,2.932,0,0,0-.3988.4046,2.23506,2.23506,0,0,0-.2834.4731,5.8,5.8,0,0,0-.3205,1.1107c-.1435.6465-.1769,1.1407-.2877,1.7962l.7274.477c.5607-.3616.999-.5997,1.5344-1.0018a5.64434,5.64434,0,0,0,.8809-.7608,2.25275,2.25275,0,0,0,.3129-.4626,2.84984,2.84984,0,0,0,.1992-.5348,5.10569,5.10569,0,0,0,.1485-.6988c.0623-.4193.0597-.7016.0944-1.1228Z"/><path class="cls-1" d="M60.9172,90.5558a8.248,8.248,0,0,0-.9859.7119,5.736,5.736,0,0,0-.5692.5193,3.42538,3.42538,0,0,0-.3992.4774,2.74584,2.74584,0,0,0-.28.5404,6.66936,6.66936,0,0,0-.2998,1.2292,14.21343,14.21343,0,0,0-.2329,1.9566l.7582.4219a14.55951,14.55951,0,0,0,1.5298-1.2457,6.865,6.865,0,0,0,.8801-.9101,2.6453,2.6453,0,0,0,.3055-.5256,3.5002,3.5002,0,0,0,.1924-.5931,6.34408,6.34408,0,0,0,.1338-.7605,8.39991,8.39991,0,0,0,.0736-1.211Z"/><path class="cls-1" d="M65.5534,93.9544a9.12044,9.12044,0,0,0-1.0628.6626,5.2288,5.2288,0,0,0-.5965.5092l1.2444,2.1979-1.2467-2.1946s-.0182.019-.0358.039a2.13915,2.13915,0,0,0-.5527.9088,6.93606,6.93606,0,0,0-.2453,1.0679,15.71113,15.71113,0,0,0-.2128,1.7034l.7477.4461a15.42676,15.42676,0,0,0,1.4006-.9842,7.26539,7.26539,0,0,0,.8293-.7232,2.59967,2.59967,0,0,0,.3429-.4468,2.39447,2.39447,0,0,0,.1975-.4671c.0103-.0244.02-.0497.02-.0497l-1.2447.7004,1.246-.7052a5.02805,5.02805,0,0,0,.1681-.7648,9.18364,9.18364,0,0,0,.086-1.2492Z"/><path class="cls-1" d="M54.8097,69.1152a10.66405,10.66405,0,0,0-1.2116-.6044,8.02138,8.02138,0,0,0-.8139-.3059,4.58032,4.58032,0,0,0-.6858-.1659,3.488,3.488,0,0,0-.6949-.033,8.79512,8.79512,0,0,0-1.4128.2346,18.85165,18.85165,0,0,0-2.1306.5934l-.0594.8674a18.44931,18.44931,0,0,0,2.03.8805,8.67265,8.67265,0,0,0,1.367.4257,3.43112,3.43112,0,0,0,.6904.0627,4.37251,4.37251,0,0,0,.6996-.0705,7.25189,7.25189,0,0,0,.8504-.1911,10.26086,10.26086,0,0,0,1.2847-.432Z"/><path class="cls-1" d="M56.786,74.1448a10.65151,10.65151,0,0,0-1.3254-.277,8.0021,8.0021,0,0,0-.8649-.0892,4.57549,4.57549,0,0,0-.7054.0135,3.49761,3.49761,0,0,0-.6805.1446,8.78924,8.78924,0,0,0-1.307.5856,18.852,18.852,0,0,0-1.9101,1.1149l.1627.854a18.43205,18.43205,0,0,0,2.187.3363,8.68651,8.68651,0,0,0,1.4304.0647,3.42158,3.42158,0,0,0,.6837-.1147,4.36967,4.36967,0,0,0,.6587-.2457,7.26168,7.26168,0,0,0,.774-.4007,10.25562,10.25562,0,0,0,1.133-.7442Z"/><path class="cls-1" d="M59.3852,79.1907a10.65624,10.65624,0,0,0-1.3518-.0781,8.0141,8.0141,0,0,0-.8685.0396,4.57282,4.57282,0,0,0-.6957.1177,3.48363,3.48363,0,0,0-.6517.2436,8.79955,8.79955,0,0,0-1.2061.7723,18.83463,18.83463,0,0,0-1.7243,1.385l.2872.8206a18.43417,18.43417,0,0,0,2.2127.0093,8.69042,8.69042,0,0,0,1.4242-.1474,3.43115,3.43115,0,0,0,.6592-.2145,4.37464,4.37464,0,0,0,.6152-.3404,7.2514,7.2514,0,0,0,.7063-.5108,10.26144,10.26144,0,0,0,1.0105-.9033Z"/><path class="cls-1" d="M62.8329,83.7497a10.65807,10.65807,0,0,0-1.3539-.0226,7.99653,7.99653,0,0,0-.8661.0752,4.57688,4.57688,0,0,0-.6903.1461,3.48587,3.48587,0,0,0-.6412.2701,8.79726,8.79726,0,0,0-1.1734.8211,18.83131,18.83131,0,0,0-1.666,1.4545l.3205.8082a18.44754,18.44754,0,0,0,2.2113-.0814,8.69219,8.69219,0,0,0,1.4169-.2057,3.42417,3.42417,0,0,0,.6499-.2414,4.357,4.357,0,0,0,.6007-.3653,7.24178,7.24178,0,0,0,.6847-.5393,10.26054,10.26054,0,0,0,.9727-.944Z"/><path class="cls-1" d="M67.8357,89.3411a10.65107,10.65107,0,0,0-1.27-.4694,8.02474,8.02474,0,0,0-.8423-.2158,4.57893,4.57893,0,0,0-.6997-.0905,3.49,3.49,0,0,0-.6944.0426,8.792,8.792,0,0,0-1.379.3865,18.83673,18.83673,0,0,0-2.0536.8211l.035.8687a18.43539,18.43539,0,0,0,2.1135.6551,8.684,8.684,0,0,0,1.4052.2748,3.418,3.418,0,0,0,.6931-.0126,4.37142,4.37142,0,0,0,.6878-.1459,7.23414,7.23414,0,0,0,.8246-.2823,10.25759,10.25759,0,0,0,1.2304-.5689Z"/><path class="cls-1" d="M72.0227,91.6806a10.65647,10.65647,0,0,0-1.3331-.2372,8.0074,8.0074,0,0,0-.8671-.0634,4.58352,4.58352,0,0,0-.7047.0347,3.48872,3.48872,0,0,0-.6759.1649,8.78941,8.78941,0,0,0-1.2889.6244,18.83649,18.83649,0,0,0-1.8759,1.1715l.1882.8488a18.44586,18.44586,0,0,0,2.1961.2707,8.68452,8.68452,0,0,0,1.4316.0219,3.423,3.423,0,0,0,.68-.1351,4.364,4.364,0,0,0,.6511-.2653,7.25205,7.25205,0,0,0,.7617-.4237,10.25887,10.25887,0,0,0,1.1102-.7777Z"/><path class="cls-1" d="M76.3107,93.07a10.6619,10.6619,0,0,0-1.3533-.0444,8.01475,8.01475,0,0,0-.8673.0613,4.55868,4.55868,0,0,0-.6925.135,3.48231,3.48231,0,0,0-.6455.2597,8.79339,8.79339,0,0,0-1.1864.8021,18.84438,18.84438,0,0,0-1.6893,1.4275l.3075.8132a18.45253,18.45253,0,0,0,2.2123-.0457,8.70079,8.70079,0,0,0,1.42-.1829,3.42349,3.42349,0,0,0,.6537-.2309,4.35233,4.35233,0,0,0,.6065-.3556,7.22817,7.22817,0,0,0,.6934-.5282,10.25859,10.25859,0,0,0,.9877-.9282Z"/><path class="cls-1" d="M55.3448,47.6068a9.50767,9.50767,0,0,0-.781-1.0174,5.79084,5.79084,0,0,0-.5646-.5933,3.95054,3.95054,0,0,0-.5116-.4172,3.09923,3.09923,0,0,0-.578-.2995,7.71257,7.71257,0,0,0-1.3023-.3343,16.4268,16.4268,0,0,0-2.0651-.2902l-.4175.7627a16.40368,16.40368,0,0,0,1.3559,1.5859,7.92022,7.92022,0,0,0,.981.9153,3.3313,3.3313,0,0,0,.5637.3257,4.01691,4.01691,0,0,0,.63.2077,6.44919,6.44919,0,0,0,.8054.1565,9.12287,9.12287,0,0,0,1.2741.1075Z"/><path class="cls-1" d="M54.7555,54.1228a11.68085,11.68085,0,0,0-1.1466-.8614,8.1832,8.1832,0,0,0-.7911-.4806,4.87642,4.87642,0,0,0-.6846-.3142,3.97852,3.97852,0,0,0-.7162-.1876,10.03784,10.03784,0,0,0-1.5219-.0819,20.85591,20.85591,0,0,0-2.3437.1088l-.2343.8364A21.25867,21.25867,0,0,0,49.262,54.456a9.938,9.938,0,0,0,1.3413.72,3.965,3.965,0,0,0,.7092.2159,4.91939,4.91939,0,0,0,.749.0855,8.30271,8.30271,0,0,0,.9251.0013,11.82078,11.82078,0,0,0,1.4258-.1379Z"/><path class="cls-1" d="M54.2592,61.4567a11.75,11.75,0,0,0-1.2573-.6573c-.2661-.119-.5278-.232-.8492-.341a5.15675,5.15675,0,0,0-.7176-.1956,3.76471,3.76471,0,0,0-.7321-.0624,9.55434,9.55434,0,0,0-1.4929.1724,20.43436,20.43436,0,0,0-2.2651.499l-.0944.8657a20.94167,20.94167,0,0,0,2.1081.9697,10.05605,10.05605,0,0,0,1.4249.4845,3.98862,3.98862,0,0,0,.7267.0934,5.288,5.288,0,0,0,.7416-.0394,8.67747,8.67747,0,0,0,.9014-.1539,11.87619,11.87619,0,0,0,1.369-.3761Z"/><path class="cls-1" d="M91.6171,22.4033a9.064,9.064,0,0,0-.3717-1.2461,7.07134,7.07134,0,0,0-.3238-.7666,4.15137,4.15137,0,0,0-.338-.5816,3.2093,3.2093,0,0,0-.4371-.4964,8.10043,8.10043,0,0,0-1.1095-.796,17.21267,17.21267,0,0,0-1.8449-1.0391l-.6647.5625a16.64037,16.64037,0,0,0,.718,1.9938,7.88846,7.88846,0,0,0,.6054,1.2229,2.88323,2.88323,0,0,0,.4147.5157,4.12776,4.12776,0,0,0,.5175.4288,7.31379,7.31379,0,0,0,.7028.4456,9.60984,9.60984,0,0,0,1.1683.5727Z"/><path class="cls-1" d="M86.1754,22.937a9.793,9.793,0,0,0-.2009-1.2859,7.19892,7.19892,0,0,0-.2161-.8054,4.30971,4.30971,0,0,0-.2548-.6232,3.51726,3.51726,0,0,0-.3672-.5528,8.06874,8.06874,0,0,0-.9921-.9402,16.54,16.54,0,0,0-1.6886-1.2846l-.7347.4664a16.936,16.936,0,0,0,.4423,2.0748,8.175,8.175,0,0,0,.4304,1.2977,3.26322,3.26322,0,0,0,.3442.5664,3.90731,3.90731,0,0,0,.4534.4979,7.11043,7.11043,0,0,0,.6375.5376,9.54811,9.54811,0,0,0,1.0793.7282Z"/><path class="cls-1" d="M81.3406,23.4624a9.66426,9.66426,0,0,0-.2175-1.3021,6.67572,6.67572,0,0,0-.2271-.8155,4.38392,4.38392,0,0,0-.2656-.63,3.0267,3.0267,0,0,0-.3759-.5597A8.20716,8.20716,0,0,0,79.2472,19.2a17.65632,17.65632,0,0,0-1.7136-1.3032l-.7315.4697a18.18326,18.18326,0,0,0,.4703,2.1006,8.33178,8.33178,0,0,0,.4506,1.3124,3.32087,3.32087,0,0,0,.3502.5767,4.38941,4.38941,0,0,0,.4662.5011,7.29118,7.29118,0,0,0,.6447.5475,9.7514,9.7514,0,0,0,1.0916.7412Z"/><path class="cls-1" d="M76.0862,24.7715a9.30752,9.30752,0,0,0-.188-1.2634,6.32657,6.32657,0,0,0-.2086-.7892,3.82061,3.82061,0,0,0-.2468-.6116,3.15536,3.15536,0,0,0-.3594-.5403,7.53,7.53,0,0,0-.9773-.9149,16.484,16.484,0,0,0-1.6649-1.2472l-.734.4663a16.22981,16.22981,0,0,0,.4187,2.0391,7.60325,7.60325,0,0,0,.4156,1.2728,3.18109,3.18109,0,0,0,.3371.5537,3.84132,3.84132,0,0,0,.4468.4847,6.91519,6.91519,0,0,0,.6271.5232,9.22,9.22,0,0,0,1.0657.7058Z"/><path class="cls-1" d="M70.3049,27.6558a9.798,9.798,0,0,0-.2526-1.2651,7.11618,7.11618,0,0,0-.2462-.7891,4.255,4.255,0,0,0-.2797-.6051,3.20154,3.20154,0,0,0-.3875-.5305,7.991,7.991,0,0,0-1.026-.8839,16.14689,16.14689,0,0,0-1.733-1.1915l-.7121.4981a16.44152,16.44152,0,0,0,.5231,2.0368,7.712,7.712,0,0,0,.48,1.2666,3.22736,3.22736,0,0,0,.3655.5449,3.53375,3.53375,0,0,0,.4732.47,7.018,7.018,0,0,0,.6546.5037,9.62274,9.62274,0,0,0,1.1031.6706Z"/><path class="cls-1" d="M64.7624,31.5028a8.80766,8.80766,0,0,0-.347-1.2044,6.72239,6.72239,0,0,0-.3049-.7404A3.6952,3.6952,0,0,0,63.788,29a2.84817,2.84817,0,0,0-.4217-.4736,7.35825,7.35825,0,0,0-1.0748-.7499,15.49748,15.49748,0,0,0-1.7987-.9645l-.6604.5638a15.9075,15.9075,0,0,0,.6736,1.9258,7.40154,7.40154,0,0,0,.5713,1.1799,3.119,3.119,0,0,0,.3997.4924,3.75127,3.75127,0,0,0,.504.4028,6.046,6.046,0,0,0,.6818.4185,8.85591,8.85591,0,0,0,1.1367.5301Z"/><path class="cls-1" d="M61.4895,36.1212a10.31832,10.31832,0,0,0-.6545-1.1418,6.64793,6.64793,0,0,0-.4949-.6836,4.36206,4.36206,0,0,0-.4647-.5002,3.25554,3.25554,0,0,0-.5472-.3897,8.19559,8.19559,0,0,0-1.2727-.5438,17.54236,17.54236,0,0,0-2.0535-.6244l-.5233.6956a17.54145,17.54145,0,0,0,1.1653,1.8038,8.28544,8.28544,0,0,0,.876,1.0707,3.311,3.311,0,0,0,.5271.4177,4.40371,4.40371,0,0,0,.6075.3102,8.15384,8.15384,0,0,0,.7945.2851,10.00785,10.00785,0,0,0,1.2795.3115Z"/><path class="cls-1" d="M57.8108,41.0072a8.4012,8.4012,0,0,0-.6177-1.0609,6.37615,6.37615,0,0,0-.4679-.6262,3.50316,3.50316,0,0,0-.4404-.4494,2.68543,2.68543,0,0,0-.5153-.3414,7.28989,7.28989,0,0,0-1.2036-.4336,15.3011,15.3011,0,0,0-1.9457-.4477l-.4953.7143a14.77639,14.77639,0,0,0,1.1022,1.6632,6.7,6.7,0,0,0,.8268.9769,2.707,2.707,0,0,0,.4987.3654,3.53115,3.53115,0,0,0,.5756.2542,6.35675,6.35675,0,0,0,.7511.2181,8.57034,8.57034,0,0,0,1.2109.2055Z"/><path class="cls-1" d="M11.6171,31.4883a8.1677,8.1677,0,0,0,.7178.9806,6.35608,6.35608,0,0,0,.5258.5684,3.80618,3.80618,0,0,0,.4801.3955,2.648,2.648,0,0,0,.5486.2784,6.76672,6.76672,0,0,0,1.2299.2912,14.57547,14.57547,0,0,0,1.966.2241l.4115-.764a14.42756,14.42756,0,0,0-1.2573-1.5235,6.76517,6.76517,0,0,0-.919-.8732,2.76224,2.76224,0,0,0-.5304-.3045,3.37806,3.37806,0,0,0-.5943-.1866,5.69632,5.69632,0,0,0-.7636-.1307,8.22942,8.22942,0,0,0-1.2116-.0677Z"/><path class="cls-1" d="M13.1162,26.3179a7.90151,7.90151,0,0,0,.7783.9488,5.34371,5.34371,0,0,0,.5592.5448,3.30393,3.30393,0,0,0,.5044.374,2.77653,2.77653,0,0,0,.5631.2532,6.989,6.989,0,0,0,1.2562.2356,15.01873,15.01873,0,0,0,1.9913.1342l.3772-.7844a15.35,15.35,0,0,0-1.3547-1.4664,7.10364,7.10364,0,0,0-.9668-.8325,2.69206,2.69206,0,0,0-.5552-.2799,3.486,3.486,0,0,0-.6047-.16,5.985,5.985,0,0,0-.7774-.0958,8.43623,8.43623,0,0,0-1.2265-.0118Z"/><path class="cls-1" d="M14.5638,21.9745a8.14426,8.14426,0,0,0,.8225.8964,5.83206,5.83206,0,0,0,.5907.5074,3.27493,3.27493,0,0,0,.5214.3405,2.61878,2.61878,0,0,0,.5723.2173,6.88411,6.88411,0,0,0,1.2566.1554,14.73068,14.73068,0,0,0,1.9821.0075l.3257-.8051a14.906,14.906,0,0,0-1.4239-1.3763,6.72746,6.72746,0,0,0-1.0065-.7683,2.75289,2.75289,0,0,0-.5616-.2448,3.50952,3.50952,0,0,0-.6123-.1207,5.89846,5.89846,0,0,0-.7746-.0461,8.26249,8.26249,0,0,0-1.2138.0651Z"/><path class="cls-1" d="M15.7877,18.072a8.63035,8.63035,0,0,0,.8777.8549,5.80361,5.80361,0,0,0,.6209.4778,3.48938,3.48938,0,0,0,.5411.3151,2.75634,2.75634,0,0,0,.5891.1878,6.9129,6.9129,0,0,0,1.2753.0922,14.861,14.861,0,0,0,1.9867-.0904l.2853-.8214a14.41925,14.41925,0,0,0-1.5041-1.3055,7.046,7.046,0,0,0-1.0567-.7175,2.7796,2.7796,0,0,0-.579-.2161,3.549,3.549,0,0,0-.6226-.0899,5.9236,5.9236,0,0,0-.781-.0078,8.3407,8.3407,0,0,0-1.2159.1262Z"/><path class="cls-1" d="M17.3333,14.7759a8.592,8.592,0,0,0,.9177.8073,6.38562,6.38562,0,0,0,.6371.4453,3.54921,3.54921,0,0,0,.5555.2858,2.76232,2.76232,0,0,0,.5936.1577,6.895,6.895,0,0,0,1.2701.0256,14.77323,14.77323,0,0,0,1.9791-.1951l.2423-.8343a14.89464,14.89464,0,0,0-1.5627-1.2245,6.84432,6.84432,0,0,0-1.0881-.6607,2.64916,2.64916,0,0,0-.5856-.1862,3.47494,3.47494,0,0,0-.619-.0582,5.94434,5.94434,0,0,0-.7779.0332,8.32633,8.32633,0,0,0-1.2093.1901Z"/><path class="cls-1" d="M19.0828,11.8077a6.28381,6.28381,0,0,0,.894.5922,4.26525,4.26525,0,0,0,.6014.2988,2.64819,2.64819,0,0,0,.5118.1584,2.00032,2.00032,0,0,0,.5197.0269,5.04121,5.04121,0,0,0,1.0666-.2482,10.91488,10.91488,0,0,0,1.6164-.613l.0667-.8655a10.57421,10.57421,0,0,0-1.4979-.8613,4.99238,4.99238,0,0,0-1.0143-.4115,1.95525,1.95525,0,0,0-.5171-.0563,2.29835,2.29835,0,0,0-.4268.0565q-.90345.66075-1.776,1.3597Z"/><path class="cls-1" d="M10.0106,37.058a8.16729,8.16729,0,0,0,.7695.9407,6.36721,6.36721,0,0,0,.5556.5392,3.78822,3.78822,0,0,0,.5006.3692,2.64758,2.64758,0,0,0,.5628.2486,6.77387,6.77387,0,0,0,1.2437.2247,14.58464,14.58464,0,0,0,1.9752.1181l.3699-.785a14.4318,14.4318,0,0,0-1.3373-1.4537,6.75916,6.75916,0,0,0-.9646-.8226,2.7673,2.7673,0,0,0-.546-.2756,3.36424,3.36424,0,0,0-.6035-.1543,5.66564,5.66564,0,0,0-.7695-.0896,8.22434,8.22434,0,0,0-1.2135-.0025Z"/><path class="cls-1" d="M8.4277,42.6467a8.16729,8.16729,0,0,0,.7695.9407,6.35313,6.35313,0,0,0,.5556.5393,3.78761,3.78761,0,0,0,.5006.3691,2.64257,2.64257,0,0,0,.5628.2486,6.76545,6.76545,0,0,0,1.2437.2247,14.56428,14.56428,0,0,0,1.9752.1181l.3699-.7849a14.4318,14.4318,0,0,0-1.3373-1.4537,6.75969,6.75969,0,0,0-.9646-.8227,2.77274,2.77274,0,0,0-.546-.2756,3.38118,3.38118,0,0,0-.6035-.1543,5.69947,5.69947,0,0,0-.7695-.0896,8.2306,8.2306,0,0,0-1.2135-.0024Z"/><path class="cls-1" d="M7.1064,48.9569a8.16535,8.16535,0,0,0,.7694.9408,6.36721,6.36721,0,0,0,.5556.5392,3.78528,3.78528,0,0,0,.5006.3691,2.64479,2.64479,0,0,0,.5628.2486,6.76583,6.76583,0,0,0,1.2437.2248,14.58523,14.58523,0,0,0,1.9752.1181l.3699-.785a14.41664,14.41664,0,0,0-1.3373-1.4537,6.75916,6.75916,0,0,0-.9646-.8226,2.7673,2.7673,0,0,0-.546-.2756,3.37305,3.37305,0,0,0-.6035-.1544,5.68109,5.68109,0,0,0-.7694-.0895,8.22372,8.22372,0,0,0-1.2135-.0025Z"/><path class="cls-1" d="M6.277,54.7977a8.29872,8.29872,0,0,0,.7774.9179,6.10578,6.10578,0,0,0,.5547.5238,3.71119,3.71119,0,0,0,.4999.3554,2.67051,2.67051,0,0,0,.5574.2333,6.661,6.661,0,0,0,1.2328.1919,14.24349,14.24349,0,0,0,1.9496.0673l.3603-.7932a14.359,14.359,0,0,0-1.3444-1.4144,7.07686,7.07686,0,0,0-.9631-.7962,2.67743,2.67743,0,0,0-.5452-.26,3.38351,3.38351,0,0,0-.5981-.1391,5.65314,5.65314,0,0,0-.7592-.069,8.0203,8.0203,0,0,0-1.2027.029Z"/><path class="cls-1" d="M5.704,61.3166a8.29872,8.29872,0,0,0,.7774.9179,6.0926,6.0926,0,0,0,.5547.5238,3.69856,3.69856,0,0,0,.4999.3554,2.668,2.668,0,0,0,.5574.2332,6.653,6.653,0,0,0,1.2328.192,14.24349,14.24349,0,0,0,1.9496.0673l.3602-.7932a14.34887,14.34887,0,0,0-1.3443-1.4144,7.07176,7.07176,0,0,0-.9632-.7962,2.66889,2.66889,0,0,0-.5451-.26,3.37472,3.37472,0,0,0-.5981-.1391,5.65459,5.65459,0,0,0-.7592-.069,8.0203,8.0203,0,0,0-1.2027.029Z"/><path class="cls-1" d="M4.8067,66.9987a9.35,9.35,0,0,0,.6956,1.0723,7.66652,7.66652,0,0,0,.5165.6336,4.51207,4.51207,0,0,0,.48.4529,3.01414,3.01414,0,0,0,.5556.3416,7.55242,7.55242,0,0,0,1.2704.4305,16.38467,16.38467,0,0,0,2.0325.4414l.4744-.7287a15.78975,15.78975,0,0,0-1.2294-1.6808,7.80211,7.80211,0,0,0-.9076-.985,3.03515,3.03515,0,0,0-.5382-.3666,3.8505,3.8505,0,0,0-.609-.2543,6.7269,6.7269,0,0,0-.7863-.2155,9.19634,9.19634,0,0,0-1.2635-.2013Z"/><path class="cls-1" d="M4.5207,71.2751a9.33651,9.33651,0,0,0,.4988,1.1768,7.68127,7.68127,0,0,0,.3986.7137,4.51174,4.51174,0,0,0,.3941.5294,3.01447,3.01447,0,0,0,.4879.4329,7.55778,7.55778,0,0,0,1.1763.6445,16.3733,16.3733,0,0,0,1.925.7876l.5937-.6352a15.78257,15.78257,0,0,0-.9189-1.8688,7.80027,7.80027,0,0,0-.7228-1.1276,3.03449,3.03449,0,0,0-.4663-.4545,3.85955,3.85955,0,0,0-.5556-.3562,6.71716,6.71716,0,0,0-.737-.3487,9.17929,9.17929,0,0,0-1.2093-.4177Z"/><path class="cls-1" d="M7.5342,32.6518a9.01638,9.01638,0,0,0,1.5865.4728,3.08976,3.08976,0,0,0,.6219.0777,1.36609,1.36609,0,0,0,.4023-.0411,2.33429,2.33429,0,0,0,.6355-.3219,3.89232,3.89232,0,0,0,.919-.7626l-.1555-1.1915a3.887,3.887,0,0,0-1.0835-.5016,2.30766,2.30766,0,0,0-.6996-.1476,1.37942,1.37942,0,0,0-.3978.0631,3.07533,3.07533,0,0,0-.5806.2345,9.164,9.164,0,0,0-1.4128.8646Z"/><path class="cls-1" d="M8.9986,27.1334a10.0389,10.0389,0,0,0,1.6826.3955,3.41731,3.41731,0,0,0,.6537.0476,1.54286,1.54286,0,0,0,.4207-.0608,2.51426,2.51426,0,0,0,.6538-.353,4.25838,4.25838,0,0,0,.9373-.8079l-.2012-1.1842a4.302,4.302,0,0,0-1.1522-.449,2.52186,2.52186,0,0,0-.7406-.1138,1.4957,1.4957,0,0,0-.4115.0827,3.47316,3.47316,0,0,0-.6036.2629,9.92993,9.92993,0,0,0-1.4493.9337Z"/><path class="cls-1" d="M10.8083,22.9621a9.31568,9.31568,0,0,0,1.6552.272,3.20543,3.20543,0,0,0,.6355,0,1.47247,1.47247,0,0,0,.4023-.091,2.37471,2.37471,0,0,0,.6036-.3987,4.01182,4.01182,0,0,0,.8321-.8719l-.2972-1.164a3.99672,3.99672,0,0,0-1.1522-.3635,2.34232,2.34232,0,0,0-.7178-.0599,1.40475,1.40475,0,0,0-.3978.1125,3.11671,3.11671,0,0,0-.5532.3049,9.15151,9.15151,0,0,0-1.3259,1.0347Z"/><path class="cls-1" d="M14.8268,16.6714a2.30231,2.30231,0,0,0-.7132-.0571,1.4523,1.4523,0,0,0-.3932.1138,3.2803,3.2803,0,0,0-.5487.3073c-.1771.1187-.3349.2331-.4789.3417q-.3912.4437-.772.8965l.2679,1.024a9.17474,9.17474,0,0,0,1.646.2652,3.16905,3.16905,0,0,0,.6309-.0023,1.32894,1.32894,0,0,0,.3933-.0928,2.26342,2.26342,0,0,0,.5989-.401,3.86251,3.86251,0,0,0,.8184-.8746l-.3018-1.1618A3.92506,3.92506,0,0,0,14.8268,16.6714Z"/><path class="cls-1" d="M6.1846,38.6223a8.67134,8.67134,0,0,0,1.5918.3109,2.95513,2.95513,0,0,0,.6098.0152,1.31655,1.31655,0,0,0,.3848-.0811,2.19077,2.19077,0,0,0,.5792-.3832,3.68523,3.68523,0,0,0,.8059-.8497l-.2826-1.168a3.675,3.675,0,0,0-1.1016-.3903,2.2156,2.2156,0,0,0-.6955-.0771,1.34763,1.34763,0,0,0-.3791.1028,2.96286,2.96286,0,0,0-.5338.2907,8.59846,8.59846,0,0,0-1.274,1.0002Z"/><path class="cls-1" d="M4.6017,44.211a8.67134,8.67134,0,0,0,1.5918.3109,2.955,2.955,0,0,0,.6098.0153,1.3199,1.3199,0,0,0,.3848-.0812,2.18834,2.18834,0,0,0,.5792-.3832,3.68276,3.68276,0,0,0,.8059-.8497l-.2826-1.1679a3.67279,3.67279,0,0,0-1.1016-.3904,2.21271,2.21271,0,0,0-.6955-.077,1.34428,1.34428,0,0,0-.3791.1028,2.96245,2.96245,0,0,0-.5338.2906,8.59438,8.59438,0,0,0-1.274,1.0003Z"/><path class="cls-1" d="M3.2803,50.5213a8.66693,8.66693,0,0,0,1.5918.3108,2.955,2.955,0,0,0,.6098.0153,1.31979,1.31979,0,0,0,.3848-.0811,2.18859,2.18859,0,0,0,.5792-.3833,3.67969,3.67969,0,0,0,.8059-.8497l-.2826-1.1679a3.67638,3.67638,0,0,0-1.1016-.3904,2.21564,2.21564,0,0,0-.6955-.077,1.34763,1.34763,0,0,0-.3791.1028,2.96867,2.96867,0,0,0-.5338.2906,8.59438,8.59438,0,0,0-1.274,1.0003Z"/><path class="cls-1" d="M2.9447,56.4339a7.02876,7.02876,0,0,0,1.4523.2708,2.41546,2.41546,0,0,0,.5495.0011,1.08361,1.08361,0,0,0,.3432-.0898,1.7631,1.7631,0,0,0,.4916-.3937,2.97755,2.97755,0,0,0,.6587-.8619l-.3412-1.1515a3.0178,3.0178,0,0,0-1.0221-.3608,1.81152,1.81152,0,0,0-.6305-.0599,1.06886,1.06886,0,0,0-.3329.1108,2.35087,2.35087,0,0,0-.46.3013,7.11647,7.11647,0,0,0-1.0714,1.0219Z"/><path class="cls-1" d="M2.3717,62.9528a7.02681,7.02681,0,0,0,1.4523.2708,2.41545,2.41545,0,0,0,.5495.0011,1.08232,1.08232,0,0,0,.3431-.0898,1.76215,1.76215,0,0,0,.4917-.3937,2.97755,2.97755,0,0,0,.6587-.8619l-.3412-1.1515a3.0178,3.0178,0,0,0-1.0221-.3608,1.81186,1.81186,0,0,0-.6306-.0599,1.06916,1.06916,0,0,0-.3328.1108,2.34789,2.34789,0,0,0-.46.3013,7.1102,7.1102,0,0,0-1.0714,1.0219Z"/><path class="cls-1" d="M3.776,65.4278a1.18742,1.18742,0,0,0-.5761.0119.71252.71252,0,0,0-.3018.1783,1.256,1.256,0,0,0-.2789.3781,2.30227,2.30227,0,0,0-.201.4221q.27825.86685.5864,1.7203c.1485.0225.3265.0421.5701.0573a2.07987,2.07987,0,0,0,.7819.0484.625.625,0,0,0,.2698-.1499c.1645-.1573.1691-.3045.2743-.5304.2972-.6255.1326-.6149.4435-1.3542a4.77436,4.77436,0,0,0-1.1019-.6539A1.47818,1.47818,0,0,0,3.776,65.4278Z"/><path class="cls-4" d="M90.1267,17.7611c-15.1882-3.1248-30.9066,5.2614-38.3441,20.1982C41.943,57.7113,45.6599,82.1624,65.393,94.0951a43.56536,43.56536,0,0,0,7.027,3.2134q.5334-.241,1.0607-.4929a45.18224,45.18224,0,0,1-7.6553-3.4361C46.4805,81.6809,42.8869,57.6973,52.5305,38.3316c7.4364-14.9303,23.3397-23.1798,38.488-19.5085Q90.5793,18.2864,90.1267,17.7611Z"/><path class="cls-4" d="M17.5439,12.5626A184.10535,184.10535,0,0,0,4.4415,71.6886q.37155.82575.7723,1.6353a183.28175,183.28175,0,0,1,13.688-61.899Q18.213,11.9826,17.5439,12.5626Z"/><path class="cls-1" d="M17.906,13.8113a7.02968,7.02968,0,0,0-1.3168-.4947,2.16278,2.16278,0,0,0-.8138-.0503,1.27734,1.27734,0,0,0-.4344.155,2.92593,2.92593,0,0,0-.5806.4504,5.05709,5.05709,0,0,0-.5258.5532,8.925,8.925,0,0,0-.6858.9592c.6446.011,1.0973.1395,1.8517.1797a2.99043,2.99043,0,0,0,.6766-.0013,1.49951,1.49951,0,0,0,.4115-.1285,1.54383,1.54383,0,0,0,.3064-.2144,2.96972,2.96972,0,0,0,.4343-.4463C17.5494,14.3874,17.6179,14.2123,17.906,13.8113Z"/><path class="cls-1" d="M66.678,100.0707a9.907,9.907,0,0,0,1.2379.0486,3.82545,3.82545,0,0,0,.7576-.08,2.59417,2.59417,0,0,0,.6685-.2169,1.31474,1.31474,0,0,0,.3571-.2577,3.72279,3.72279,0,0,0,.6596-.9224,4.55312,4.55312,0,0,0,.6565-1.8735l-1.2953-.548c-.0795.0742-.1994.0633-.3264.1424-.2594.1602-.5628.2239-.9185.4184a4.56685,4.56685,0,0,0-.762.4357,2.02149,2.02149,0,0,0-.3916.4428,1.865,1.865,0,0,0-.1833.3926,4.5882,4.5882,0,0,0-.2103.6892C66.7542,99.4269,66.7721,99.6259,66.678,100.0707Z"/></g></g></svg>