<svg xmlns="http://www.w3.org/2000/svg" xmlns:xlink="http://www.w3.org/1999/xlink" viewBox="0 0 194.9555 194.6255"><defs><style>.cls-1{fill:url(#radial-gradient);}.cls-2{fill:#cf5b2b;}.cls-3{fill:#934525;}.cls-4{fill:#bd5327;}.cls-5{fill:#ecac91;}.cls-6{fill:#e18056;}.cls-7{fill:url(#linear-gradient);}.cls-8{fill:url(#linear-gradient-2);}.cls-9{fill:url(#linear-gradient-3);}.cls-10{fill:#ad4c24;}.cls-11{fill:#dd7142;}.cls-12{fill:url(#linear-gradient-4);}.cls-13{fill:url(#linear-gradient-5);}.cls-14{fill:url(#linear-gradient-6);}.cls-15{fill:url(#linear-gradient-7);}.cls-16{fill:url(#linear-gradient-8);}</style><radialGradient id="radial-gradient" cx="-487.63727" cy="184.00089" r="0.21794" gradientTransform="matrix(303.821, 659.28388, -659.2823, 303.82129, 269526.73314, 265637.23567)" gradientUnits="userSpaceOnUse"><stop offset="0" stop-color="#ea966c"/><stop offset="1" stop-color="#a9431c"/></radialGradient><linearGradient id="linear-gradient" x1="94.22918" y1="0.14105" x2="94.96243" y2="0.14105" gradientTransform="translate(7.4026)" gradientUnits="userSpaceOnUse"><stop offset="0" stop-color="#575c76"/><stop offset="1" stop-color="#454545"/></linearGradient><linearGradient id="linear-gradient-2" x1="59.69187" y1="44.13362" x2="108.19793" y2="198.42388" xlink:href="#linear-gradient"/><linearGradient id="linear-gradient-3" x1="-490.51837" y1="123.82551" x2="-486.72606" y2="123.82551" gradientTransform="matrix(2.6611, -7.2624, -7.2624, -2.6611, 2269.71141, -3180.35404)" gradientUnits="userSpaceOnUse"><stop offset="0.00149" stop-color="#575c76"/><stop offset="0.5" stop-color="#756b8a"/><stop offset="1" stop-color="#555a72"/></linearGradient><linearGradient id="linear-gradient-4" x1="68.93533" y1="41.22752" x2="117.44134" y2="195.51761" xlink:href="#linear-gradient"/><linearGradient id="linear-gradient-5" x1="105.22846" y1="29.81766" x2="153.73456" y2="184.10804" xlink:href="#linear-gradient"/><linearGradient id="linear-gradient-6" x1="0.88316" y1="62.62191" x2="49.38923" y2="216.91223" xlink:href="#linear-gradient"/><linearGradient id="linear-gradient-7" x1="-445.12377" y1="220.64562" x2="-441.33145" y2="220.64562" gradientTransform="matrix(3.8093, 6.7315, 6.7315, -3.8093, 229.92125, 3890.54686)" gradientUnits="userSpaceOnUse"><stop offset="0" stop-color="#575c76"/><stop offset="0.5" stop-color="#756b8a"/><stop offset="1" stop-color="#53576b"/></linearGradient><linearGradient id="linear-gradient-8" x1="-448.61949" y1="134.33397" x2="-444.82717" y2="134.33397" gradientTransform="matrix(6.7446, -3.7861, -3.786, -6.7446, 3638.44248, -714.5199)" gradientUnits="userSpaceOnUse"><stop offset="0" stop-color="#525568"/><stop offset="0.5" stop-color="#756b8a"/><stop offset="1" stop-color="#53576a"/></linearGradient></defs><title>Asset 13</title><g id="Layer_2" data-name="Layer 2"><g id="balls"><path class="cls-1" d="M92.0195.0337c2.3447.3974,6.142,1.1877,6.142,1.1877A42.77335,42.77335,0,0,0,102.2824,0a97.47286,97.47286,0,0,1,76.5588,43.6393,21.951,21.951,0,0,0,.278,2.2818s.7345.5389,2.1497,1.5808a96.75348,96.75348,0,0,1,13.6866,49.7527,97.894,97.894,0,0,1-1.1163,14.7666c-.6432.8392-1.51889,2.0596-1.51889,2.0596s.29469.8254.76779,2.2224a97.31247,97.31247,0,0,1-32.4155,55.067,23.90877,23.90877,0,0,1-3.1084.6758s-.2366.8122-.805,2.4882a97.09925,97.09925,0,0,1-59.2825,20.0913,98.10887,98.10887,0,0,1-16.4098-1.3764c-4.2347-1.6705-6.1681-2.4246-6.1681-2.4246s-2.3144-.0733-4.2454.0615a97.78862,97.78862,0,0,1-59.4817-48.3562c.0284-1.3679-.014-2.4789-.014-2.4789s-1.01839-.8215-2.0169-1.6021A96.69731,96.69731,0,0,1,.1051,101.8152c.3875-1.0254.7914-1.9473.7914-1.9473S.5429,98.6845,0,97.2546A96.78328,96.78328,0,0,1,13.6717,47.5251c.97861-.777,1.973-1.4729,1.973-1.4729s.28961-1.1224.7669-2.8581A97.47187,97.47187,0,0,1,92.0195.0337Z"/><path class="cls-2" d="M86.55431,4.5185A76.40129,76.40129,0,0,0,73.3808,21.6843a107.49871,107.49871,0,0,0-5.7643,11.7138c-1.0928,2.5889-2.1138,5.3025-3.1078,8.1285-.7747,2.2996-1.4923,4.5368-2.1009,6.7373-.9817,3.5482-1.7431,6.9778-2.37649,10.3074-.68091,3.5796-1.19481,7.0419-1.61711,10.431-.67089,5.3846-1.089,10.5631-1.5658,15.7111.7337-4.2601,1.4588-8.5367,2.2818-12.9413.5235-2.8008,1.0936-5.6433,1.7316-8.5631.887-4.0634,1.948-8.2524,3.2114-12.6599.7697-2.6847,1.5837-5.4587,2.5475-8.3127,1.3655-4.2936,2.8508-8.3111,4.4159-12.0911a109.58986,109.58986,0,0,1,5.559-11.6084A74.89976,74.89976,0,0,1,86.55431,4.5185Z"/><path class="cls-3" d="M67.82631,187.0202A98.14336,98.14336,0,0,1,60.5978,169.823a115.46234,115.46234,0,0,1-3.0781-11.9952c-.6106-3.0144-1.1056-6.0647-1.5353-9.1514-.4234-3.0417-.7878-6.1151-1.0535-9.2324q-.58438-6.8592-.6234-13.9721c-.022-4.6013.097-9.2741.3999-14.0374-.6805,4.7389-1.2077,9.3989-1.5118,14.0035q-.3135,4.7571-.31229,9.4113c.00329,3.1809.11279,6.3246.36559,9.4307.1715,2.1067.4058,4.1952.7181,6.2614.47431,3.1391,1.1147,6.2283,1.8906,9.2675q.7821,3.0627,1.7766,6.0494a91.38141,91.38141,0,0,0,10.19211,21.1619Z"/><path class="cls-4" d="M20.1319,50.3477a122.0997,122.0997,0,0,0,6.6249,12.0435c1.5522,2.5772,3.1358,5.191,4.6392,7.8643.9527,1.6942,1.8714,3.4109,2.7317,5.1557.5715,1.1587,1.1265,2.3254,1.6313,3.5134a56.84054,56.84054,0,0,1,2.1634,5.5465,37.2347,37.2347,0,0,1,1.4056,5.7646,86.676,86.676,0,0,1,.806,11.9912,82.34809,82.34809,0,0,0,.1428-12.1103,33.71809,33.71809,0,0,0-1.0948-6.0241,52.8552,52.8552,0,0,0-2.0144-5.7667c-.5178-1.2174-1.0705-2.4211-1.6724-3.6006-.8991-1.7616-1.8851-3.4798-2.9195-5.1635-1.6138-2.627-3.3426-5.1683-5.0507-7.6641A131.98946,131.98946,0,0,1,20.1319,50.3477Z"/><path class="cls-4" d="M34.4262,109.8126a19.92031,19.92031,0,0,1-3.66889,5.7731c-.82131.9868-1.74491,2.0094-2.74111,3.0792-.8975.9639-1.8546,1.9577-2.8535,2.9824-.62839.6451-1.2751,1.2983-1.9246,1.9713q-.94455.97785-1.9017,1.9977c-.6242.6651-1.2457,1.3452-1.8733,2.0305q-.92985,1.015-1.8593,2.0492c-.5559.6168-1.1096,1.234-1.6618,1.8582-1.2955,1.463-2.5671,2.9316-3.8281,4.3885,1.5463-1.3656,3.12641-2.7224,4.6915-4.1108q1.6422-1.4568,3.2386-2.9269.692-.6384,1.3629-1.2824c.81141-.7791,1.612-1.5504,2.37041-2.3372,1.19539-1.2405,2.30979-2.4924,3.35119-3.7131,1.2861-1.507,2.4407-2.979,3.4455-4.3805A22.21416,22.21416,0,0,0,34.4262,109.8126Z"/><path class="cls-5" d="M91.8279,5.6101A73.34265,73.34265,0,0,0,78.7052,23.318a119.80156,119.80156,0,0,0-5.6953,12.0129c-1.0961,2.6653-2.1183,5.4371-3.1173,8.2912-.9288,2.8091-1.7761,5.4566-2.488,8.0012-1.2176,4.3518-2.1249,8.3722-2.878,12.2364-.5475,2.8091-.9929,5.5334-1.3887,8.2528-.5949,4.0853-1.0572,8.1405-1.541,12.4311.825-4.232,1.634-8.2259,2.5285-12.2497.59291-2.6657,1.2304-5.3334,1.9352-8.0888.9664-3.7766,2.0972-7.6937,3.4259-11.967.7771-2.4984,1.5935-5.1261,2.5401-7.8987,1.101-3.4325,2.2786-6.7324,3.48871-9.9092a126.46224,126.46224,0,0,1,6.413-14.3778A70.33841,70.33841,0,0,1,91.8279,5.6101Z"/><path class="cls-6" d="M16.6078,53.0912c1.8363,3.8096,3.0951,6.6292,4.4016,9.4991.9057,1.9894,1.7987,3.9873,2.9122,6.3331.9213,1.9417,2.0195,4.0952,3.3159,6.6979.72681,1.3163,1.3941,2.5716,2.0459,3.7659.7094,1.2995,1.38591,2.5292,2.004,3.7428a41.5798,41.5798,0,0,1,3.1472,7.7878,41.24049,41.24049,0,0,1,1.4425,11.2738,37.85438,37.85438,0,0,0-.4146-14.5129,44.81031,44.81031,0,0,0-2.9759-8.3031c-.7557-1.6488-1.6507-3.3419-2.5979-5.1794-1.1706-2.0433-2.1526-3.8229-3.0786-5.4009-1.1816-2.0135-2.2215-3.7135-3.236-5.3285C21.49831,60.1627,19.5454,57.2971,16.6078,53.0912Z"/><path class="cls-7" d="M101.4461.2821c.3158-.0875.6329-.1689.9521-.2414l-.00789-.0346c-.036-.0018-.07181-.0044-.10791-.0061Q101.8495.1506,101.4461.2821Z"/><path class="cls-8" d="M100.1536.6848c-1.2132.3591-1.9921.5366-1.9921.5366S94.483.4559,92.1314.0529C83.555,5.915,76.1926,16.8245,70.3761,30.7853,59.0205,58.0399,53.2574,96.8865,54.3209,130.1576c.716,22.4038,4.56041,42.2882,11.74641,54.544a36.90366,36.90366,0,0,0,4.44839,6.1441c.046.0132.0917.0271.1377.0403,1.931-.1348,4.2454-.0615,4.2454-.0615s1.9334.7541,6.1681,2.4247c.1986.0336.3988.0624.5978.0949-4.764-1.4918-8.6902-5.3298-11.9029-10.8086-6.9146-11.7932-10.47149-30.957-11.1606-52.5147-1.0441-32.6719,4.5773-70.8248,15.728-97.5887C81.0364,16.3339,89.6154,4.3349,100.1536.6848Z"/><g id="_-Curve-" data-name=" -Curve-"><path class="cls-9" d="M63.546,54.2314l2.607.4958A148.55882,148.55882,0,0,1,77.5409,23.9429l-2.8504-.4098A145.60787,145.60787,0,0,0,63.546,54.2314Z"/></g><path class="cls-10" d="M154.2518,51.3684c-6.0081,1.7125-12.7874,3.8613-20.1632,6.7577-3.1686,1.2445-6.4427,2.6226-9.8064,4.1697-3.1137,1.4326-6.2918,3.0258-9.553,4.7355-2.44989,1.3528-4.6377,2.5896-6.59189,3.8004A79.45745,79.45745,0,0,0,98.813,77.4902c-1.5045,1.2589-2.882,2.5331-4.21969,3.877C91.7528,84.2216,89.11,87.3731,85.8257,91.3386c5.2495-5.3611,9.0363-9.0534,13.9345-12.6423a99.24572,99.24572,0,0,1,9.4672-6.0348c1.9711-1.1286,4.1335-2.348,6.5768-3.6432,3.1865-1.7774,6.3123-3.4005,9.3414-4.9361q4.9164-2.49255,9.513-4.6216C141.8274,56.1428,148.3932,53.4806,154.2518,51.3684Z"/><path class="cls-6" d="M156.1446,55.1061c-2.9258,1.1129-6.0251,2.2665-9.3005,3.5481-4.3013,1.6837-8.8985,3.5573-13.7922,5.7781-1.9605.8894-3.9659,1.8339-6.0132,2.8541-2.8563,1.4239-5.7868,2.9983-8.81839,4.695-1.64431.9631-3.195,1.8683-4.64461,2.755-1.6376,1.0021-3.1523,1.9674-4.5676,2.899a107.00529,107.00529,0,0,0-8.78879,6.3543A60.866,60.866,0,0,0,90.1626,94.3178a63.40576,63.40576,0,0,1,10.8084-9.3306c2.59731-1.8067,5.5445-3.6402,9.06531-5.695,1.45159-.8473,2.99859-1.7311,4.65089-2.6775,1.4679-.8403,3.01211-1.7386,4.66211-2.6722,3.09089-1.8317,6.09619-3.4915,8.98529-5.0623q4.761-2.5884,9.1403-4.8074C144.3638,60.579,150.5724,57.7046,156.1446,55.1061Z"/><path class="cls-11" d="M111.2391,155.5426a50.2034,50.2034,0,0,1-10.2285-5.4756c-1.3721-.942-2.6847-1.9328-3.9494-2.9628a62.60757,62.60757,0,0,1-4.8471-4.412q-1.5606-1.56735-2.9843-3.1797-1.0974-1.24125-2.11649-2.4934a53.17705,53.17705,0,0,1-4.39361-6.2494,40.92509,40.92509,0,0,1-2.9222-5.8784,21.66479,21.66479,0,0,1-1.7605-9.6811,21.71668,21.71668,0,0,0,.7685,10.017,37.75812,37.75812,0,0,0,2.47481,6.3246,46.07426,46.07426,0,0,0,4.12829,6.7807c.66271.904,1.3696,1.796,2.124,2.6657a43.55817,43.55817,0,0,0,3.1503,3.2734,47.73417,47.73417,0,0,0,5.293,4.2717,46.28021,46.28021,0,0,0,4.3245,2.6814A48.15129,48.15129,0,0,0,111.2391,155.5426Z"/><path class="cls-12" d="M192.32031,114.0808s.87569-1.2204,1.51879-2.0596l.0047-.0326c-23.11,2.3342-47.3836.5261-70.5023-.4681A828.27079,828.27079,0,0,1,.0592,97.412c.5089,1.358.8373,2.4559.8373,2.4559s-.396.9042-.7801,1.9176a833.51344,833.51344,0,0,0,123.0421,14.0137c22.9175.9853,46.9611,2.7343,69.9167.5651l.0129-.0611C192.615,114.9062,192.32031,114.0808,192.32031,114.0808Z"/><path class="cls-13" d="M104.1111,146.7183c-13.5503-9.3172-22.9674-20.7294-22.2129-34.8022.38711-7.2218,4.0522-13.9459,9.6968-20.1582,5.8767-6.4669,13.8919-12.357,22.8037-17.6173,23.0579-13.6032,52.1185-22.9652,66.6852-26.7749-1.2931-.9519-1.9647-1.4446-1.9647-1.4446a21.95153,21.95153,0,0,1-.278-2.2817c-.02-.0302-.0406-.06-.0606-.0902-15.2138,4.083-43.76829,13.4576-66.5551,26.903-11.2048,6.6106-21.0127,14.2161-27.26619,22.6229-4.33781,5.831-6.98651,12.0587-7.33771,18.6118-.8309,15.4926,9.1456,28.3036,24.0643,38.5605,15.5367,10.6822,36.4245,18.6374,55.0747,24.2825.5674-1.673.8036-2.4839.8036-2.4839a23.90877,23.90877,0,0,0,3.1084-.6758c.0389-.0331.0769-.0674.1158-.1007C141.8425,165.7103,120.0878,157.7025,104.1111,146.7183Z"/><path class="cls-14" d="M16.4256,43.1735l-.014.0206c-.47729,1.7357-.7669,2.8581-.7669,2.8581s-.9718.6803-1.93939,1.4464C18.1171,56.6005,24.765,66.0239,29.7635,75.9235c5.4153,10.7251,8.8891,22.0299,4.7022,34.1721-1.7456,5.0624-6.8216,11.1573-12.9297,17.2534-3.8426,3.8349-8.1034,7.6517-12.2786,11.1911.9596.7521,1.9003,1.5108,1.9003,1.5108s.0422,1.1091.0141,2.4754c4.5303-3.8112,9.2036-7.9685,13.3893-12.1459,6.6531-6.6395,12.0521-13.3747,13.9535-18.8887,4.5906-13.3135,1.0093-25.7388-4.9281-37.4989C28.1441,63.214,20.7085,53.0159,16.4256,43.1735Z"/><path class="cls-15" d="M19.58431,51.1738,17.518,52.8389c5.3916,9.7252,11.0279,18.9585,15.8054,28.4875l2.4306-1.7778C30.9241,69.4695,25.0214,60.7154,19.58431,51.1738Z"/><path class="cls-16" d="M101.7549,78.2787l1.658,2.0721a148.556,148.556,0,0,1,28.6712-15.9787l-1.8987-2.165A145.60059,145.60059,0,0,0,101.7549,78.2787Z"/></g></g></svg>