<svg xmlns="http://www.w3.org/2000/svg" xmlns:xlink="http://www.w3.org/1999/xlink" viewBox="0 0 245.5072 239.5338"><defs><style>.cls-1{isolation:isolate;}.cls-2{fill:url(#linear-gradient);}.cls-3{fill:url(#linear-gradient-2);}.cls-4{fill:url(#linear-gradient-3);}.cls-5{fill:url(#linear-gradient-4);}.cls-6{fill:url(#linear-gradient-5);}.cls-7{fill:url(#linear-gradient-6);}.cls-8{mix-blend-mode:multiply;}.cls-9{fill:gray;fill-opacity:0.41;}.cls-10{fill:url(#linear-gradient-7);}.cls-11{fill:#fff;}</style><linearGradient id="linear-gradient" x1="200.57721" y1="139.32311" x2="264.6859" y2="210.55502" gradientTransform="translate(7.4026)" gradientUnits="userSpaceOnUse"><stop offset="0" stop-color="#fbfcfc"/><stop offset="1" stop-color="#91cfcf"/></linearGradient><linearGradient id="linear-gradient-2" x1="128.50077" y1="179.90991" x2="131.78844" y2="274.15529" gradientTransform="translate(7.4026)" gradientUnits="userSpaceOnUse"><stop offset="0" stop-color="#c23e3e"/><stop offset="1" stop-color="#881212"/></linearGradient><linearGradient id="linear-gradient-3" x1="202.04873" y1="55.00227" x2="146.70716" y2="79.11143" gradientTransform="translate(7.4026)" gradientUnits="userSpaceOnUse"><stop offset="0" stop-color="#487bc2"/><stop offset="1" stop-color="#1b5cb9"/></linearGradient><linearGradient id="linear-gradient-4" x1="89.59887" y1="28.43633" x2="159.73495" y2="91.44919" gradientTransform="translate(7.4026)" gradientUnits="userSpaceOnUse"><stop offset="0" stop-color="#4abd43"/><stop offset="1" stop-color="#2b9824"/></linearGradient><linearGradient id="linear-gradient-5" x1="40.78507" y1="106.24287" x2="173.93402" y2="150.62572" gradientTransform="translate(7.4026)" gradientUnits="userSpaceOnUse"><stop offset="0" stop-color="#e0e21e"/><stop offset="1" stop-color="#f4bc19"/></linearGradient><linearGradient id="linear-gradient-6" x1="92.02986" y1="126.71027" x2="25.72952" y2="269.17408" gradientTransform="translate(7.4026)" gradientUnits="userSpaceOnUse"><stop offset="0" stop-color="#de7648"/><stop offset="1" stop-color="#b33a05"/></linearGradient><linearGradient id="linear-gradient-7" x1="429.00771" y1="552.02145" x2="433.41189" y2="552.02145" gradientTransform="matrix(-6.352, -10.7134, -10.7134, 6.352, 8829.97135, 1202.93332)" gradientUnits="userSpaceOnUse"><stop offset="0" stop-color="#fff"/><stop offset="1" stop-color="#dff0f0"/></linearGradient></defs><title>Asset 10</title><g class="cls-1"><g id="Layer_2" data-name="Layer 2"><g id="balls"><path class="cls-2" d="M245.5072,119.7669a116.91292,116.91292,0,0,0-8.0767-42.8121L172.4629,96.6547c16.4123,38.1275,28.3673,79.66548,20.6623,121.2546C224.7983,196.2502,245.5072,160.3688,245.5072,119.7669Z"/><path class="cls-3" d="M62.0636,223.8937a125.20871,125.20871,0,0,0,145.5901-17.6266c10.4015-37.33908-3.1311-82.9682-27.8061-108.9412Z"/><path class="cls-4" d="M177.2754,85.5954c30.1719,2.5963,51.983,11.1006,67.961,26.1765C241.8155,61.1333,206.1379,19.0938,158.063,5.0301Z"/><path class="cls-5" d="M24.7577,47.6305,173.9872,93.3943c17.507-30.2031,7.4124-62.0279-5.4418-84.7809A125.08386,125.08386,0,0,0,122.7536,0,123.60937,123.60937,0,0,0,24.7577,47.6305Z"/><path class="cls-6" d="M158.1098,69.25a123.43273,123.43273,0,0,0-28.9917-22.141A171.68975,171.68975,0,0,0,95.4967,32.7861c-20.8814-6.3415-39.3496-5.7844-54.8592-2.0414A117.65895,117.65895,0,0,0,20.7239,186.3779l137.5668-76.073C158.4591,96.6158,157.6626,82.9392,158.1098,69.25Z"/><path class="cls-7" d="M9.4442,165.91078A121.596,121.596,0,0,0,71.5918,228.6652c56.8803-18.9604,99.3063-65.9869,101.8014-139.2101C110.4773,72.9327,43.4957,110.0222,9.4442,165.91078Z"/><g class="cls-8"><path class="cls-9" d="M162.403,68.8431c1.6321-.5123,3.3613-.7894,4.9505-1.3829,2.2329-.834,4.0823-2.3238,6.1866-3.4085a9.27858,9.27858,0,0,1,5.0928-.0555c2.7086.9951,4.3345,3.6788,7.012,4.7342,3.557,1.4021,7.8358,1.2697,10.5542,4.3372,2.4037,2.7129,1.9686,6.7556,3.8055,9.7658,1.7415,2.8536,5.233,4.4836,6.1055,7.8876.8669,3.3806-1.2303,6.5944-1.573,9.892-.3268,3.1453,1.0655,6.2464.4876,9.3842-.3551,1.9279-1.9295,3.6794-3.1299,5.1441-2.73,3.3336-6.0567,7.3696-9.865,9.5249-4.1288,2.3392-8.7273.121-13.079-.0048-4.2931-.1252-9.1718,2.1945-13.2457.018-3.01-1.6081-3.4932-5.5128-5.5923-7.935-1.9554-2.2566-5.1947-3.216-6.6618-5.9278-1.3297-2.4576-.3837-5.3556-1.0357-7.9653-.8047-3.2206-3.4031-5.8055-3.5578-9.2197-.153-3.3807,2.1906-6.0786,3.4229-9.0412,1.4968-3.5982,1.7126-8.1388,4.0196-11.3522a13.9662,13.9662,0,0,1,3.9101-3.4704A11.07233,11.07233,0,0,1,162.403,68.8431Z"/></g><path class="cls-10" d="M162.9447,64.2389c1.6321-.5124,3.2517-1.2934,4.8409-1.8869a56.928,56.928,0,0,0,6.2962-2.9046,9.27952,9.27952,0,0,1,5.0928-.0555c2.7086.9951,5.0452,2.578,7.7227,3.6334,3.557,1.4021,7.1251,2.3705,9.8436,5.438,2.4036,2.713,3.3543,5.7059,5.1913,8.716,1.7415,2.8537,3.8471,5.5334,4.7196,8.9375.8669,3.3805-.0144,7.0247-.3571,10.3223-.3269,3.1455-.1504,5.816-.7282,8.9538-.3551,1.9279-3.5495,6.4899-4.7499,7.9547a23.93338,23.93338,0,0,1-8.2451,6.7143c-4.1287,2.3393-8.847,2.1717-13.1993,2.0448-4.2925-.1241-9.0514.1449-13.1254-2.0315-3.01-1.6082-4.9711-4.3534-7.0702-6.7758a38.89036,38.89036,0,0,1-5.1839-7.0871c-1.3296-2.4576-1.8723-5.5776-2.5244-8.1874-.8047-3.2206-1.9144-5.5834-2.0691-8.9976-.153-3.3807,1.2751-7.1632,2.5075-10.1257,1.4967-3.5983,2.628-7.0542,4.935-10.2676a13.96309,13.96309,0,0,1,3.9101-3.4704A11.0664,11.0664,0,0,1,162.9447,64.2389Z"/><path class="cls-11" d="M167.5279,71.4621c-9.4881,5.3131-12.3415,18.4652-6.2289,29.3811s18.817,15.3557,28.305,10.0426,12.3418-18.4649,6.2292-29.3808S177.016,66.149,167.5279,71.4621Zm1.1435,2.0422c8.4449-4.729,19.679-.5716,25.1196,9.1443s3.1144,21.4661-5.3305,26.1951-19.6788.5718-25.1194-9.144-3.1146-21.4665,5.3303-26.1954Z"/></g></g></g></svg>