<svg xmlns="http://www.w3.org/2000/svg" xmlns:xlink="http://www.w3.org/1999/xlink" viewBox="0 0 154.9006 153.5954"><defs><style>.cls-1{isolation:isolate;}.cls-2{fill:url(#radial-gradient);}.cls-3{opacity:0.95;mix-blend-mode:overlay;}.cls-4{fill:#d6a981;}.cls-5{fill:#fff;fill-opacity:0.07;}.cls-6{fill:#352b55;}.cls-7{fill:#1a132c;}.cls-8{fill:#8474b8;}.cls-9{fill-opacity:0.24;}</style><radialGradient id="radial-gradient" cx="366.72536" cy="247.46002" r="0.25181" gradientTransform="matrix(301.04069, 675.42448, -675.4245, 301.04069, 56795.18422, -322148.77973)" gradientUnits="userSpaceOnUse"><stop offset="0" stop-color="#9b89d3"/><stop offset="1" stop-color="#1a1037"/></radialGradient></defs><title>Asset 18</title><g class="cls-1"><g id="Layer_2" data-name="Layer 2"><g id="balls"><ellipse class="cls-2" cx="77.45035" cy="76.79775" rx="77.45025" ry="76.79765"/><g class="cls-3"><path class="cls-4" d="M136.1123,50.9267l.2268.2196.03.0239a2.96929,2.96929,0,0,0,.2512-.2578l-.3084-.0192Z"/><path class="cls-4" d="M27.915,39.0878a41.55136,41.55136,0,0,1,7.7654,13.3235c2.4546,6.3968,4.2691,12.913,7.1458,18.2308,3.87,7.1559,9.641,11.6671,17.8556,13.9346a26.00311,26.00311,0,0,0,20.0635-2.7879,23.661,23.661,0,0,0,6.3748-5.3179,36.93662,36.93662,0,0,0,5.3308-8.4113c2.6828-5.8288,4.4906-12.2398,6.34-18.0733,1.001-3.1555,1.6813-6.1152,3.0523-8.2347.3719-.5729.5934-1.1886,1.0918-1.2985.1441-.019-.0817.3485.0453.4058.4325.1957.5733.7686.9595,1.16a26.46206,26.46206,0,0,1,3.4204,5.2034c2.4522,4.1531,4.6291,8.9412,7.2394,13.1754a39.1922,39.1922,0,0,0,8.6695,9.9915,21.62532,21.62532,0,0,0,13.4118,4.7116c5.285.0907,11.2541-1.8522,17.6308-7.7764l.0019-.0019a75.86761,75.86761,0,0,0-10.2477-29.7132l-2.7903,6.9731-3.7092,5.2129c-.2998.296-.6421.7734-.9461,1.1171.4396.0525.8869.2339.7723.4678-.1885.3962-.5809.1862-1.0235-.21-.2071.1861-.379.2434-.4783.0334-.074-.1528.0335-.2435.2215-.2769-.3924-.3867-.7982-.8497-1.1256-1.1409a74.56874,74.56874,0,0,1-5.7824-5.5471c-6.3099-6.9219-12.406-14.2257-18.4925-16.7033-3.7068-1.5085-7.3023-2.363-11.0416-1.0788-8.6991,1.055-16.3724,18.5316-26.5538,30.8907a25.90134,25.90134,0,0,1-4.4682,3.8715c-1.4097,1.0932-2.6394,2.6065-4.8058,2.4872-1.2741-.0383-2.4737.2148-3.4284-.4106-4.0973-2.6685-7.226-7.3706-9.6301-12.7315-4.8868-10.908-8.8581-22.5081-17.8241-28.5851a26.3527,26.3527,0,0,0-6.3243-3.1377A77.31045,77.31045,0,0,0,10.7211,37.7999a16.62075,16.62075,0,0,1,4.8113-1.8388C21.1563,34.9777,25.1037,36.0517,27.915,39.0878Z"/><path class="cls-4" d="M1.2407,73.4353a3.8841,3.8841,0,0,0-.7814-.5061s3.1921.8307,4.2252,2.3535c6.1027,9.3469,8.3984,28.0647,15.7418,39.493a37.81065,37.81065,0,0,0,6.1638,7.4327,25.78229,25.78229,0,0,0,14.1274,6.7119c5.2993,1.0693,10.3284.3436,15.2358-.9596,4.7575-1.265,9.0381-3.7998,13.2519-6.7596,2.8222-2.0909,7.8833-9.6954,9.1364-6.6736,3.8954-.0859,7.3085,2.721,10.843,5.3179,4.6802,3.437,9.1904,6.6403,13.8834,8.3636,4.1675,1.5323,8.3555,2.425,12.9855,1.1743,5.0315-.7208,8.1382-3.5946,10.8469-6.8837,3.1755-3.8572,4.1784-10.0439,8.0938-13.2901a19.453,19.453,0,0,1,8.8782-3.9335,10.3713,10.3713,0,0,1,5.4053.2898,75.84148,75.84148,0,0,0,5.4292-23.3615,28.625,28.625,0,0,0-12.8189-.3864c-7.3153,1.5324-14.8649,5.5471-21.2159,13.7292a24.37552,24.37552,0,0,0-4.0013,7.2227c-.8555,2.7115-1.3835,5.6043-2.1129,8.3779-.4387,1.666-.0129,3.7665-1.8345,4.4109-3.4208.549-5.5142-2.4871-7.9588-5.1508-4.2152-4.5971-7.9898-10.0296-12.5673-13.8439-3.8161-3.184-8.281-4.6448-13.025-5.4754a20.80386,20.80386,0,0,0-11.9329,2.5253,26.73407,26.73407,0,0,0-6.7262,5.3609c-1.9339,2.1195-3.5555,4.5207-5.3213,6.4779-1.8379,2.0575-3.6094,4.0816-5.9433,5.3084a15.989,15.989,0,0,1-7.12,2.2819,9.0712,9.0712,0,0,1-5.2969-1.3224c-2.7172-2.0001-4.2567-5.4086-5.5304-9.0748-4.292-12.3496-4.6868-28.2843-9.0705-37.3305A26.10223,26.10223,0,0,0,4.4866,50.992,75.94559,75.94559,0,0,0,.075,73.5187l1.0607.6374C1.2541,73.9174,1.404,73.588,1.2407,73.4353Z"/><path class="cls-4" d="M78.417,114.7184l-.0754-.1909-.4325.0143C78.0996,114.537,78.471,114.8855,78.417,114.7184Z"/><path class="cls-4" d="M94.5513,137.6896c-5.9796-.7734-11.6117-.3772-17.6227.191-2.4432.2338-4.8344.5107-7.3115.6158-4.5116.1861-9.0328.0954-13.702.4821a93.76948,93.76948,0,0,0-18.6518,3.4825,77.40617,77.40617,0,0,0,31.8746,10.6933,24.06792,24.06792,0,0,1,4.188.279c.1431.022.2845.0475.426.073,1.2258.0572,2.4583.0891,3.6984.0891a77.68881,77.68881,0,0,0,33.1258-7.3638,36.97489,36.97489,0,0,0-9.9221-7.0717A21.94048,21.94048,0,0,0,94.5513,137.6896Z"/><path class="cls-4" d="M51.7305,20.4899c7.8742,3.5374,16.5476,4.1245,26.2836,2.2819,1.5649-.296,3.1593-.5776,4.8062-.8163a103.80849,103.80849,0,0,0,11.1104-2.1864,54.021,54.021,0,0,0,13.9383-5.0315,24.38234,24.38234,0,0,0,4.9585-3.6901c.5777-.5541,1.1241-1.1288,1.6474-1.7191A77.37,77.37,0,0,0,88.853.8305a26.51483,26.51483,0,0,1-2.5966,2.073c-3.0194,2.0097-5.7132,4.0911-8.8161,5.0268a19.34954,19.34954,0,0,1-5.7013.6922,18.90689,18.90689,0,0,1-7.5033-1.8236,11.792,11.792,0,0,1-5.2683-4.5924,77.34214,77.34214,0,0,0-20.0431,7.9543A33.88476,33.88476,0,0,0,51.7305,20.4899Z"/></g><path class="cls-5" d="M62.4815,8.0851C42.7823,13.155,22.4536,24.8156,14.6781,42.4303,2.9592,68.9726,29.5362,93.3381,59.6016,90.7296c18.5861-1.6112,35.9849-9.9582,46.3473-24.0961,12.5277-17.0921,20.2545-40.9453-5.9373-56.0736C91.8631,5.8506,79.3937,3.7373,62.4815,8.0851Z"/><path class="cls-6" d="M46.5771,26.8176c4.3591-2.6462,9.814-1.6268,12.184,2.2771s.7575,9.2138-3.6016,11.8601-9.814,1.6268-12.1839-2.2771S42.2181,29.4639,46.5771,26.8176Z"/><path class="cls-7" d="M48.6111,29.3552c4.359-2.6463,9.8139-1.6268,12.1839,2.2771s.7574,9.2138-3.6016,11.8601-9.814,1.6268-12.1839-2.2771S44.252,32.0015,48.6111,29.3552Z"/><path class="cls-8" d="M41.9003,34.2167a8.98441,8.98441,0,0,1,.4696-1.7424,9.53255,9.53255,0,0,1,1.2784-2.3188,10.13839,10.13839,0,0,1,1.8052-1.8753,10.68211,10.68211,0,0,1,1.4177-.9781,10.07181,10.07181,0,0,1,2.375-1.0361,9.4504,9.4504,0,0,1,3.8598-.3574,7.60686,7.60686,0,0,1,5.5017,3.2792,7.35842,7.35842,0,0,1,.8544,1.7341,7.69868,7.69868,0,0,1,.3882,1.9208,7.64,7.64,0,0,0-.2083-1.9713,7.56061,7.56061,0,0,0-.7275-1.8699,8.13273,8.13273,0,0,0-5.6666-3.9905,9.62159,9.62159,0,0,0-4.3117.1621,10.38653,10.38653,0,0,0-2.6522,1.1616,9.98027,9.98027,0,0,0-1.5108,1.1734,9.48744,9.48744,0,0,0-1.7473,2.2458,8.89773,8.89773,0,0,0-.9733,2.6301A8.40742,8.40742,0,0,0,41.9003,34.2167Z"/><path class="cls-6" d="M25.7488,46.9244c2.9175-4.1824,8.319-5.4547,12.0647-2.8418s4.417,8.1215,1.4994,12.3038-8.319,5.4548-12.0647,2.8419S22.8313,51.1068,25.7488,46.9244Z"/><path class="cls-7" d="M28.4675,48.8167c2.9175-4.1824,8.319-5.4548,12.0647-2.8419s4.417,8.1215,1.4994,12.3039-8.319,5.4547-12.0647,2.8418S25.55,52.9991,28.4675,48.8167Z"/><path class="cls-8" d="M23.949,52.122a9.6463,9.6463,0,0,1,.6847-2.6723,10.00514,10.00514,0,0,1,1.3591-2.3551,10.46594,10.46594,0,0,1,1.6569-1.7212,10.59207,10.59207,0,0,1,1.2959-.9085,10.26607,10.26607,0,0,1,2.4005-1.0407,8.13961,8.13961,0,0,1,3.9018-.1779,7.38286,7.38286,0,0,1,3.9702,2.2602,7.70848,7.70848,0,0,1,1.1454,1.6441,7.84589,7.84589,0,0,0-.9931-1.7667,7.57189,7.57189,0,0,0-1.449-1.456,7.73178,7.73178,0,0,0-3.9337-1.531,8.46548,8.46548,0,0,0-2.8568.2113,8.60662,8.60662,0,0,0-1.3648.4571,8.92872,8.92872,0,0,0-1.2671.6759,9.34036,9.34036,0,0,0-1.3605,1.0491,10.394,10.394,0,0,0-1.6322,1.965A10.53382,10.53382,0,0,0,24.33,49.3426,9.65326,9.65326,0,0,0,23.949,52.122Z"/><ellipse class="cls-7" cx="69.75458" cy="71.55755" rx="9.23337" ry="8.80185" transform="translate(-29.7513 80.76437) rotate(-51.01725)"/><path class="cls-9" d="M129.6839,117.4081c-12.4742,7.4181-26.244,13.0558-40.8883,14.4311-14.5212,1.3637-29.5155-1.0615-43.6724-5.9345-15.5378-5.3462-29.5935-14.6051-41.7033-26.4766a77.64735,77.64735,0,0,0,149.2973-4.4733C145.5106,104.3108,137.5116,112.243,129.6839,117.4081Z"/></g></g></g></svg>