<svg xmlns="http://www.w3.org/2000/svg" xmlns:xlink="http://www.w3.org/1999/xlink" viewBox="0 0 133.96979 132.556"><defs><style>.cls-1{mask:url(#mask);filter:url(#luminosity-noclip-2);}.cls-2{mix-blend-mode:multiply;fill:url(#linear-gradient);}.cls-3{isolation:isolate;}.cls-4{fill:url(#radial-gradient);}.cls-5{mix-blend-mode:overlay;}.cls-6{mask:url(#mask-2);}.cls-7{fill:url(#linear-gradient-2);}.cls-8{fill-opacity:0.13;}.cls-9{fill:#a73231;}.cls-10{fill:#75201f;}.cls-11{fill:#ebb5b4;}.cls-12{fill:#bd8675;}.cls-13{filter:url(#luminosity-noclip);}</style><filter id="luminosity-noclip" x="14.38131" y="-8355.1307" width="94.17604" height="32766" filterUnits="userSpaceOnUse" color-interpolation-filters="sRGB"><feFlood flood-color="#fff" result="bg"/><feBlend in="SourceGraphic" in2="bg"/></filter><mask id="mask" x="14.38131" y="-8355.1307" width="94.17604" height="32766" maskUnits="userSpaceOnUse"><g class="cls-13"/></mask><linearGradient id="linear-gradient" x1="-127.9791" y1="372.24382" x2="-123.78239" y2="372.24382" gradientTransform="matrix(-3.1659, 14.1907, 14.1907, 3.1659, -5624.40072, 672.84196)" gradientUnits="userSpaceOnUse"><stop offset="0" stop-color="#262626"/><stop offset="1"/></linearGradient><radialGradient id="radial-gradient" cx="-121.3201" cy="374.09775" r="0.24117" gradientTransform="matrix(205.83759, 304.10419, -304.1042, 205.83759, 138783.43039, -40074.38117)" gradientUnits="userSpaceOnUse"><stop offset="0" stop-color="#dc7a79"/><stop offset="1" stop-color="#8c0e0d"/></radialGradient><filter id="luminosity-noclip-2" x="14.38131" y="5.56499" width="94.17604" height="79.94437" filterUnits="userSpaceOnUse" color-interpolation-filters="sRGB"><feFlood flood-color="#fff" result="bg"/><feBlend in="SourceGraphic" in2="bg"/></filter><mask id="mask-2" x="14.38131" y="5.56499" width="94.17604" height="79.94437" maskUnits="userSpaceOnUse"><g class="cls-1"><path class="cls-2" d="M72.0333,5.58213c-18.6634-.36254-39.8336,4.969-51.2378,21.29137-10.7291,15.3549-7.6327,36.5836,6.5572,48.814,7.4798,6.4466,17.7093,9.4688,27.3763,9.7888,18.8974.631,38.4294-7.7726,47.7184-25.2014,10.54-19.7926,8.2313-40.89691-13.1279-50.614A52.16318,52.16318,0,0,0,72.0333,5.58213Z"/></g></mask><linearGradient id="linear-gradient-2" x1="-127.9791" y1="372.24382" x2="-123.78239" y2="372.24382" gradientTransform="matrix(-3.1659, 14.1907, 14.1907, 3.1659, -5624.40072, 672.84196)" gradientUnits="userSpaceOnUse"><stop offset="0" stop-color="#fff"/><stop offset="1" stop-color="#fff"/></linearGradient></defs><title>Asset 7</title><g class="cls-3"><g id="Layer_2" data-name="Layer 2"><g id="balls"><g id="Layer3"><ellipse class="cls-4" cx="66.98485" cy="66.278" rx="66.98494" ry="66.278"/><g class="cls-5"><g class="cls-6"><path class="cls-7" d="M72.0333,5.58213c-18.6634-.36254-39.8336,4.969-51.2378,21.29137-10.7291,15.3549-7.6327,36.5836,6.5572,48.814,7.4798,6.4466,17.7093,9.4688,27.3763,9.7888,18.8974.631,38.4294-7.7726,47.7184-25.2014,10.54-19.7926,8.2313-40.89691-13.1279-50.614A52.16318,52.16318,0,0,0,72.0333,5.58213Z"/></g></g><path class="cls-8" d="M133.73,60.6832c-5.2463,13.4915-11.7307,24.4733-19.954,32.6846a61.786,61.786,0,0,1-14.0089,10.7856,56.46773,56.46773,0,0,1-25.6312,7.2055c-11.4028.2881-23.3132-2.9672-35.0131-9.0024C25.4376,95.2931,12.6093,83.7883.0644,69.0952a65.563,65.563,0,0,0,14.8039,38.8162,155.95184,155.95184,0,0,0,18.3885,7.9603c14.3289,5.1115,28.0177,7.4616,41.19,6.9952a99.8013,99.8013,0,0,0,16.8664-1.9248,85.86756,85.86756,0,0,0,24.063-9.0939c.175-.0965.3487-.1977.5233-.2956A65.66715,65.66715,0,0,0,133.96979,66.278C133.96979,64.3933,133.8859,62.5281,133.73,60.6832Z"/><path class="cls-9" d="M90.2099,44.341A102.31813,102.31813,0,0,0,79.7216,32.8628a90.82294,90.82294,0,0,0-18.9011-13.778,57.33562,57.33562,0,0,0-19.6006-6.49467,39.32521,39.32521,0,0,0-14.6614.84108,67.13742,67.13742,0,0,0-8.28,7.35072l4.0678-1.31763a32.94332,32.94332,0,0,1,18.0278-1.37484A51.82586,51.82586,0,0,1,57.5332,24.9019,88.08615,88.08615,0,0,1,74.4591,38.3068,119.14216,119.14216,0,0,1,84.0651,49.16a105.57268,105.57268,0,0,1,17.3694,31.5749c5.2844,16.0971,5.2985,32.3542-3.9522,44.569a67.13513,67.13513,0,0,0,9.6573-5.9731c5.4611-11.9484,5.289-26.3275,1.0479-40.699A104.85583,104.85583,0,0,0,90.2099,44.341Z"/><path class="cls-10" d="M96.4325,58.67a110.63558,110.63558,0,0,0-8.5314-12.5184c-8.1018-10.3032-17.9364-19.073-28.3059-24.89277a55.33785,55.33785,0,0,0-18.6861-6.63734,36.28677,36.28677,0,0,0-17.8634,1.63057q-.757.65159-1.4922,1.327l.1939.45917A34.612,34.612,0,0,1,40.685,16.05851,53.85718,53.85718,0,0,1,58.7631,22.7278c10.1409,5.781,19.6874,14.4899,27.6108,24.6217a115.10092,115.10092,0,0,1,8.399,12.2943,98.89278,98.89278,0,0,1,9.1899,20.3002c4.8986,15.4942,4.9146,31.0854-2.7254,43.2983q1.21875-.71895,2.4033-1.4872c6.7065-12.1475,6.6417-27.2701,2.0184-42.337A99.01405,99.01405,0,0,0,96.4325,58.67Z"/><path class="cls-11" d="M78.5664,58.2886c.2486.2881.4811.6143.8168.9949.1808.2108.3611.4072.5708.617.1675.1591.3305.3171.5164.4626a4.52106,4.52106,0,0,0,.5686.3827,11.23756,11.23756,0,0,0,1.2614.5876c.782.3219,1.459.5316,2.008.7227l.5581-.8553c-.3905-.4207-.8389-.9681-1.4263-1.5614a10.23807,10.23807,0,0,0-1.0206-.9502,4.95862,4.95862,0,0,0-.573-.384c-.2093-.1144-.4195-.2099-.6309-.3011-.2803-.1162-.5351-.2059-.7999-.2938-.4973-.1566-.894-.2501-1.2718-.3427Z"/><path class="cls-11" d="M81.55,63.2085c.2442.2868.4697.6205.8001,1.0186.1739.2182.3503.4278.5618.6476.1605.1667.3254.3347.5073.4934a4.746,4.746,0,0,0,.5626.4191,11.43754,11.43754,0,0,0,1.2713.6668,22.16931,22.16931,0,0,0,2.058.8279l.5581-.8552c-.4591-.4791-.9996-1.1825-1.7024-1.9338a7.7536,7.7536,0,0,0-.7319-.7171,4.11277,4.11277,0,0,0-.549-.4008,9.394,9.394,0,0,0-1.3092-.6351,11.62909,11.62909,0,0,0-1.4536-.4537Z"/><path class="cls-11" d="M84.8622,68.734c.2256.3063.4434.6586.7669,1.0806.1699.2215.3458.4403.5515.6706a6.4384,6.4384,0,0,0,.4931.516,5.52632,5.52632,0,0,0,.5572.4378,11.92442,11.92442,0,0,0,1.2491.7019c.7817.4011,1.4688.6781,1.9999.915l.6222-.8097c-.3671-.4485-.7902-1.0455-1.3594-1.7081a11.67768,11.67768,0,0,0-.9839-1.0509,4.32634,4.32634,0,0,0-.5631-.4351,6.50175,6.50175,0,0,0-.6213-.3595c-.2774-.1451-.5314-.2616-.7973-.3728-.4991-.2053-.9003-.3339-1.2725-.4613Z"/><path class="cls-11" d="M87.3636,73.9958a10.33967,10.33967,0,0,0,.7556,1.2087,7.755,7.755,0,0,0,.8937,1.0174,4.11079,4.11079,0,0,0,.4947.3894,8.2118,8.2118,0,0,0,.8295.4567c.8216.4117,1.5684.688,2.139,1.0083l.7037-.7402a15.3259,15.3259,0,0,0-1.2251-1.6981,9.33273,9.33273,0,0,0-.9124-.9807,3.98687,3.98687,0,0,0-.5211-.3977,6.37856,6.37856,0,0,0-.5768-.3183c-.2508-.1221-.4833-.2195-.724-.3211-.4365-.1805-.7877-.2766-1.1262-.4278Z"/><path class="cls-11" d="M89.6329,79.0623a10.3377,10.3377,0,0,0,.5745,1.3046,7.75512,7.75512,0,0,0,.7387,1.1349,4.09873,4.09873,0,0,0,.4337.4563,8.24107,8.24107,0,0,0,.7555.5709c.7542.5252,1.4536.9057,1.9725,1.3045l.8024-.6317a15.32723,15.32723,0,0,0-.969-1.8562,9.343,9.343,0,0,0-.7624-1.1013,3.98653,3.98653,0,0,0-.4588-.4683,6.3503,6.3503,0,0,0-.5252-.3977c-.2307-.1567-.4469-.2865-.6705-.4216-.4061-.2411-.7399-.3866-1.0532-.5848Z"/><path class="cls-11" d="M91.2906,84.2119a10.31779,10.31779,0,0,0,.5024,1.334,7.75113,7.75113,0,0,0,.6755,1.1737,4.10714,4.10714,0,0,0,.4081.4793,8.23573,8.23573,0,0,0,.7232.6113c.7243.5656,1.4019.9838,1.8982,1.4104l.8358-.5869a15.34712,15.34712,0,0,0-.8662-1.9065,9.33978,9.33978,0,0,0-.701-1.1413,3.987,3.987,0,0,0-.4325-.4927,6.3694,6.3694,0,0,0-.5027-.4257c-.2218-.1692-.4305-.3106-.6464-.4576-.3924-.263-.7177-.4265-1.0197-.6416Z"/><path class="cls-11" d="M92.7005,89.8618a10.323,10.323,0,0,0,.4014,1.3678,7.75291,7.75291,0,0,0,.5861,1.2208,4.097,4.097,0,0,0,.3712.5083,8.20343,8.20343,0,0,0,.6756.6636c.68.6181,1.3245,1.0857,1.7876,1.5481l.8773-.5229a15.34516,15.34516,0,0,0-.7215-1.9657,9.34533,9.34533,0,0,0-.614-1.1905,3.98664,3.98664,0,0,0-.3945-.5236,6.40305,6.40305,0,0,0-.4695-.462c-.2085-.1853-.4062-.3419-.6105-.5046-.3717-.2915-.6839-.4788-.969-.7158Z"/><path class="cls-11" d="M93.8515,95.5511a10.33093,10.33093,0,0,0,.2416,1.4049,7.75745,7.75745,0,0,0,.442,1.28,4.10212,4.10212,0,0,0,.3104.5476,8.21105,8.21105,0,0,0,.5948.7368c.6046.6922,1.1911,1.2307,1.598,1.7432l.9315-.4186a15.33494,15.33494,0,0,0-.4909-2.0356,9.33858,9.33858,0,0,0-.4731-1.2531,3.98845,3.98845,0,0,0-.3318-.5655,6.35914,6.35914,0,0,0-.4133-.5129c-.1859-.208-.3642-.3862-.5485-.5714-.3357-.3323-.6243-.5542-.8803-.8224Z"/><path class="cls-11" d="M94.3097,101.0075a10.32618,10.32618,0,0,0,.1501,1.4176,7.75469,7.75469,0,0,0,.3581,1.306,4.10478,4.10478,0,0,0,.2742.5666,8.22176,8.22176,0,0,0,.5459.7738c.5584.7299,1.1088,1.3053,1.4816,1.8431l.9567-.3574a15.32914,15.32914,0,0,0-.358-2.0632,9.32631,9.32631,0,0,0-.3909-1.2811,3.98374,3.98374,0,0,0-.2944-.5857,6.37957,6.37957,0,0,0-.3792-.5387c-.172-.2195-.3384-.409-.5103-.6057-.3135-.3534-.5871-.5935-.8252-.8777Z"/><path class="cls-11" d="M94.5837,106.499c-.0268.3846-.07.7681-.0738,1.266-.0066.2728.0003.5325.0215.8262a5.376,5.376,0,0,0,.084.669,4.39658,4.39658,0,0,0,.1832.6488,9.77741,9.77741,0,0,0,.5935,1.2251c.3915.7084.7809,1.2756,1.1145,1.7641l.9609-.3467c-.0537-.5704-.0514-1.2362-.1216-2.0186a11.2995,11.2995,0,0,0-.1668-1.3175,4.58505,4.58505,0,0,0-.182-.6284,4.70792,4.70792,0,0,0-.2749-.6066c-.1277-.2589-.2616-.4826-.3977-.7102-.2557-.4173-.4845-.7234-.6895-1.0433Z"/><path class="cls-11" d="M93.7128,112.4122c-.0295.3704-.1033.7188-.1462,1.176-.0219.2553-.0467.4964-.051.7731a5.532,5.532,0,0,0,.015.6403,3.86439,3.86439,0,0,0,.1062.6246,9.78468,9.78468,0,0,0,.4404,1.2236,19.79239,19.79239,0,0,0,.8789,1.8206l.9979-.2367c.0105-.6602.121-1.4306.1461-2.3312a7.34926,7.34926,0,0,0-.0215-.9266,3.42776,3.42776,0,0,0-.1136-.6098,7.12206,7.12206,0,0,0-.4857-1.2292,11.41744,11.41744,0,0,0-.7154-1.1973Z"/><path class="cls-11" d="M92.4468,117.6101c-.0532.3297-.1268.5916-.1793.9629a6.02982,6.02982,0,0,0-.0579.6219,3.69805,3.69805,0,0,0,.0046.5113,2.43348,2.43348,0,0,0,.1051.4909,5.9015,5.9015,0,0,0,.4218.9438c.2763.5371.5523.9436.8269,1.3882l.9948-.2361c.0481-.509.138-.9859.1744-1.5721a6.15714,6.15714,0,0,0,.0063-1.0361,2.51,2.51,0,0,0-.1091-.498,3.17072,3.17072,0,0,0-.2059-.4795,4.84865,4.84865,0,0,0-.3247-.5559c-.2129-.3213-.3924-.5357-.6062-.8098Z"/><path class="cls-11" d="M91.6051,121.3479c-.094.3253-.1742.546-.2537.8735a4.33465,4.33465,0,0,0-.0952.5717,3.01771,3.01771,0,0,0-.0215.4613,2.01581,2.01581,0,0,0,.0768.4423,4.9982,4.9982,0,0,0,.3684.8469c.2286.4519.4676.7916.7127,1.2402l1.0113-.1501c.1115-.5078.2204-.9161.2887-1.4305a4.63571,4.63571,0,0,0,.0597-.935,2.088,2.088,0,0,0-.0802-.4496,3.47209,3.47209,0,0,0-.1751-.4232,5.4291,5.4291,0,0,0-.2909-.4988c-.179-.2783-.3336-.4564-.5273-.728Z"/><path class="cls-11" d="M90.4763,123.8155c-.1114.3198-.2035.5358-.3006.8585a4.30937,4.30937,0,0,0-.126.5657,3.023,3.023,0,0,0-.0465.4595,2.01672,2.01672,0,0,0,.0527.4458,5.01142,5.01142,0,0,0,.322.8656c.2039.4636.4241.8158.6445,1.277l1.0179-.0951c.1389-.501.2697-.9028.3658-1.4128a4.63616,4.63616,0,0,0,.1103-.9303,2.08641,2.08641,0,0,0-.0558-.4533,3.46157,3.46157,0,0,0-.1519-.4321,5.42271,5.42271,0,0,0-.2634-.5138c-.1637-.2877-.3085-.4739-.4872-.7555Z"/><path class="cls-11" d="M89.1916,126.1834c-.1566.2725-.2271.3576-.3373.5721a2.65679,2.65679,0,0,0-.1587.365,1.48849,1.48849,0,0,0-.0678.2979.84125.84125,0,0,0,.0223.2834,2.29594,2.29594,0,0,0,.268.5687c.1547.2651.2955.431.5835.8433l1.0195-.0914c.2097-.4553.3244-.6367.4313-.9242a2.25963,2.25963,0,0,0,.1681-.6131.94178.94178,0,0,0-.0299-.3022,1.2403,1.2403,0,0,0-.1307-.2923,2.20127,2.20127,0,0,0-.2322-.3386c-.1537-.187-.2388-.2575-.4543-.4894Z"/><path class="cls-11" d="M75.4136,53.8769c.2501.3001.4592.5631.7485.8757.1762.1854.3419.3435.541.5171a4.711,4.711,0,0,0,.4824.3691,3.64056,3.64056,0,0,0,.529.2831,7.65885,7.65885,0,0,0,1.1589.3536c.653.1641,1.2268.2456,1.8184.3615l.4657-.9075c-.4398-.4131-.8391-.8325-1.3485-1.2676a8.45567,8.45567,0,0,0-.946-.737,3.10606,3.10606,0,0,0-.5186-.2702,3.69516,3.69516,0,0,0-.5638-.1886c-.2468-.0687-.4702-.1205-.7109-.1633-.4117-.078-.7389-.1051-1.1172-.1677Z"/><path class="cls-11" d="M72.3528,50.1004c.2821.2458.5137.4908.8471.7742.1898.1625.3719.3105.5858.4617a4.66934,4.66934,0,0,0,.5124.3299,3.57913,3.57913,0,0,0,.5441.2458,9.3097,9.3097,0,0,0,1.1872.2952c.6885.1415,1.2847.1997,1.8533.301l.4416-.9189c-.4375-.3863-.8806-.8054-1.4461-1.242a8.352,8.352,0,0,0-1.0249-.701,3.0304,3.0304,0,0,0-.5673-.2437,4.05318,4.05318,0,0,0-.5998-.1552,7.21274,7.21274,0,0,0-.7564-.1072c-.4462-.0425-.7955-.0425-1.1763-.0504Z"/><path class="cls-11" d="M67.8447,46.0442c.2815.2541.5545.5346.9313.8627.2049.1781.4065.3464.6444.52a5.37452,5.37452,0,0,0,.5635.3788,4.58631,4.58631,0,0,0,.6078.2975,11.83424,11.83424,0,0,0,1.3155.3878c.7976.2006,1.4897.3025,2.0557.4136l.432-.9254c-.4459-.3614-.954-.8337-1.6063-1.3318a11.33743,11.33743,0,0,0-1.1236-.7801,4.11126,4.11126,0,0,0-.613-.2936,5.83845,5.83845,0,0,0-.6594-.1987c-.2893-.075-.5497-.1272-.8204-.1717-.5053-.0836-.9028-.1144-1.2855-.1523Z"/><path class="cls-11" d="M63.5359,41.7036c.2808.2586.5506.5294.9249.8433.2055.1735.4085.3328.6432.4968a5.24526,5.24526,0,0,0,.5616.3599,4.30484,4.30484,0,0,0,.5983.2684,10.28652,10.28652,0,0,0,1.2911.3333c.7745.1695,1.4383.2442,2.0003.35l.4321-.9253c-.4452-.3659-.9522-.8149-1.5987-1.2891a10.91449,10.91449,0,0,0-1.1161-.7374,4.56965,4.56965,0,0,0-.608-.2651,5.44345,5.44345,0,0,0-.6445-.1735c-.2816-.0646-.5343-.1064-.8018-.1412-.4853-.0622-.8661-.0812-1.2449-.1139Z"/><path class="cls-11" d="M58.8068,38.0986c.3118.2203.614.4542,1.0256.7175.2261.1456.4478.2776.7016.41a5.24087,5.24087,0,0,0,.6032.2849,4.30108,4.30108,0,0,0,.6278.1893,10.3015,10.3015,0,0,0,1.3232.1648c.7899.0686,1.4577.0574,2.0287.0902l.3096-.9731c-.4885-.3058-1.0489-.686-1.7509-1.0732a10.91292,10.91292,0,0,0-1.2016-.5879,4.57933,4.57933,0,0,0-.6369-.1849,5.48377,5.48377,0,0,0-.6615-.0893c-.2876-.0279-.5436-.0369-.8133-.037-.4893.0006-.8694.0306-1.2492.0468Z"/><path class="cls-11" d="M53.9323,34.6099c.3223.2046.6358.4231,1.0599.6655.2331.1343.4612.255.7213.3747a5.23731,5.23731,0,0,0,.6166.2544,4.29711,4.29711,0,0,0,.6364.1578,10.28462,10.28462,0,0,0,1.3298.0987c.7923.0292,1.4587-.0152,2.0307-.0109l.2608-.9873c-.5032-.2811-1.0818-.6329-1.8022-.9846a10.90462,10.90462,0,0,0-1.2294-.5274,4.57948,4.57948,0,0,0-.6454-.153,5.47772,5.47772,0,0,0-.6651-.0562c-.2886-.0135-.5447-.0098-.8141.0035-.4887.025-.8668.0739-1.2453.109Z"/><path class="cls-11" d="M48.8969,31.4185c.3389.1756.6703.366,1.114.5705.2439.1133.4817.2137.7512.3102a5.246,5.246,0,0,0,.6365.1997,4.32062,4.32062,0,0,0,.6477.1016,10.28775,10.28775,0,0,0,1.3334-.0178c.7918-.04,1.4518-.1424,2.022-.1881l.1736-1.0063c-.5258-.2361-1.1329-.536-1.8813-.8235a10.9086,10.9086,0,0,0-1.2707-.4181,4.56588,4.56588,0,0,0-.6563-.096,5.46343,5.46343,0,0,0-.6675.002c-.2887.0117-.5434.0378-.8107.0746-.4846.0675-.857.1492-1.231.2173Z"/><path class="cls-11" d="M43.4718,29.0488c.3596.1283.7136.2722,1.1809.4149.2569.0794.506.1467.7861.206a5.2427,5.2427,0,0,0,.6576.112,4.30946,4.30946,0,0,0,.6556.0132,10.28445,10.28445,0,0,0,1.3187-.1975c.7792-.1466,1.4193-.3371,1.9781-.4593l.0362-1.0206c-.5528-.1629-1.1948-.3782-1.9752-.562a10.89017,10.89017,0,0,0-1.3155-.2428,4.57918,4.57918,0,0,0-.6632-.0066,5.48245,5.48245,0,0,0-.6611.0921c-.2845.0506-.5334.1108-.7933.1833-.471.1324-.829.2636-1.1904.3815Z"/><path class="cls-11" d="M38.6553,27.3443c.3741.0761.745.1683,1.2277.2433.2657.0422.5218.0735.8074.0925a5.24711,5.24711,0,0,0,.6669.0175,4.2932,4.2932,0,0,0,.6508-.0798,10.29354,10.29354,0,0,0,1.2774-.3825c.7506-.2556,1.3572-.535,1.893-.7352l-.1089-1.0154c-.5703-.0829-1.2364-.2049-2.035-.2763a10.88459,10.88459,0,0,0-1.3366-.0537,4.57393,4.57393,0,0,0-.6574.0875,5.47562,5.47562,0,0,0-.6414.1849c-.2744.0904-.5123.1853-.7592.294-.4476.1978-.7833.3784-1.1244.5463Z"/><path class="cls-11" d="M34.0181,25.9186c.3802.0339.7591.0843,1.2472.1051.2686.0124.5267.015.8127.002a5.23078,5.23078,0,0,0,.6646-.0567,4.31282,4.31282,0,0,0,.6379-.1518,10.28142,10.28142,0,0,0,1.2269-.5223c.7174-.3375,1.2892-.6827,1.7994-.9413l-.2212-.9969c-.576-.0189-1.2516-.0661-2.0531-.0481a10.9085,10.9085,0,0,0-1.3343.0953,4.5727,4.5727,0,0,0-.6436.1602,5.445,5.445,0,0,0-.6168.2551c-.2627.1204-.4885.2412-.7218.3766-.4228.2464-.7363.4633-1.0566.6682Z"/><path class="cls-11" d="M29.5747,24.8037c.3612.0467.6322.095.9939.1253a5.76477,5.76477,0,0,0,.6455.0118,3.67839,3.67839,0,0,0,.5171-.049,2.35522,2.35522,0,0,0,.4863-.1426,6.001,6.001,0,0,0,.9096-.4935c.4794-.2939.8521-.5869,1.322-.8965l-.2621-.9871c-.5696-.0368-1.0563-.087-1.6239-.0768a6.01637,6.01637,0,0,0-1.0484.0745,2.69677,2.69677,0,0,0-.4879.149,3.33186,3.33186,0,0,0-.4611.2452,5.99936,5.99936,0,0,0-.5313.358c-.2849.2176-.4838.4093-.7615.6386Z"/><path class="cls-11" d="M25.836,24.5648c.3641-.0083.6393-.0014,1.0015-.0261a5.74038,5.74038,0,0,0,.6398-.0858,3.66079,3.66079,0,0,0,.5038-.1263,2.35328,2.35328,0,0,0,.4593-.2145,5.9997,5.9997,0,0,0,.8247-.6249c.4295-.363.7538-.7088,1.1716-1.0858l-.408-.93619c-.5687.04955-1.0573.07335-1.6169.169a6.02156,6.02156,0,0,0-1.0252.23175,2.71176,2.71176,0,0,0-.4598.2209,3.331,3.331,0,0,0-.4188.312,5.97951,5.97951,0,0,0-.4712.4341c-.2489.2581-.4165.4775-.6565.7461Z"/><path class="cls-11" d="M21.9978,24.6062c.3619-.0412.6366-.0592.995-.1166a5.73729,5.73729,0,0,0,.6295-.1432,3.6789,3.6789,0,0,0,.4903-.1714,2.35635,2.35635,0,0,0,.438-.2551,6.00663,6.00663,0,0,0,.7648-.697c.395-.4003.6867-.7741,1.0686-1.1873l-.491-.89545c-.5618.10078-1.0463.16866-1.595.31457a6.01881,6.01881,0,0,0-1,.32358,2.70658,2.70658,0,0,0-.4379.2616,3.31611,3.31611,0,0,0-.3889.3485,6.01968,6.01968,0,0,0-.4301.4749c-.2244.2796-.3716.5133-.5862.8025Z"/><path class="cls-11" d="M18.2822,25.6459c.3491-.1037.6165-.1693.9594-.2883a5.72093,5.72093,0,0,0,.5949-.2508,3.6622,3.6622,0,0,0,.4529-.2542,2.34614,2.34614,0,0,0,.3868-.3276,5.98879,5.98879,0,0,0,.6316-.8196c.3191-.463.5412-.8819.8453-1.3553l-.6395-.79625c-.5357.19718-1.001.34845-1.5158.58785a6.0089,6.0089,0,0,0-.9283.4929,2.69923,2.69923,0,0,0-.3856.3339,3.32923,3.32923,0,0,0-.3222.411,6.01051,6.01051,0,0,0-.3407.5426c-.1722.3144-.2764.5702-.4374.8924Z"/><path class="cls-11" d="M14.3883,26.4149c.3476-.1085.614-.1778.9553-.3015a5.74324,5.74324,0,0,0,.5914-.259,3.66934,3.66934,0,0,0,.4493-.2605,2.35253,2.35253,0,0,0,.3823-.3328,6.00773,6.00773,0,0,0,.6202-.8283c.3127-.4674.5289-.8894.8265-1.3669l-.6505-.7873c-.533.2045-.9961.3623-1.5075.6087a6.01927,6.01927,0,0,0-.9215.5057,2.71426,2.71426,0,0,0-.3809.3392,3.32933,3.32933,0,0,0-.3165.4154,5.997,5.997,0,0,0-.3331.5473c-.1679.3167-.2685.574-.425.8984Z"/><path class="cls-11" d="M100.0981,41.5821c.2523.2963.4997.6257.8465,1.0189.1881.2133.3744.4161.597.6298a6.7196,6.7196,0,0,0,.529.4766,5.60146,5.60146,0,0,0,.5875.3954,11.77084,11.77084,0,0,0,1.3019.6116c.8022.3359,1.5049.5585,2.0649.7635l.5595-.8592c-.4107-.4269-.8753-.988-1.4822-1.601a12.16922,12.16922,0,0,0-1.0617-.9741,4.19061,4.19061,0,0,0-.5934-.3922,6.30678,6.30678,0,0,0-.646-.3142c-.2882-.1247-.5501-.2219-.8238-.3126-.5124-.1664-.9222-.2629-1.3068-.3619Z"/><path class="cls-11" d="M103.1746,46.6685c.255.2872.4925.6333.8353,1.0401.1855.2223.3691.4343.5876.6615a5.60325,5.60325,0,0,0,.5241.5097,4.89676,4.89676,0,0,0,.5813.433,12.5955,12.5955,0,0,0,1.3122.6935c.8206.3905,1.5429.6632,2.112.8709l.5582-.8546c-.4802-.4918-1.0432-1.2199-1.7674-1.9858a8.85109,8.85109,0,0,0-.7622-.7378,4.79121,4.79121,0,0,0-.5672-.414,9.77853,9.77853,0,0,0-1.3469-.6595,12.24044,12.24044,0,0,0-1.4933-.481Z"/><path class="cls-11" d="M106.5986,52.3728c.2331.3166.466.6734.8019,1.105.1756.2288.3573.4549.5699.6928.1642.179.3285.358.5128.5244a5.21986,5.21986,0,0,0,.574.4568,13.77911,13.77911,0,0,0,1.2873.734c.8076.4144,1.5097.7077,2.0567.9569l.6241-.8135c-.3811-.4589-.8243-1.0731-1.4158-1.7488a12.96511,12.96511,0,0,0-1.0182-1.0814,5.46518,5.46518,0,0,0-.5818-.4496c-.2137-.1422-.427-.2591-.6403-.3759-.2866-.1498-.5491-.2702-.8238-.3852-.514-.2164-.9268-.3537-1.3053-.4881Z"/><path class="cls-11" d="M109.1858,57.8107a9.86741,9.86741,0,0,0,.7913,1.2385,7.4441,7.4441,0,0,0,.9277,1.0427,3.63408,3.63408,0,0,0,.511.4023,8.51857,8.51857,0,0,0,.855.4761c.8426.4275,1.6099.7214,2.1952,1.0608l.7058-.7438a15.684,15.684,0,0,0-1.2744-1.7377,10.39025,10.39025,0,0,0-.949-1.0112,4.56842,4.56842,0,0,0-.5406-.4067,5.453,5.453,0,0,0-.5896-.3309c-.2612-.1325-.5015-.2332-.7501-.3382-.4447-.1885-.8074-.2984-1.153-.4525Z"/><path class="cls-11" d="M112.0363,63.2333a9.87249,9.87249,0,0,0,.6057,1.339,7.43723,7.43723,0,0,0,.7686,1.165,3.63978,3.63978,0,0,0,.4481.4713,8.50006,8.50006,0,0,0,.7779.5938c.7726.5438,1.4899.9447,2.0205,1.3644l.8051-.6349a15.67629,15.67629,0,0,0-1.0122-1.9025,10.39944,10.39944,0,0,0-.7942-1.1367,4.5774,4.5774,0,0,0-.4767-.48,5.47474,5.47474,0,0,0-.5361-.412c-.2395-.1686-.4629-.3027-.6939-.4422-.4131-.2503-.7563-.411-1.0762-.6131Z"/><path class="cls-11" d="M114.0447,68.4665a9.86584,9.86584,0,0,0,.5315,1.3701,7.43282,7.43282,0,0,0,.7038,1.2052,3.63427,3.63427,0,0,0,.4217.4952,8.5179,8.5179,0,0,0,.7443.6354c.7417.5852,1.4359,1.0247,1.9429,1.4728l.8385-.59a15.65945,15.65945,0,0,0-.9066-1.9549,10.41051,10.41051,0,0,0-.7309-1.1785,4.57791,4.57791,0,0,0-.4498-.5053,5.47946,5.47946,0,0,0-.5127-.4407c-.23-.1814-.4457-.3275-.6687-.4795-.3988-.2725-.7328-.4517-1.0411-.671Z"/><path class="cls-11" d="M115.9968,74.4554a9.86286,9.86286,0,0,0,.4279,1.406,7.43837,7.43837,0,0,0,.6119,1.2544,3.62872,3.62872,0,0,0,.3835.5252,8.51964,8.51964,0,0,0,.6948.6892c.696.6389,1.3556,1.129,1.8277,1.6137l.8802-.5258a15.67323,15.67323,0,0,0-.7583-2.0171,10.395,10.395,0,0,0-.641-1.2298,4.584,4.584,0,0,0-.4107-.5374,5.47241,5.47241,0,0,0-.4785-.4777c-.2158-.1981-.42-.3599-.6311-.5281-.3773-.3015-.697-.5051-.9881-.7468Z"/><path class="cls-11" d="M117.7756,80.5046a9.87027,9.87027,0,0,0,.2635,1.4458,7.44178,7.44178,0,0,0,.4638,1.3164,3.63431,3.63431,0,0,0,.3206.5658,8.50358,8.50358,0,0,0,.6111.7644c.618.7147,1.2168,1.2773,1.6301,1.813l.9348-.4212a15.65961,15.65961,0,0,0-.5215-2.0908,10.39317,10.39317,0,0,0-.4955-1.2952,4.56081,4.56081,0,0,0-.3463-.5811,5.45657,5.45657,0,0,0-.4204-.5295c-.1916-.2216-.3758-.4058-.5662-.5971-.3402-.3428-.6343-.5819-.8958-.8554Z"/><path class="cls-11" d="M118.5986,86.3475a9.87025,9.87025,0,0,0,.1692,1.4599,7.43751,7.43751,0,0,0,.3776,1.3436,3.62415,3.62415,0,0,0,.2833.5854,8.48135,8.48135,0,0,0,.5602.8024c.5704.7532,1.1315,1.3534,1.5092,1.9148l.9602-.3597a15.68807,15.68807,0,0,0-.385-2.1203,10.38764,10.38764,0,0,0-.4105-1.3246,4.56306,4.56306,0,0,0-.3079-.6022,5.47078,5.47078,0,0,0-.3852-.5557c-.1769-.2335-.3488-.4293-.5264-.6325-.3172-.3642-.5953-.6218-.8384-.9116Z"/><path class="cls-11" d="M119.2427,91.9321a10.16254,10.16254,0,0,0-.1149,1.0795,4.87345,4.87345,0,0,0,.007.7043,3.98706,3.98706,0,0,0,.0689.5652,3.64427,3.64427,0,0,0,.1708.534,7.04091,7.04091,0,0,0,.5715.9846c.3365.5095.6733.9152,1.0332,1.3895l.9618-.3459c-.028-.5888-.0158-1.108-.0702-1.7143a7.38045,7.38045,0,0,0-.14-1.0965,2.866,2.866,0,0,0-.1712-.5064,3.48514,3.48514,0,0,0-.2544-.4803c-.1177-.2048-.2395-.3692-.3712-.5604-.2211-.3088-.4221-.5256-.6426-.8239Z"/><path class="cls-11" d="M119.4106,98.4032c-.0504.367-.1181.6567-.1632,1.0423-.0245.2321-.0461.4408-.0513.6781a4.43791,4.43791,0,0,0,.0158.5578,3.19136,3.19136,0,0,0,.1077.5376,6.92017,6.92017,0,0,0,.4314,1.0434c.2765.5658.5574,1.0255.856,1.5349l.9936-.2339c.0425-.6839.1432-1.3141.1656-2.0518a5.74437,5.74437,0,0,0-.0177-.8074,2.46336,2.46336,0,0,0-.1153-.5223,5.57635,5.57635,0,0,0-.4824-1.0468,10.13193,10.13193,0,0,0-.6915-1.0028Z"/><path class="cls-11" d="M118.6402,104.2488a5.428,5.428,0,0,0-.2014.8158,4.65866,4.65866,0,0,0-.0684.527,2.29219,2.29219,0,0,0,.0081.4249,1.45737,1.45737,0,0,0,.0983.3972,4.17821,4.17821,0,0,0,.4148.746,8.95484,8.95484,0,0,0,.8031,1.068l.9877-.2548a8.42469,8.42469,0,0,0,.1869-1.3191,3.97127,3.97127,0,0,0,.0097-.8552,1.63415,1.63415,0,0,0-.1076-.3967,2.05211,2.05211,0,0,0-.1963-.3746,3.82146,3.82146,0,0,0-.3137-.4276,5.31431,5.31431,0,0,0-.5686-.6189Z"/><path class="cls-11" d="M119.1162,108.06c.1432-.1085.2009-.163-.0177-.038-.0114.0053.0032.017.0177.038-.1969.1519-.5556.4023-.5556.4023s-1.0044-1.2026-.5406-.6341c.0091.0095-.0172.0126-.0478.0361a4.20313,4.20313,0,0,0-.4317.3907,2.16177,2.16177,0,0,0-.2532.2983,1.06436,1.06436,0,0,0-.1474.258.81149.81149,0,0,0-.0544.2793,2.077,2.077,0,0,0,.113.5982,4.49034,4.49034,0,0,0,.3492.9266l1.0057.1863a4.42428,4.42428,0,0,0,.6529-.7478,2.04473,2.04473,0,0,0,.3172-.5174.81292.81292,0,0,0,.0488-.2813,1.19786,1.19786,0,0,0-.0462-.297,1.85783,1.85783,0,0,0-.1342-.3667,3.67036,3.67036,0,0,0-.2649-.5182Z"/><path class="cls-11" d="M111.0777,111.7481c-.1556.2746-.2308.3679-.3329.5849a2.35186,2.35186,0,0,0-.1586.3794,1.35885,1.35885,0,0,0-.0716.3039,1.05934,1.05934,0,0,0,.0246.2967,2.31946,2.31946,0,0,0,.2715.5853c.152.2771.2991.4524.5874.8776l1.016-.0975c.2066-.4618.3258-.6586.4286-.9525a2.16485,2.16485,0,0,0,.1658-.6304.86977.86977,0,0,0-.0309-.3123,1.26286,1.26286,0,0,0-.1311-.3034,2.22861,2.22861,0,0,0-.2305-.3492c-.1535-.1908-.243-.2676-.4563-.5065Z"/><path class="cls-11" d="M96.8348,37.0262c.2613.301.4773.5728.7836.8882a6.65743,6.65743,0,0,0,.5558.5284,4.37956,4.37956,0,0,0,.4999.3767,3.37039,3.37039,0,0,0,.5466.2926,8.52151,8.52151,0,0,0,1.1945.3743c.6688.1727,1.2647.2628,1.8701.3856l.4666-.9075c-.4572-.4178-.8757-.8481-1.399-1.2918a9.73591,9.73591,0,0,0-.9789-.7569,3.62554,3.62554,0,0,0-.5403-.2806,4.4639,4.4639,0,0,0-.5825-.1949c-.2491-.0741-.4799-.1276-.7316-.1777-.4195-.0837-.7606-.1177-1.1425-.1794Z"/><path class="cls-11" d="M93.6705,33.1179c.2915.2539.536.503.8809.791.1965.1632.3852.3114.6063.4676a4.79774,4.79774,0,0,0,.5293.3409,4.31686,4.31686,0,0,0,.5669.2544,10.353,10.353,0,0,0,1.2262.3097c.7062.1504,1.3211.22,1.9081.3293l.4393-.9227c-.4572-.3949-.9156-.8232-1.5008-1.2649a8.957,8.957,0,0,0-1.0642-.7201,4.05379,4.05379,0,0,0-.5815-.2513,4.23953,4.23953,0,0,0-.6244-.1608,7.40185,7.40185,0,0,0-.7758-.1198c-.4562-.0433-.8214-.0485-1.2097-.0609Z"/><path class="cls-11" d="M89.0154,28.9344c.2922.2531.5742.5429.969.878.2123.1793.4207.3532.6664.5326a6.58014,6.58014,0,0,0,.5876.3874,4.36109,4.36109,0,0,0,.6287.3026,11.08778,11.08778,0,0,0,1.3531.4094c.8235.2119,1.5325.3259,2.1166.4453l.4328-.9295c-.4613-.3687-.9924-.848-1.667-1.358a11.34831,11.34831,0,0,0-1.1663-.802,4.77172,4.77172,0,0,0-.6341-.2987,6.17256,6.17256,0,0,0-.6752-.214c-.2989-.0774-.5673-.136-.847-.182-.5174-.0857-.9274-.1222-1.3221-.166Z"/><path class="cls-11" d="M84.5638,24.4452c.2908.2624.5702.5375.9617.8625.213.1747.4227.3393.6658.5039a5.3967,5.3967,0,0,0,.5811.3674,4.5239,4.5239,0,0,0,.6228.2779,10.60349,10.60349,0,0,0,1.3279.3531c.7949.1791,1.484.2662,2.0594.3796l.4329-.9295c-.4607-.3734-.9898-.8333-1.6592-1.3138a10.17677,10.17677,0,0,0-1.1592-.7533,3.97264,3.97264,0,0,0-.6235-.2732,4.92006,4.92006,0,0,0-.6653-.1839,7.29643,7.29643,0,0,0-.8278-.1506c-.4954-.0729-.8888-.0926-1.2795-.1311Z"/><path class="cls-11" d="M79.6721,20.71745c.3221.22294.6345.45993,1.0645.732.2337.14585.4628.28213.725.41419a5.39563,5.39563,0,0,0,.6234.2897,4.5235,4.5235,0,0,0,.6533.1956,10.59762,10.59762,0,0,0,1.3623.1797c.8114.0756,1.5059.0735,2.0911.112l.31-.97732c-.5049-.31115-1.0887-.69931-1.8142-1.08993a10.18333,10.18333,0,0,0-1.2464-.59815,3.97644,3.97644,0,0,0-.6533-.19092,4.9403,4.9403,0,0,0-.6835-.097,7.284,7.284,0,0,0-.8402-.043c-.5007-.00872-.8934.02224-1.2857.03428Z"/><path class="cls-11" d="M74.6389,17.11506c.3328.20662.6567.42774,1.0996.678.2407.134.4763.25876.7448.37762a5.38649,5.38649,0,0,0,.6371.25826,4.524,4.524,0,0,0,.6622.16287,10.60362,10.60362,0,0,0,1.3696.11158c.8141.03507,1.5077-.0016,2.0941.00779l.2609-.99159c-.5197-.28563-1.1222-.64424-1.8662-.99823a10.1892,10.1892,0,0,0-1.2746-.53536,3.97561,3.97561,0,0,0-.6621-.15814,4.93994,4.93994,0,0,0-.6874-.06281,7.28179,7.28179,0,0,0-.8414-.00108c-.5004.0162-.8911.06669-1.2824.09825Z"/><path class="cls-11" d="M69.4291,13.81343c.3496.17678.6915.3688,1.1546.57946.2514.11251.4971.21618.7749.31115a5.39038,5.39038,0,0,0,.6571.20168,4.52157,4.52157,0,0,0,.674.10443,10.6026,10.6026,0,0,0,1.374-.00838c.8141-.03613,1.5018-.1332,2.0868-.175l.1733-1.01058c-.5426-.23919-1.174-.54382-1.9462-.83151a10.17942,10.17942,0,0,0-1.3164-.422,3.97569,3.97569,0,0,0-.6734-.09978,4.9374,4.9374,0,0,0-.6902-.00253,7.27665,7.27665,0,0,0-.8383.07235c-.4971.05982-.8819.14421-1.2689.20982Z"/><path class="cls-11" d="M63.8231,11.36614c.3702.128.7349.27209,1.2222.41834.2644.07753.5217.14712.8099.20373a5.38331,5.38331,0,0,0,.6783.11112,4.52406,4.52406,0,0,0,.6819.01254,10.60088,10.60088,0,0,0,1.3603-.19376c.8018-.14568,1.4701-.33467,2.044-.45506l.0354-1.02475c-.5699-.16373-1.2367-.38037-2.0406-.56123a10.18051,10.18051,0,0,0-1.3614-.2405,3.97584,3.97584,0,0,0-.6806-.008,4.94256,4.94256,0,0,0-.6843.09063,7.28675,7.28675,0,0,0-.8208.18483c-.4845.12639-.8544.26193-1.229.37918Z"/><path class="cls-11" d="M58.8428,9.60562c.3847.07421.7661.16515,1.2692.24082.2727.03925.5373.07165.8306.08682a5.38147,5.38147,0,0,0,.6872.01381,4.5226,4.5226,0,0,0,.6768-.08427,10.60506,10.60506,0,0,0,1.3191-.38469c.773-.2579,1.4078-.53976,1.9589-.74033l-.1103-1.0194c-.5875-.08128-1.2782-.20117-2.0996-.26619a10.17965,10.17965,0,0,0-1.3818-.045,3.97541,3.97541,0,0,0-.6748.08861,4.93812,4.93812,0,0,0-.6646.18675,7.28844,7.28844,0,0,0-.7863.29935c-.4617.19379-.8086.38044-1.1628.54959Z"/><path class="cls-11" d="M54.0501,8.133c.3905.03092.7797.07885,1.2882.098.2753.00869.5419.01142.835-.00615a5.3823,5.3823,0,0,0,.6845-.06274,4.52246,4.52246,0,0,0,.6632-.1591,10.59532,10.59532,0,0,0,1.268-.5291c.7395-.34233,1.339-.69309,1.8644-.95374l-.2231-1.00078c-.5928-.01541-1.2926-.05768-2.1162-.03087a10.17851,10.17851,0,0,0-1.3781.109,3.97124,3.97124,0,0,0-.6608.16319,4.93673,4.93673,0,0,0-.6396.25954,7.28264,7.28264,0,0,0-.7482.385c-.4372.244-.7612.468-1.0944.6756Z"/><path class="cls-11" d="M49.4583,6.981c.3707.04423.6506.09416,1.026.11889a5.312,5.312,0,0,0,.662.00413,3.21712,3.21712,0,0,0,.5318-.05457A2.4423,2.4423,0,0,0,52.183,6.906a7.31586,7.31586,0,0,0,.9422-.50575c.4938-.29725.8855-.59839,1.3693-.91176l-.2615-.98669c-.5836-.03-1.088-.07536-1.672-.06081a6.16723,6.16723,0,0,0-1.0783.085,2.74433,2.74433,0,0,0-.5081.1564,3.342,3.342,0,0,0-.4773.24284,6.04656,6.04656,0,0,0-.5449.36742c-.2969.22084-.5048.41484-.7943.64775Z"/><path class="cls-11" d="M45.5924,6.73523c.3731-.01221.6574-.00507,1.0322-.03725a5.3266,5.3266,0,0,0,.6551-.09578,3.22525,3.22525,0,0,0,.5174-.13418,2.44081,2.44081,0,0,0,.4775-.218,7.31433,7.31433,0,0,0,.8552-.64213c.4432-.36833.785-.72512,1.2161-1.1079l-.4074-.93594c-.5815.05839-1.087.08965-1.662.19214a6.168,6.168,0,0,0-1.0533.24672,2.74578,2.74578,0,0,0-.4786.23125,3.34321,3.34321,0,0,0-.4352.31206,6.04478,6.04478,0,0,0-.4833.44543c-.2601.26308-.4364.48626-.6874.76016Z"/><path class="cls-11" d="M41.8764,6.85572c.3705-.04592.6676-.0713,1.0413-.14058.2302-.045.4337-.08982.657-.15476a3.95836,3.95836,0,0,0,.5165-.18722,2.77284,2.77284,0,0,0,.4626-.267,7.05378,7.05378,0,0,0,.8168-.727c.4248-.417.7462-.81,1.1443-1.22691l-.4904-.8953c-.5772.11414-1.0877.19437-1.6679.35192a7.17819,7.17819,0,0,0-1.0499.3511,3.29024,3.29024,0,0,0-.4657.277,4.14469,4.14469,0,0,0-.4119.35683c-.1692.16484-.3085.3194-.461.49415-.2418.29225-.4073.53385-.6324.82933Z"/><path class="cls-11" d="M37.7633,7.87729a7.63559,7.63559,0,0,0,.972-.23656,5.49569,5.49569,0,0,0,.61-.21068,3.22068,3.22068,0,0,0,.4673-.22863,2.41778,2.41778,0,0,0,.4096-.30289,6.25692,6.25692,0,0,0,.6871-.78871,13.072,13.072,0,0,0,.9234-1.33146l-.615-.81406a13.48043,13.48043,0,0,0-1.5332.50958,6.20833,6.20833,0,0,0-.9476.44265,2.55011,2.55011,0,0,0-.4084.30948,3.29021,3.29021,0,0,0-.3506.38374,5.97271,5.97271,0,0,0-.3712.5302,7.69986,7.69986,0,0,0-.4995.86627Z"/><path class="cls-11" d="M34.1709,8.96939c.3408-.08456.5504-.10914.8401-.19379a4.54271,4.54271,0,0,0,.5139-.17344,2.95274,2.95274,0,0,0,.3881-.18932,1.78515,1.78515,0,0,0,.3254-.26547,4.50619,4.50619,0,0,0,.5305-.70793c.2391-.37428.4034-.71339.6754-1.21341l-.6498-.78718c-.5375.17465-.9032.254-1.3109.41317a4.38851,4.38851,0,0,0-.8051.37076,1.56106,1.56106,0,0,0-.3332.2772,2.28131,2.28131,0,0,0-.2744.35067,3.8312,3.8312,0,0,0-.2747.487c-.1328.27493-.2012.47918-.3367.80912Z"/><path class="cls-11" d="M104.0033,39.4253c.2494.2928.4927.6229.8355,1.0115.186.2109.3702.4114.5888.6271a6.21705,6.21705,0,0,0,.5287.468,4.767,4.767,0,0,0,.575.394,12.61465,12.61465,0,0,0,1.2882.6001c.7975.3333,1.4875.5519,2.047.7515l.5557-.8582c-.4002-.4252-.8595-.9798-1.4639-1.5871a11.53763,11.53763,0,0,0-1.0436-.966,4.30347,4.30347,0,0,0-.5866-.3878,6.17379,6.17379,0,0,0-.6431-.3119c-.2817-.1174-.5451-.2148-.8156-.3045-.502-.1631-.9072-.2586-1.2918-.3577Z"/><path class="cls-11" d="M107.0491,44.4547c.2463.2871.4811.6293.8199,1.0314.1834.2198.3636.4338.5796.6584.1639.1702.3278.3404.5181.5038a5.4993,5.4993,0,0,0,.5746.428,11.65548,11.65548,0,0,0,1.2984.681,21.697,21.697,0,0,0,2.089.8564l.5589-.8524c-.4689-.4892-1.0254-1.209-1.7413-1.9661a8.77781,8.77781,0,0,0-.7521-.7337,4.17184,4.17184,0,0,0-.562-.4048,8.59148,8.59148,0,0,0-1.3358-.6532,11.1666,11.1666,0,0,0-1.473-.4697Z"/><path class="cls-11" d="M110.4313,50.0979c.2321.3085.4606.6657.7866,1.095.1779.2278.3532.4497.565.6804a6.1157,6.1157,0,0,0,.5096.5244,4.89382,4.89382,0,0,0,.563.4498,13.48444,13.48444,0,0,0,1.2785.723c.794.4079,1.4941.6952,2.0304.9398l.6245-.8112c-.3722-.452-.813-1.0651-1.3961-1.7374a13.23645,13.23645,0,0,0-1.0021-1.0673,5.39864,5.39864,0,0,0-.5751-.4444,6.73234,6.73234,0,0,0-.6389-.3688,8.65433,8.65433,0,0,0-.81-.3792c-.5082-.2139-.9162-.3496-1.2947-.4841Z"/><path class="cls-11" d="M112.9854,55.4669a9.854,9.854,0,0,0,.7801,1.2283,8.37063,8.37063,0,0,0,.9128,1.0391,4.17236,4.17236,0,0,0,.5073.3935,8.40185,8.40185,0,0,0,.8451.4707c.837.4246,1.5976.711,2.1783,1.0423l.7019-.7436a15.13358,15.13358,0,0,0-1.2576-1.7219,9.77729,9.77729,0,0,0-.9318-1.0016,4.6248,4.6248,0,0,0-.5344-.402,6.52355,6.52355,0,0,0-.5869-.3292c-.2562-.1247-.4915-.2284-.7374-.3322-.4416-.1821-.8002-.2908-1.1459-.4452Z"/><path class="cls-11" d="M115.8025,60.8263a9.85415,9.85415,0,0,0,.596,1.3274,8.3611,8.3611,0,0,0,.7544,1.1592,4.17,4.17,0,0,0,.4457.4621,8.4078,8.4078,0,0,0,.7689.587c.7676.5402,1.4792.9326,2.0065,1.3437l.8012-.6352a15.13911,15.13911,0,0,0-.9979-1.8844,9.77694,9.77694,0,0,0-.7786-1.1248,4.63151,4.63151,0,0,0-.4712-.4745,6.5284,6.5284,0,0,0-.5337-.4099c-.2357-.1601-.4538-.2965-.6821-.4344-.4111-.2436-.7503-.4025-1.0704-.6049Z"/><path class="cls-11" d="M117.7903,65.998a9.84809,9.84809,0,0,0,.5226,1.358,8.369,8.369,0,0,0,.6899,1.1987,4.17045,4.17045,0,0,0,.4197.4858,8.41762,8.41762,0,0,0,.7357.6281c.7369.5814,1.4261,1.0121,1.93,1.4514l.8348-.5905a15.12561,15.12561,0,0,0-.8934-1.9361,9.7779,9.7779,0,0,0-.7159-1.1657,4.648,4.648,0,0,0-.4446-.4995,6.55679,6.55679,0,0,0-.5106-.4385c-.2265-.1728-.4368-.3208-.6573-.4711-.397-.2657-.7271-.4429-1.0356-.6625Z"/><path class="cls-11" d="M119.7143,71.9173a9.85132,9.85132,0,0,0,.4198,1.3932,8.35549,8.35549,0,0,0,.5986,1.2468,4.171,4.171,0,0,0,.3823.5158,8.38717,8.38717,0,0,0,.6868.6812c.6914.6348,1.3465,1.1157,1.8163,1.5914l.8765-.5266a15.143,15.143,0,0,0-.7464-1.9974,9.78032,9.78032,0,0,0-.6271-1.2158,4.63271,4.63271,0,0,0-.406-.5313,6.53076,6.53076,0,0,0-.4764-.4753c-.213-.1892-.4117-.3526-.6204-.5188-.3761-.2946-.6921-.496-.9833-.738Z"/><path class="cls-11" d="M121.4747,77.8961a9.83733,9.83733,0,0,0,.2569,1.4322,8.36174,8.36174,0,0,0,.4514,1.3074,4.16554,4.16554,0,0,0,.3205.5562,8.397,8.397,0,0,0,.604.7557c.6139.7099,1.2094,1.2629,1.6214,1.7895l.9312-.4225a15.13463,15.13463,0,0,0-.512-2.0698,9.78456,9.78456,0,0,0-.4831-1.2799,4.64609,4.64609,0,0,0-.3424-.5744,6.53136,6.53136,0,0,0-.4186-.5269c-.1899-.2124-.3685-.3975-.5567-.5866-.3398-.3359-.6305-.5722-.892-.8461Z"/><path class="cls-11" d="M122.2896,83.6723a9.85846,9.85846,0,0,0,.1636,1.4458,8.37132,8.37132,0,0,0,.3657,1.3339,4.18053,4.18053,0,0,0,.2838.5758,8.394,8.394,0,0,0,.5538.7932c.5666.7483,1.1251,1.3387,1.5021,1.8908l.9566-.3612a15.14411,15.14411,0,0,0-.3768-2.0987,9.77273,9.77273,0,0,0-.3992-1.3084,4.64722,4.64722,0,0,0-.3045-.5954,6.53243,6.53243,0,0,0-.3836-.553c-.1756-.2242-.3419-.4205-.5174-.6215-.3174-.3571-.5922-.6118-.8354-.902Z"/><path class="cls-11" d="M122.9253,89.1915c-.0511.3795-.0984.6814-.1217,1.0719a5.47161,5.47161,0,0,0,.0071.6961,3.72673,3.72673,0,0,0,.0704.5628,3.3867,3.3867,0,0,0,.1687.5278,6.92076,6.92076,0,0,0,.5627.9693c.335.5076.676.904,1.0294,1.3688l.9611-.3425c-.0253-.578-.0116-1.0976-.0612-1.6992a8.28584,8.28584,0,0,0-.1361-1.0799,2.82681,2.82681,0,0,0-.1693-.5005,4.20612,4.20612,0,0,0-.2538-.4789c-.1204-.2001-.2367-.3649-.371-.5517-.2185-.3052-.4172-.5195-.6352-.8143Z"/><path class="cls-11" d="M123.0914,95.5944c-.0459.3604-.1168.6491-.1614,1.0303-.0242.2294-.0479.4316-.053.6662a3.76611,3.76611,0,0,0,.0115.5537,3.15965,3.15965,0,0,0,.1065.5314,7.39881,7.39881,0,0,0,.4305,1.0291c.2757.5633.5574,1.0154.8525,1.5189l.9967-.2341c.0397-.6801.1391-1.303.1636-2.0282a5.12585,5.12585,0,0,0-.0134-.8004,2.4337,2.4337,0,0,0-.1139-.5164,5.22691,5.22691,0,0,0-.4833-1.0364,9.922,9.922,0,0,0-.6853-.9849Z"/><path class="cls-11" d="M122.3333,101.372a5.06921,5.06921,0,0,0-.2027.8085,3.67009,3.67009,0,0,0-.0676.5209,2.07928,2.07928,0,0,0,.0023.4186,1.81727,1.81727,0,0,0,.0972.3926,4.11789,4.11789,0,0,0,.4172.7332,8.86369,8.86369,0,0,0,.7959,1.0594l.9892-.2545a8.17875,8.17875,0,0,0,.1898-1.3117,3.889,3.889,0,0,0,.0117-.8418,1.62862,1.62862,0,0,0-.1028-.3941,2.37008,2.37008,0,0,0-.1976-.3682,3.93253,3.93253,0,0,0-.3122-.4263,5.07142,5.07142,0,0,0-.5692-.6077Z"/><path class="cls-11" d="M122.8142,105.133c.1454-.109.2061-.1646-.0158-.0337-.0112.0052.0016.013.0158.0337-.1929.1539-.5549.405-.5549.405s-.9998-1.2038-.5379-.6344c.0052.0112-.017.0125-.0472.0357a3.74782,3.74782,0,0,0-.4323.3843,2.18092,2.18092,0,0,0-.2503.2948.98726.98726,0,0,0-.1494.2568.89246.89246,0,0,0-.0538.276,2.04473,2.04473,0,0,0,.1154.5897,4.3022,4.3022,0,0,0,.3525.9216l1.0034.1845a4.62272,4.62272,0,0,0,.6546-.739,2.02368,2.02368,0,0,0,.3136-.5114.89907.89907,0,0,0,.0482-.2781,1.01462,1.01462,0,0,0-.0494-.2918,2.21168,2.21168,0,0,0-.1307-.3681,4.46018,4.46018,0,0,0-.2693-.5086Z"/><path class="cls-11" d="M114.8588,108.779c-.1561.2768-.232.3652-.3368.5812a2.32759,2.32759,0,0,0-.1567.3751,1.34639,1.34639,0,0,0-.0709.3004.92067.92067,0,0,0,.0244.2932,2.32591,2.32591,0,0,0,.2699.5824c.1525.2685.298.4418.5868.8606l1.0189-.0933c.2065-.462.3221-.6511.4275-.9431a2.28566,2.28566,0,0,0,.1678-.6247.96014.96014,0,0,0-.0306-.3087,1.26685,1.26685,0,0,0-.1334-.2984,2.17444,2.17444,0,0,0-.2318-.3437c-.1532-.1924-.2401-.2644-.4563-.5028Z"/><path class="cls-11" d="M100.7817,34.9233c.2569.302.4704.5707.7673.8855.1814.1849.3506.3465.5539.5237a4.11208,4.11208,0,0,0,.4942.3725,3.26154,3.26154,0,0,0,.5402.2891,8.41388,8.41388,0,0,0,1.1809.37c.6625.1663,1.2515.2554,1.8499.3768l.4654-.9105c-.446-.416-.8597-.8413-1.3769-1.2799a8.97216,8.97216,0,0,0-.9707-.7541,3.60536,3.60536,0,0,0-.5297-.2759,5.30009,5.30009,0,0,0-.5758-.1927c-.2506-.0746-.4757-.1216-.7246-.1712-.4147-.0827-.7533-.1119-1.1338-.1788Z"/><path class="cls-11" d="M97.6568,31.0623c.2835.2506.5294.5019.8657.7862.1989.1618.3803.3123.6034.4673a4.34028,4.34028,0,0,0,.5186.3364,4.27,4.27,0,0,0,.5604.2516,10.24022,10.24022,0,0,0,1.2126.3015c.698.1487,1.3059.2174,1.8867.3209l.4398-.921c-.4473-.3899-.8999-.8179-1.4784-1.2545a8.90545,8.90545,0,0,0-1.0515-.7165,4.01178,4.01178,0,0,0-.5748-.2484,4.89827,4.89827,0,0,0-.6172-.1589c-.2669-.0516-.512-.0868-.7674-.1137-.4556-.0433-.8119-.048-1.2004-.0608Z"/><path class="cls-11" d="M93.0467,26.921c.2881.2549.5669.5414.9525.8719.2092.1819.4205.3498.6587.5265.1877.1362.376.2678.5802.3875a4.48934,4.48934,0,0,0,.6214.2992,11.06851,11.06851,0,0,0,1.3383.4c.8139.2095,1.5194.3228,2.0974.4363l.4339-.9273c-.4606-.3652-.9803-.8429-1.6471-1.347a11.20584,11.20584,0,0,0-1.1523-.7974,4.7104,4.7104,0,0,0-.6267-.2953,5.16826,5.16826,0,0,0-.6681-.2069,7.86249,7.86249,0,0,0-.8419-.1806c-.5114-.0848-.9167-.1208-1.3075-.1595Z"/><path class="cls-11" d="M88.6412,22.4873c.2875.2594.5682.532.9505.8527.2106.1726.4179.3352.6576.5027a6.1494,6.1494,0,0,0,.5743.3631,4.455,4.455,0,0,0,.6157.2746,11.36921,11.36921,0,0,0,1.3126.3491c.7911.1731,1.4676.2586,2.0416.3667l.434-.9273c-.46-.3698-.9778-.8284-1.6395-1.3034a9.713,9.713,0,0,0-1.1452-.7491,3.92311,3.92311,0,0,0-.6163-.2702,5.70645,5.70645,0,0,0-.6576-.18174c-.2876-.066-.5456-.10868-.8182-.14882-.4904-.06748-.8839-.08767-1.2701-.12565Z"/><path class="cls-11" d="M83.8105,18.80538c.3185.22038.6319.4547,1.0523.72356.231.14414.4575.27882.7166.41413a6.14482,6.14482,0,0,0,.6162.28632,4.46505,4.46505,0,0,0,.6458.19334,11.37759,11.37759,0,0,0,1.3467.17764c.8067.0701,1.4886.06795,2.0718.1015l.3112-.97539c-.5037-.30766-1.076-.69594-1.7932-1.082a9.7177,9.7177,0,0,0-1.232-.59593,3.92337,3.92337,0,0,0-.6458-.18873,5.70751,5.70751,0,0,0-.6755-.09583c-.2938-.02848-.5551-.03772-.8306-.04253-.495-.00394-.8879.02657-1.2757.03849Z"/><path class="cls-11" d="M78.8323,15.24267c.329.20426.6537.42266,1.0869.67026.2379.13248.4708.2557.7364.37793a6.13333,6.13333,0,0,0,.6297.25529,4.46409,4.46409,0,0,0,.6546.16094,11.37534,11.37534,0,0,0,1.3538.11036c.8092.02984,1.4902-.00626,2.0743-.00179l.2623-.98968c-.5184-.28219-1.1093-.64148-1.8449-.99141a9.71816,9.71816,0,0,0-1.2601-.53381,3.92108,3.92108,0,0,0-.6544-.15635,5.69662,5.69662,0,0,0-.6795-.06207c-.2948-.01384-.5562-.01-.8316-.0011-.4946.02069-.8854.07074-1.2722.102Z"/><path class="cls-11" d="M73.6917,11.98477c.3455.17475.6881.364,1.1413.57282.2485.11119.4913.21362.7665.3122a6.132,6.132,0,0,0,.6496.19936,4.46243,4.46243,0,0,0,.6662.10319,11.37819,11.37819,0,0,0,1.3583-.00826c.8087-.04091,1.4839-.13629,2.0662-.18285l.1749-1.00879c-.541-.23587-1.1611-.54219-1.9244-.82659a9.72113,9.72113,0,0,0-1.3019-.42179,3.92051,3.92051,0,0,0-.6656-.09861,5.6993,5.6993,0,0,0-.6823-.00253c-.2948.01194-.555.03856-.8286.07148-.4908.0638-.8758.14778-1.2584.21262Z"/><path class="cls-11" d="M68.1485,9.56427c.366.12651.731.26776,1.2082.41353.2613.07664.5157.14536.8017.2059a6.13065,6.13065,0,0,0,.6705.10986,4.46431,4.46431,0,0,0,.674.01233,11.385,11.385,0,0,0,1.3448-.19148c.7958-.14968,1.4519-.33533,2.0226-.46l.0371-1.02317c-.5679-.16067-1.2236-.38053-2.0183-.5593a9.7173,9.7173,0,0,0-1.3469-.24222,3.92041,3.92041,0,0,0-.6728-.00788,5.69971,5.69971,0,0,0-.6764.08957c-.2906.05163-.5447.11311-.8114.18266-.4777.12947-.8479.26463-1.2181.38051Z"/><path class="cls-11" d="M63.2276,7.82485c.3802.07332.7616.16141,1.2546.238.2695.03882.5311.07076.8228.09014a6.13608,6.13608,0,0,0,.6793.01367,4.46721,4.46721,0,0,0,.669-.08339,11.37916,11.37916,0,0,0,1.304-.38022c.7665-.261,1.3897-.53782,1.9369-.74222l-.1083-1.01808c-.585-.07854-1.2653-.20316-2.0772-.26746a9.71887,9.71887,0,0,0-1.3677-.04878,3.92053,3.92053,0,0,0-.6671.08761,5.69875,5.69875,0,0,0-.6569.18457c-.2803.09232-.5232.18923-.7772.29588-.4546.19587-.8018.38219-1.152.54941Z"/><path class="cls-11" d="M58.491,6.36831c.3861.03058.7748.07567,1.2734.09693.2721.0086.5356.01123.8276-.002a6.1402,6.1402,0,0,0,.6767-.062,4.46249,4.46249,0,0,0,.6555-.15731,11.37881,11.37881,0,0,0,1.2536-.523c.7327-.34472,1.3212-.68915,1.8423-.95317L64.7992,3.768c-.5901-.01292-1.2801-.06107-2.0941-.03457a9.71659,9.71659,0,0,0-1.3646.10372,3.92355,3.92355,0,0,0-.6533.16132,5.69978,5.69978,0,0,0-.6322.25653c-.2683.123-.4989.24626-.7395.38054-.4299.24525-.7543.46905-1.0836.6742Z"/><path class="cls-11" d="M53.9525,5.23007c.3665.04373.6472.09065,1.0182.11509a6.10372,6.10372,0,0,0,.6529.01047,3.17451,3.17451,0,0,0,.5256-.05395,2.37858,2.37858,0,0,0,.5032-.14419,7.1975,7.1975,0,0,0,.9313-.5c.4857-.2978.8728-.59547,1.3511-.90524L58.669,2.765c-.5794-.03364-1.0739-.0809-1.6536-.0705a6.35915,6.35915,0,0,0-1.07.08644,2.66983,2.66983,0,0,0-.4982.15217,2.86727,2.86727,0,0,0-.4694.244,5.10245,5.10245,0,0,0-.5427.36565c-.2934.21828-.4989.41006-.785.64027Z"/><path class="cls-11" d="M50.1332,4.98532c.3689-.012.6535-.008,1.0239-.03983a6.10533,6.10533,0,0,0,.647-.08814,3.1781,3.1781,0,0,0,.5115-.13263,2.37811,2.37811,0,0,0,.4756-.21844,7.19259,7.19259,0,0,0,.8453-.63476c.4352-.36765.773-.72033,1.1991-1.09872l-.4118-.93589c-.5778.05417-1.0738.08207-1.6453.17979a6.36049,6.36049,0,0,0-1.0447.24688,2.66962,2.66962,0,0,0-.4696.2256,2.866,2.866,0,0,0-.4271.312,5.10088,5.10088,0,0,0-.4813.44333c-.2572.26-.4314.48064-.6795.75139Z"/><path class="cls-11" d="M46.4608,5.103c.3695-.04871.6599-.07048,1.0293-.139a5.52723,5.52723,0,0,0,.6527-.15626,3.59614,3.59614,0,0,0,.5106-.17845,2.69091,2.69091,0,0,0,.4605-.26722,7.49742,7.49742,0,0,0,.8042-.71534c.4166-.41554.7342-.804,1.1277-1.22267l-.4881-.89487c-.5738.1095-1.0785.1888-1.6586.34462a6.78093,6.78093,0,0,0-1.0345.34372,3.25133,3.25133,0,0,0-.4605.27386,4.16831,4.16831,0,0,0-.4103.35607,6.2934,6.2934,0,0,0-.4491.48841c-.2424.2922-.3993.531-.6285.82312Z"/><path class="cls-11" d="M42.3924,6.10994a8.22744,8.22744,0,0,0,.9685-.22851c.1939-.05916.3814-.11717.6029-.20829a3.731,3.731,0,0,0,.462-.226,2.389,2.389,0,0,0,.4049-.29942,5.712,5.712,0,0,0,.678-.78613,12.2041,12.2041,0,0,0,.9062-1.3149l-.6103-.8177a13.32647,13.32647,0,0,0-1.522.5049,5.85837,5.85837,0,0,0-.9379.43106,2.52216,2.52216,0,0,0-.4037.306,2.81569,2.81569,0,0,0-.3427.38194,5.98863,5.98863,0,0,0-.3708.52146,8.49814,8.49814,0,0,0-.4887.86543Z"/><path class="cls-11" d="M38.8451,7.18725c.3381-.07715.548-.10529.8317-.18512a4.31434,4.31434,0,0,0,.508-.1714,2.29548,2.29548,0,0,0,.3836-.18715,1.57136,1.57136,0,0,0,.3256-.25981,4.48266,4.48266,0,0,0,.5205-.70239c.2401-.3674.3987-.70519.6663-1.20593l-.6501-.78331c-.5326.16615-.8967.24848-1.2971.40192a4.44176,4.44176,0,0,0-.7997.3639,1.54572,1.54572,0,0,0-.3294.274,1.94459,1.94459,0,0,0-.2674.34921,3.23851,3.23851,0,0,0-.2714.48136c-.1313.27175-.199.47365-.329.80241Z"/><path class="cls-11" d="M75.2654,61.4918c.2486.2881.4811.6143.8167.9949.1808.2108.3611.4072.5708.617.1675.1591.3306.3171.5164.4626a4.51754,4.51754,0,0,0,.5686.3827,11.2281,11.2281,0,0,0,1.2614.5876c.7821.3219,1.459.5317,2.0081.7227l.558-.8553c-.3905-.4207-.8389-.9681-1.4262-1.5614a10.24987,10.24987,0,0,0-1.0206-.9502,4.97587,4.97587,0,0,0-.573-.384c-.2094-.1144-.4195-.2099-.631-.3011-.2802-.1162-.535-.2059-.7999-.2938-.4972-.1566-.8939-.25-1.2718-.3427Z"/><path class="cls-11" d="M78.4944,66.6028c.2442.2868.4697.6205.8002,1.0186.1738.2183.3502.4278.5617.6477.1606.1666.3254.3346.5073.4933a4.728,4.728,0,0,0,.5627.4191,11.43754,11.43754,0,0,0,1.2713.6668,22.16931,22.16931,0,0,0,2.058.8279l.5581-.8552c-.4591-.4791-.9996-1.1824-1.7024-1.9338a7.7428,7.7428,0,0,0-.732-.7171,4.09586,4.09586,0,0,0-.5489-.4007,9.37936,9.37936,0,0,0-1.3093-.6352,11.63336,11.63336,0,0,0-1.4535-.4537Z"/><path class="cls-11" d="M81.3275,72.0671c.2256.3063.4434.6586.7669,1.0806.1699.2214.3458.4403.5515.6705a6.45627,6.45627,0,0,0,.4931.5161,5.55507,5.55507,0,0,0,.5572.4378,11.92442,11.92442,0,0,0,1.2491.7019c.7817.4011,1.4688.678,1.9998.915l.6223-.8098c-.3671-.4484-.7902-1.0454-1.3594-1.708a11.67768,11.67768,0,0,0-.9839-1.0509,4.3358,4.3358,0,0,0-.5631-.4352,6.51147,6.51147,0,0,0-.6212-.3594c-.2775-.1451-.5315-.2616-.7974-.3729-.4992-.2052-.9003-.3338-1.2725-.4612Z"/><path class="cls-11" d="M84.1668,77.1884a10.34017,10.34017,0,0,0,.7556,1.2088,7.76148,7.76148,0,0,0,.8937,1.0174,4.11,4.11,0,0,0,.4947.3893,8.2118,8.2118,0,0,0,.8295.4567c.8216.4118,1.5684.6881,2.139,1.0084l.7037-.7402a15.3486,15.3486,0,0,0-1.2251-1.6982,9.34171,9.34171,0,0,0-.9124-.9806,3.9781,3.9781,0,0,0-.5211-.3977,6.37856,6.37856,0,0,0-.5768-.3183c-.2508-.1221-.4833-.2196-.724-.3211-.4365-.1805-.7877-.2766-1.1262-.4279Z"/><path class="cls-11" d="M86.0237,81.8915a10.3377,10.3377,0,0,0,.5745,1.3046,7.76126,7.76126,0,0,0,.7387,1.135,4.1065,4.1065,0,0,0,.4337.4562,8.24107,8.24107,0,0,0,.7555.5709c.7542.5252,1.4536.9057,1.9725,1.3045l.8024-.6317a15.32723,15.32723,0,0,0-.969-1.8562,9.343,9.343,0,0,0-.7624-1.1013,3.98653,3.98653,0,0,0-.4588-.4683,6.349,6.349,0,0,0-.5252-.3976c-.2307-.1568-.4469-.2866-.6705-.4217-.4061-.2411-.7399-.3866-1.0532-.5848Z"/><path class="cls-11" d="M87.6329,86.6397a10.31779,10.31779,0,0,0,.5024,1.334,7.75113,7.75113,0,0,0,.6755,1.1737,4.10612,4.10612,0,0,0,.4081.4792,8.20518,8.20518,0,0,0,.7232.6114c.7243.5656,1.4019.9838,1.8981,1.4104l.8358-.5869a15.32363,15.32363,0,0,0-.8661-1.9065,9.33978,9.33978,0,0,0-.701-1.1413,3.987,3.987,0,0,0-.4325-.4927,6.3694,6.3694,0,0,0-.5027-.4257c-.2218-.1692-.4305-.3106-.6464-.4577-.3924-.263-.7177-.4264-1.0197-.6415Z"/><path class="cls-11" d="M88.6587,92.1739a10.32035,10.32035,0,0,0,.4015,1.3678,7.7487,7.7487,0,0,0,.5861,1.2208,4.1055,4.1055,0,0,0,.3712.5084,8.23286,8.23286,0,0,0,.6755.6635c.6801.6182,1.3246,1.0857,1.7877,1.5481l.8773-.5229a15.33209,15.33209,0,0,0-.7216-1.9657,9.33163,9.33163,0,0,0-.6139-1.1905,3.979,3.979,0,0,0-.3945-.5235,6.38447,6.38447,0,0,0-.4695-.4621c-.2086-.1852-.4062-.3419-.6105-.5046-.3717-.2915-.6839-.4788-.969-.7158Z"/><path class="cls-11" d="M89.764,97.8229a10.31183,10.31183,0,0,0,.2417,1.4049,7.75364,7.75364,0,0,0,.4419,1.28,4.10806,4.10806,0,0,0,.3104.5477,8.2286,8.2286,0,0,0,.5948.7368c.6046.6922,1.1911,1.2307,1.598,1.7432l.9315-.4187a15.33761,15.33761,0,0,0-.4909-2.0355,9.32625,9.32625,0,0,0-.4731-1.2532,3.98683,3.98683,0,0,0-.3317-.5654,6.382,6.382,0,0,0-.4134-.5129c-.1859-.208-.3642-.3863-.5484-.5714-.3357-.3323-.6244-.5542-.8804-.8224Z"/><path class="cls-11" d="M89.9754,103.4134a10.32493,10.32493,0,0,0,.15,1.4175,7.74582,7.74582,0,0,0,.3582,1.306,4.082,4.082,0,0,0,.2742.5666,8.20789,8.20789,0,0,0,.5458.7738c.5585.7299,1.1088,1.3053,1.4817,1.8431l.9567-.3574a15.32532,15.32532,0,0,0-.358-2.0631,9.34148,9.34148,0,0,0-.3909-1.2812,3.98374,3.98374,0,0,0-.2944-.5857,6.42582,6.42582,0,0,0-.3792-.5387c-.1721-.2195-.3385-.409-.5104-.6057-.3134-.3533-.5871-.5935-.8252-.8777Z"/><path class="cls-11" d="M89.9476,108.7997c-.0268.3846-.07.7681-.0738,1.266-.0066.2728.0003.5325.0215.8262a5.376,5.376,0,0,0,.084.669,4.39658,4.39658,0,0,0,.1832.6488,9.77741,9.77741,0,0,0,.5935,1.2251c.3915.7084.7809,1.2756,1.1145,1.7641l.9609-.3467c-.0537-.5704-.0515-1.2362-.1216-2.0186a11.2995,11.2995,0,0,0-.1668-1.3175,4.58505,4.58505,0,0,0-.182-.6284,4.72156,4.72156,0,0,0-.2749-.6066c-.1277-.2589-.2616-.4826-.3977-.7102-.2558-.4173-.4845-.7234-.6895-1.0433Z"/><path class="cls-11" d="M89.4607,114.2945c-.0295.3704-.1033.7188-.1461,1.1761-.022.2552-.0467.4963-.051.773a5.50978,5.50978,0,0,0,.015.6403,3.84262,3.84262,0,0,0,.1062.6246,9.78435,9.78435,0,0,0,.4403,1.2236,19.83169,19.83169,0,0,0,.8789,1.8206l.9979-.2367c.0105-.6601.121-1.4305.1461-2.3312a7.34768,7.34768,0,0,0-.0215-.9265,3.41992,3.41992,0,0,0-.1136-.6099,7.11722,7.11722,0,0,0-.4857-1.2292,11.41059,11.41059,0,0,0-.7154-1.1973Z"/><path class="cls-11" d="M88.373,118.5634c-.0532.3297-.1267.5915-.1793.9629a6.0024,6.0024,0,0,0-.0578.6219,3.69791,3.69791,0,0,0,.0046.5113,2.43231,2.43231,0,0,0,.105.4908,5.8986,5.8986,0,0,0,.4218.9439c.2764.5371.5524.9436.827,1.3882l.9947-.2362c.0481-.5089.1381-.9858.1744-1.572a6.1478,6.1478,0,0,0,.0063-1.0362,2.51582,2.51582,0,0,0-.109-.4979,3.18137,3.18137,0,0,0-.206-.4795,4.86682,4.86682,0,0,0-.3246-.556c-.213-.3212-.3924-.5356-.6062-.8097Z"/><path class="cls-11" d="M87.7874,122.0831c-.0939.3253-.1742.546-.2537.8735a4.33465,4.33465,0,0,0-.0952.5717,3.01771,3.01771,0,0,0-.0215.4613,2.01581,2.01581,0,0,0,.0768.4423,5.00622,5.00622,0,0,0,.3684.8469c.2286.4519.4676.7917.7127,1.2403l1.0113-.1502c.1116-.5078.2204-.9161.2887-1.4305a4.63571,4.63571,0,0,0,.0597-.935,2.08912,2.08912,0,0,0-.0802-.4496,3.47209,3.47209,0,0,0-.1751-.4232,5.4291,5.4291,0,0,0-.2909-.4988c-.179-.2783-.3336-.4564-.5273-.728Z"/><path class="cls-11" d="M87.0198,124.5114c-.1114.3197-.2035.5357-.3006.8585a4.33824,4.33824,0,0,0-.126.5657,3.02173,3.02173,0,0,0-.0465.4595,2.01742,2.01742,0,0,0,.0527.4458,5.01142,5.01142,0,0,0,.322.8656c.2039.4635.4241.8158.6445,1.277l1.018-.0951c.1388-.5011.2697-.9029.3657-1.4128a4.63714,4.63714,0,0,0,.1103-.9304,2.094,2.094,0,0,0-.0557-.4533,3.47108,3.47108,0,0,0-.152-.432,5.43651,5.43651,0,0,0-.2634-.5139c-.1637-.2876-.3084-.4738-.4872-.7555Z"/><path class="cls-11" d="M86.2243,127.352c-.1566.2725-.2271.3576-.3373.5721a2.67445,2.67445,0,0,0-.1587.365,1.48849,1.48849,0,0,0-.0678.2979.841.841,0,0,0,.0223.2834,2.29594,2.29594,0,0,0,.268.5687c.1546.2651.2955.4311.5836.8433l1.0194-.0914c.2097-.4553.3244-.6367.4314-.9242a2.2618,2.2618,0,0,0,.168-.6131.94178.94178,0,0,0-.0299-.3022,1.2421,1.2421,0,0,0-.1307-.2923,2.20127,2.20127,0,0,0-.2322-.3386c-.1537-.1869-.2388-.2575-.4543-.4894Z"/><path class="cls-11" d="M72.2309,57.2607c.2502.3001.4593.5632.7486.8757.1761.1854.3418.3435.541.5171a4.70012,4.70012,0,0,0,.4824.3691,3.62981,3.62981,0,0,0,.5289.2831,7.66,7.66,0,0,0,1.159.3536c.653.1641,1.2268.2456,1.8184.3615l.4656-.9075c-.4397-.413-.839-.8325-1.3484-1.2676a8.45684,8.45684,0,0,0-.9461-.737,3.09831,3.09831,0,0,0-.5186-.2702,3.694,3.694,0,0,0-.5637-.1886c-.2468-.0687-.4702-.1205-.7109-.1633-.4118-.078-.7389-.1051-1.1172-.1677Z"/><path class="cls-11" d="M68.5903,53.0461c.2821.2459.5137.4909.8471.7743.1898.1625.3718.3105.5858.4617a4.66934,4.66934,0,0,0,.5124.3299,3.57913,3.57913,0,0,0,.5441.2458,9.30553,9.30553,0,0,0,1.1872.2952c.6885.1415,1.2846.1997,1.8532.301l.4417-.9189c-.4375-.3863-.8807-.8054-1.4461-1.242a8.352,8.352,0,0,0-1.0249-.701,3.02846,3.02846,0,0,0-.5674-.2437,4.04875,4.04875,0,0,0-.5997-.1552,7.21081,7.21081,0,0,0-.7565-.1072c-.4461-.0425-.7954-.0425-1.1762-.0504Z"/><path class="cls-11" d="M64.1413,48.2846c.2815.254.5544.5345.9313.8627.2049.178.4065.3463.6444.52a5.38938,5.38938,0,0,0,.5635.3787,4.58631,4.58631,0,0,0,.6078.2975,11.83424,11.83424,0,0,0,1.3155.3878c.7976.2006,1.4897.3026,2.0556.4136l.4321-.9253c-.4459-.3615-.954-.8337-1.6063-1.3318a11.32129,11.32129,0,0,0-1.1236-.7802,4.106,4.106,0,0,0-.613-.2935,5.81853,5.81853,0,0,0-.6594-.1988c-.2893-.075-.5496-.1271-.8204-.1716-.5053-.0837-.9028-.1145-1.2854-.1523Z"/><path class="cls-11" d="M59.352,44.0276c.2808.2586.5506.5294.9249.8433.2055.1735.4085.3328.6432.4968a5.23529,5.23529,0,0,0,.5616.3599,4.30484,4.30484,0,0,0,.5983.2684,10.30379,10.30379,0,0,0,1.2911.3333c.7745.1695,1.4382.2442,2.0003.35l.4321-.9253c-.4453-.366-.9522-.8149-1.5987-1.2891a10.91449,10.91449,0,0,0-1.1161-.7374,4.57533,4.57533,0,0,0-.608-.2651,5.44345,5.44345,0,0,0-.6445-.1735c-.2817-.0646-.5343-.1064-.8019-.1412-.4853-.0622-.8661-.0813-1.2448-.1139Z"/><path class="cls-11" d="M54.0631,39.9199c.3117.2204.614.4543,1.0256.7176.2261.1456.4478.2776.7016.41a5.24087,5.24087,0,0,0,.6032.2849,4.31342,4.31342,0,0,0,.6278.1893,10.3015,10.3015,0,0,0,1.3232.1648c.7899.0686,1.4577.0574,2.0287.0902l.3097-.9731c-.4885-.3058-1.0489-.686-1.751-1.0732a10.91133,10.91133,0,0,0-1.2015-.5879,4.58063,4.58063,0,0,0-.637-.1849,5.48377,5.48377,0,0,0-.6615-.0893c-.2876-.0279-.5436-.0369-.8133-.037-.4893.0006-.8694.0306-1.2492.0468Z"/><path class="cls-11" d="M48.3344,36.4996c.3223.2046.6358.4231,1.06.6656.233.1342.4611.2549.7212.3746a5.25482,5.25482,0,0,0,.6166.2545,4.32216,4.32216,0,0,0,.6364.1578,10.32024,10.32024,0,0,0,1.3298.0987c.7923.0292,1.4588-.0153,2.0307-.011l.2608-.9873c-.5031-.281-1.0818-.6328-1.8023-.9846a10.89517,10.89517,0,0,0-1.2293-.5274,4.562,4.562,0,0,0-.6454-.1529,5.458,5.458,0,0,0-.6651-.0563c-.2886-.0135-.5447-.0098-.8141.0035-.4887.025-.8668.0739-1.2453.109Z"/><path class="cls-11" d="M43.1054,33.5075c.3389.1756.6704.366,1.1141.5705.2439.1133.4816.2137.7511.3102a5.2516,5.2516,0,0,0,.6365.1997,4.32062,4.32062,0,0,0,.6477.1016,10.28775,10.28775,0,0,0,1.3334-.0178c.7918-.04,1.4519-.1424,2.022-.1881l.1736-1.0063c-.5257-.2361-1.1329-.536-1.8813-.8236a10.9273,10.9273,0,0,0-1.2707-.418,4.56384,4.56384,0,0,0-.6563-.096,5.46343,5.46343,0,0,0-.6675.002c-.2886.0117-.5434.0378-.8107.0746-.4846.0675-.857.1492-1.231.2172Z"/><path class="cls-11" d="M37.4472,31.5982c.3595.1283.7136.2722,1.1808.4149.257.0794.5061.1468.7862.206a5.23959,5.23959,0,0,0,.6576.112,4.30788,4.30788,0,0,0,.6555.0132,10.286,10.286,0,0,0,1.3188-.1975c.7792-.1466,1.4193-.3371,1.9781-.4593l.0362-1.0206c-.5528-.1629-1.1949-.3781-1.9753-.562a10.89017,10.89017,0,0,0-1.3155-.2428,4.56461,4.56461,0,0,0-.6632-.0065,5.46518,5.46518,0,0,0-.6611.092c-.2845.0506-.5334.1108-.7932.1833-.4711.1324-.8291.2636-1.1905.3815Z"/><path class="cls-11" d="M31.8296,30.4748c.3741.0761.745.1683,1.2277.2433.2657.0422.5218.0735.8075.0925a5.245,5.245,0,0,0,.6668.0175,4.29164,4.29164,0,0,0,.6508-.0798,10.27139,10.27139,0,0,0,1.2774-.3825c.7506-.2556,1.3572-.535,1.893-.7352l-.1089-1.0154c-.5703-.0829-1.2364-.2049-2.0349-.2763a10.90687,10.90687,0,0,0-1.3367-.0537,4.57393,4.57393,0,0,0-.6574.0875,5.47562,5.47562,0,0,0-.6414.1849c-.2744.0905-.5123.1854-.7592.294-.4475.1978-.7833.3784-1.1244.5463Z"/><path class="cls-11" d="M27.0804,29.3271c.3802.0339.7591.0843,1.2472.1051.2686.0124.5267.015.8127.0021a5.24951,5.24951,0,0,0,.6646-.0568,4.31252,4.31252,0,0,0,.6379-.1517,10.29816,10.29816,0,0,0,1.2269-.5224c.7174-.3375,1.2892-.6827,1.7994-.9413l-.2212-.9969c-.576-.0189-1.2515-.0661-2.0531-.0481a10.9085,10.9085,0,0,0-1.3343.0953,4.5727,4.5727,0,0,0-.6436.1602,5.445,5.445,0,0,0-.6168.2551c-.2627.1204-.4885.2412-.7218.3766-.4228.2464-.7364.4633-1.0566.6682Z"/><path class="cls-11" d="M22.9886,28.6127c.3612.0467.6322.0951.9939.1253a5.76477,5.76477,0,0,0,.6455.0118,3.6933,3.6933,0,0,0,.5171-.0489,2.35723,2.35723,0,0,0,.4863-.1427,6.001,6.001,0,0,0,.9096-.4935c.4794-.2939.8522-.5869,1.322-.8965l-.2621-.987c-.5696-.0369-1.0563-.0871-1.6239-.0769a6.0182,6.0182,0,0,0-1.0485.0745,2.70618,2.70618,0,0,0-.4878.149,3.32616,3.32616,0,0,0-.4611.2452,5.99936,5.99936,0,0,0-.5313.358c-.2849.2176-.4838.4093-.7615.6386Z"/><path class="cls-11" d="M18.8494,28.9083c.3641-.0083.6393-.0014,1.0014-.0261a5.739,5.739,0,0,0,.6399-.0858,3.66079,3.66079,0,0,0,.5038-.1263,2.3497,2.3497,0,0,0,.4592-.2145,5.98639,5.98639,0,0,0,.8247-.625c.4296-.3629.7539-.7087,1.1716-1.0857l-.4079-.9362c-.5687.0495-1.0573.0733-1.6169.169a6.02878,6.02878,0,0,0-1.0253.2318,2.71078,2.71078,0,0,0-.4597.2209,3.32377,3.32377,0,0,0-.4188.312,5.99881,5.99881,0,0,0-.4713.434c-.2488.2582-.4165.4776-.6564.7463Z"/><path class="cls-11" d="M14.955,29.6721c.3618-.0412.6365-.0593.995-.1166a5.74278,5.74278,0,0,0,.6295-.1433,3.65854,3.65854,0,0,0,.4902-.1714,2.35594,2.35594,0,0,0,.438-.255,6.00808,6.00808,0,0,0,.7648-.6971c.395-.4003.6867-.774,1.0686-1.1872l-.4909-.8955c-.5619.1008-1.0464.1687-1.595.3146a6.02148,6.02148,0,0,0-1.0001.3235,2.70658,2.70658,0,0,0-.4379.2616,3.325,3.325,0,0,0-.3889.3486,5.98136,5.98136,0,0,0-.43.4749c-.2245.2795-.3716.5133-.5863.8025Z"/><path class="cls-11" d="M11.2394,30.7117c.3491-.1036.6164-.1693.9594-.2882a5.75188,5.75188,0,0,0,.5949-.2508,3.67014,3.67014,0,0,0,.4529-.2543,2.35877,2.35877,0,0,0,.3868-.3275,6.00032,6.00032,0,0,0,.6315-.8196c.3192-.4631.5413-.882.8454-1.3554l-.6396-.7962c-.5357.1972-1.0009.3485-1.5157.5878a6.01907,6.01907,0,0,0-.9284.493,2.70386,2.70386,0,0,0-.3856.3339,3.31433,3.31433,0,0,0-.3222.411,5.95965,5.95965,0,0,0-.3406.5426c-.1723.3144-.2765.5702-.4374.8924Z"/><path class="cls-12" d="M30.304,19.85493c.3347.14347.5823.26394.922.39171a5.74581,5.74581,0,0,0,.6178.18746,3.66659,3.66659,0,0,0,.5108.094,2.35329,2.35329,0,0,0,.5068-.00456,6.00092,6.00092,0,0,0,1.0097-.22653c.5414-.152.98-.33215,1.5165-.50179l.0172-1.02111c-.538-.19086-.9925-.37194-1.5413-.517a6.02024,6.02024,0,0,0-1.029-.21444,2.70362,2.70362,0,0,0-.51.01023,3.32467,3.32467,0,0,0-.5105.11009,5.99237,5.99237,0,0,0-.6089.19946c-.3334.13162-.5771.26174-.9068.4066Z"/><path class="cls-12" d="M19.0108,21.27156c.3544.08362.619.1596.9757.22691a5.74257,5.74257,0,0,0,.6409.07815,3.67012,3.67012,0,0,0,.5193.00454,2.35374,2.35374,0,0,0,.4985-.09187,6.00029,6.00029,0,0,0,.9555-.39719c.5071-.24308.908-.4961,1.4072-.75569l-.159-1.00879c-.5629-.09526-1.0418-.19527-1.6074-.24356a6.01965,6.01965,0,0,0-1.0506-.03386,2.70718,2.70718,0,0,0-.5006.098,3.32784,3.32784,0,0,0-.4838.19645,5.98763,5.98763,0,0,0-.5654.30142c-.3058.18715-.5233.35731-.8232.55684Z"/><path class="cls-12" d="M40.8906,20.62391a10.42393,10.42393,0,0,0,1.1537.82128,7.79572,7.79572,0,0,0,1.2012.59541,4.057,4.057,0,0,0,.6025.1695,8.20668,8.20668,0,0,0,.9369.1053c.9119.0669,1.7021.0385,2.3525.1104l.3587-.95617a16.0668,16.0668,0,0,0-1.763-1.09208,9.92208,9.92208,0,0,0-1.2128-.55951,4.39175,4.39175,0,0,0-.6302-.16684,6.2224,6.2224,0,0,0-.6459-.07166c-.2828-.01933-.53-.02248-.7959-.02234-.4678.00471-.8279.04425-1.1989.04179Z"/><path class="cls-12" d="M50.8348,24.5093a8.95267,8.95267,0,0,0,1.0012,1.0435,7.42006,7.42006,0,0,0,1.0978.8097,3.13956,3.13956,0,0,0,.5734.2714,8.154,8.154,0,0,0,.9062.2731c.887.2246,1.6709.3288,2.2854.5408l.5542-.8578a12.74366,12.74366,0,0,0-1.5659-1.4267,9.33851,9.33851,0,0,0-1.1105-.7658,4.4106,4.4106,0,0,0-.591-.2766,6.33126,6.33126,0,0,0-.6322-.1838c-.2704-.0691-.5182-.1174-.7717-.1625-.4606-.0864-.826-.1069-1.1779-.1902Z"/><path class="cls-12" d="M59.842,30.2236a11.045,11.045,0,0,0,.8601,1.1005,7.8542,7.8542,0,0,0,.9706.917,3.42335,3.42335,0,0,0,.5262.3322,7.14062,7.14062,0,0,0,.8579.3701c.8505.3236,1.6146.5234,2.224.774l.6092-.8197a16.30168,16.30168,0,0,0-1.3692-1.5336,9.46,9.46,0,0,0-.9873-.8841,4.22507,4.22507,0,0,0-.5536-.3373,5.14357,5.14357,0,0,0-.5962-.2604c-.2621-.0952-.4973-.171-.7485-.2428-.4492-.1291-.809-.1966-1.1649-.3016Z"/><path class="cls-12" d="M68.1822,36.6126c.19.3355.3718.6771.6414,1.0984.1471.227.2983.4459.4802.675a6.33225,6.33225,0,0,0,.4372.5155,4.23628,4.23628,0,0,0,.4987.4339,11.385,11.385,0,0,0,1.1446.706c.697.3951,1.3123.6673,1.809.9416l.6997-.7438c-.3105-.493-.6721-1.078-1.1624-1.7326a9.75839,9.75839,0,0,0-.8643-1.0412,3.97783,3.97783,0,0,0-.5068-.4379c-.184-.133-.3761-.2497-.5662-.3602-.2555-.1433-.4886-.26-.7339-.3726-.4435-.2067-.8033-.3358-1.1508-.4893Z"/><path class="cls-12" d="M75.9375,43.9658c.1531.3497.2858.6973.5032,1.1251.1169.2353.2373.4564.3861.7009a5.06379,5.06379,0,0,0,.3689.5391,4.17793,4.17793,0,0,0,.4394.4698,9.72509,9.72509,0,0,0,1.0393.7867c.6274.4366,1.1906.7521,1.6612,1.0688l.7677-.6734c-.258-.518-.5372-1.1141-.9364-1.7854A9.19142,9.19142,0,0,0,79.4411,45.1a3.592,3.592,0,0,0-.4456-.4684,5.12971,5.12971,0,0,0-.5121-.3968,7.7804,7.7804,0,0,0-.6691-.4304c-.4126-.2371-.7468-.3927-1.0765-.5726Z"/><path class="cls-12" d="M82.806,52.1147c.1102.3694.2117.7494.3844,1.2297.0927.2542.1911.5013.3113.7724a5.92717,5.92717,0,0,0,.318.606,4.43792,4.43792,0,0,0,.391.5536,11.55951,11.55951,0,0,0,.9631.9663c.5959.5566,1.1395.9753,1.5659,1.3566l.8483-.5686c-.1989-.5493-.4183-1.2103-.7512-1.9708a10.81671,10.81671,0,0,0-.6121-1.2338,4.72455,4.72455,0,0,0-.3968-.5466,5.86154,5.86154,0,0,0-.479-.4899c-.2112-.2038-.4157-.3725-.6303-.5435-.3938-.3129-.7198-.5285-1.0242-.7558Z"/><path class="cls-12" d="M89.3057,61.3248c.0687.3755.1276.7606.2474,1.2464.0629.2654.1324.5181.2276.7967A4.72015,4.72015,0,0,0,90.0255,64a3.95845,3.95845,0,0,0,.326.584,11.43917,11.43917,0,0,0,.8467,1.053c.5295.608,1.0244,1.0768,1.4096,1.4996l.9019-.4792c-.1386-.5634-.2862-1.2401-.5301-2.0208a10.5279,10.5279,0,0,0-.4702-1.2769,4.51266,4.51266,0,0,0-.3357-.5808,5.70408,5.70408,0,0,0-.4169-.533c-.1925-.221-.3723-.4098-.5683-.6018-.3534-.3449-.6557-.5926-.9353-.8498Z"/><path class="cls-12" d="M94.2742,70.6054a13.64585,13.64585,0,0,0,.1238,1.4152,8.20157,8.20157,0,0,0,.3039,1.3344,3.939,3.939,0,0,0,.2526.5843,7.72048,7.72048,0,0,0,.5149.8209c.5456.7858,1.0794,1.4136,1.4577,1.9589l.9571-.36c-.0669-.5827-.146-1.2713-.3077-2.0752a9.91191,9.91191,0,0,0-.3385-1.3194,4.471,4.471,0,0,0-.2721-.6097,5.62245,5.62245,0,0,0-.3621-.5693c-.1645-.2368-.3232-.4436-.4947-.652-.3124-.3769-.5862-.6509-.829-.9372Z"/><path class="cls-12" d="M97.9368,80.4146c-.0076.3829-.0311.792-.0132,1.3101.0066.2767.0272.5499.0586.8489.0307.2292.0614.4583.1149.6893a4.73572,4.73572,0,0,0,.202.6562,11.30285,11.30285,0,0,0,.6176,1.2481c.4029.735.7932,1.3213,1.0743,1.8197l.984-.2733c-.0162-.5839-.0187-1.3007-.104-2.1491a12.02987,12.02987,0,0,0-.2017-1.3854,4.97952,4.97952,0,0,0-.2146-.6591,5.16185,5.16185,0,0,0-.3017-.6257c-.1414-.2676-.2811-.4984-.4335-.7321-.2804-.4286-.5294-.7473-.743-1.0612Z"/><path class="cls-12" d="M100.5724,90.6633a12.67271,12.67271,0,0,0-.2127,1.4801,9.13781,9.13781,0,0,0-.0132,1.4354,4.45678,4.45678,0,0,0,.1134.6669,8.43009,8.43009,0,0,0,.3138.9644c.3534.9526.7376,1.7432.958,2.3698l1.0151-.1118c.076-.5833.1616-1.3195.1909-2.2006a11.79266,11.79266,0,0,0-.0283-1.4278,5.11383,5.11383,0,0,0-.1241-.6922,6.17644,6.17644,0,0,0-.2197-.6716c-.1067-.2874-.216-.5341-.3349-.7916-.2182-.4687-.4213-.8196-.5818-1.1637Z"/><path class="cls-12" d="M101.9763,101.0978c-.1332.3537-.2807.6874-.4239,1.1332-.0844.2472-.1521.4856-.2165.7561a5.22259,5.22259,0,0,0-.1156.632,4.07693,4.07693,0,0,0-.0201.6366,10.28648,10.28648,0,0,0,.1814,1.2741c.1428.7419.32,1.3574.4407,1.9164l1.0246.0458c.1732-.5522.3896-1.1576.5762-1.9016a8.881,8.881,0,0,0,.2532-1.2696,3.57984,3.57984,0,0,0,.0158-.6354,5.20321,5.20321,0,0,0-.0841-.6388,7.67647,7.67647,0,0,0-.1783-.7707c-.1218-.4503-.2537-.7896-.3678-1.1523Z"/><path class="cls-12" d="M101.4137,111.5589c-.2318.2809-.4171.4845-.6353.7746a5.73969,5.73969,0,0,0-.3538.54,3.68092,3.68092,0,0,0-.2339.4637,2.3566,2.3566,0,0,0-.1383.4877,6.0071,6.0071,0,0,0-.0668,1.0326c-.0064.5623.043,1.0338.0548,1.5964l.975.3038c.3346-.4625.6362-.8477.9299-1.3335a6.0096,6.0096,0,0,0,.4953-.9271,2.70177,2.70177,0,0,0,.1337-.4922,3.31732,3.31732,0,0,0,.038-.5208,5.98426,5.98426,0,0,0-.02-.6404c-.0325-.3571-.0888-.6275-.135-.9847Z"/><path class="cls-12" d="M98.3554,120.5191c-.2546.2603-.4563.4477-.6982.7184a5.75625,5.75625,0,0,0-.3978.5084,3.67148,3.67148,0,0,0-.2721.4424,2.35259,2.35259,0,0,0-.1788.4743,5.99253,5.99253,0,0,0-.1533,1.0234c-.0537.5597-.0441,1.0338-.0796,1.5953l.946.3847c.3722-.4327.7052-.7912,1.0387-1.2506a6.02655,6.02655,0,0,0,.5715-.8822,2.71558,2.71558,0,0,0,.1746-.4793,3.32625,3.32625,0,0,0,.0816-.5158,5.98211,5.98211,0,0,0,.0339-.6398c-.0024-.3585-.0358-.6326-.0518-.9924Z"/><path class="cls-12" d="M39.9486,10.75748c.3346.14467.5857.26514.9236.38976a5.28493,5.28493,0,0,0,.6189.1887,3.39039,3.39039,0,0,0,.5092.09526,2.67608,2.67608,0,0,0,.5068-.00459,6.48826,6.48826,0,0,0,1.0116-.229c.5383-.14761.9802-.33022,1.516-.5011l.0158-1.01971c-.5393-.19209-.989-.37124-1.5392-.52195A6.694,6.694,0,0,0,42.483,8.948a2.35492,2.35492,0,0,0-.5155.007,3.23068,3.23068,0,0,0-.5071.11007,5.96618,5.96618,0,0,0-.6073.20072c-.3339.13282-.5751.25859-.9092.40588Z"/><path class="cls-12" d="M28.7019,12.17533c.3508.08148.6135.15944.9702.22261a5.21892,5.21892,0,0,0,.6391.08013,3.33938,3.33938,0,0,0,.5154.00653,2.63751,2.63751,0,0,0,.4958-.09189,6.40413,6.40413,0,0,0,.9517-.40111c.5021-.239.9036-.496,1.3971-.75142l-.1604-1.01242c-.5595-.09311-1.0352-.191-1.6004-.24533a6.35415,6.35415,0,0,0-1.0433-.02757,2.6112,2.6112,0,0,0-.5017.09994,2.72373,2.72373,0,0,0-.4761.19035,5.80978,5.80978,0,0,0-.5604.30339c-.3104.187-.523.35719-.8209.55866Z"/><path class="cls-12" d="M49.9,11.6032c.3024.24015.582.4742.9658.74277.2143.14728.4243.28509.6666.42049a5.20946,5.20946,0,0,0,.5709.28594,3.58055,3.58055,0,0,0,.602.19654,10.07584,10.07584,0,0,0,1.2625.17767c.735.073,1.363.0701,1.9338.12278l.3578-.9589c-.4818-.3393-1.0034-.7179-1.6575-1.10553a9.21109,9.21109,0,0,0-1.1409-.59922,3.7078,3.7078,0,0,0-.6068-.18778,4.97561,4.97561,0,0,0-.6286-.09776c-.2739-.02781-.5209-.04009-.7774-.04387-.4579-.00839-.8164.01746-1.1923.01928Z"/><path class="cls-12" d="M59.6603,15.13253c.3399.333.6226.62553.9797.9443.2257.19941.4423.38176.6865.56246a5.81369,5.81369,0,0,0,.5969.4119,5.14685,5.14685,0,0,0,.6456.33,12.66882,12.66882,0,0,0,1.3795.45054c.7245.20889,1.4126.34972,2.143.53627l.4795-.90252c-.5738-.50114-1.0919-.98148-1.6938-1.45237a11.84838,11.84838,0,0,0-1.1946-.848,4.67819,4.67819,0,0,0-.6478-.32106c-.2261-.094-.458-.16565-.69-.23733-.2898-.08352-.5642-.14825-.8598-.20951-.4619-.09956-.8688-.14973-1.3352-.23145Z"/><path class="cls-12" d="M69.8038,21.12672c.2324.30972.4546.635.7725,1.02368.1771.2128.3484.4139.5544.6275a5.93938,5.93938,0,0,0,.4961.4671,4.15184,4.15184,0,0,0,.5551.392,10.88487,10.88487,0,0,0,1.2311.5966c.7473.3263,1.4046.5433,1.9404.76l.6021-.8279c-.3759-.448-.8013-.9955-1.3643-1.5973a10.54777,10.54777,0,0,0-.9879-.96146,4.26591,4.26591,0,0,0-.5565-.38773,5.95,5.95,0,0,0-.6127-.30687c-.2708-.1214-.5213-.21626-.7834-.30564-.4749-.16588-.857-.25992-1.2247-.368Z"/><path class="cls-12" d="M78.3359,27.5208c.1916.3313.3692.6708.6325,1.0779a8.12261,8.12261,0,0,0,.4673.6688,6.21224,6.21224,0,0,0,.4319.5053,4.20631,4.20631,0,0,0,.4911.4338,11.07485,11.07485,0,0,0,1.1305.6938c.6819.3868,1.2887.6509,1.8039.9252l.6875-.7541c-.3211-.4909-.6691-1.0656-1.1415-1.7018a10.353,10.353,0,0,0-.8522-1.0351,4.41342,4.41342,0,0,0-.4972-.4317,5.50224,5.50224,0,0,0-.5644-.3541c-.2496-.1433-.4777-.2558-.7203-.3705-.4414-.2026-.7968-.3276-1.1508-.4771Z"/><path class="cls-12" d="M86.3093,34.8731c.1675.3521.3256.7197.5646,1.1688.1295.244.2636.4802.4214.731a6.16309,6.16309,0,0,0,.4017.5652,4.75653,4.75653,0,0,0,.47.496,11.18111,11.18111,0,0,0,1.0962.8391c.6768.475,1.2819.8263,1.7635,1.1494l.757-.689c-.2796-.5165-.5926-1.1489-1.0358-1.8615a10.70968,10.70968,0,0,0-.784-1.1449,4.3581,4.3581,0,0,0-.4763-.4946,6.08571,6.08571,0,0,0-.5422-.4293c-.2433-.1709-.4698-.3157-.7089-.4576-.4386-.2594-.7948-.4311-1.1355-.6196Z"/><path class="cls-12" d="M93.4243,43.0238c.1239.3658.2283.7564.4053,1.2344.0982.2642.1975.5119.3258.783a5.74033,5.74033,0,0,0,.3213.6172,4.20633,4.20633,0,0,0,.3981.5577,11.45175,11.45175,0,0,0,.9759.9939c.614.5695,1.1717,1.0011,1.613,1.3853l.8326-.585c-.2116-.5464-.4358-1.2186-.7793-1.9867a11.23259,11.23259,0,0,0-.6283-1.2521,4.82631,4.82631,0,0,0-.4046-.5572,6.17286,6.17286,0,0,0-.4852-.5004c-.2181-.2103-.4248-.3826-.6453-.56-.4003-.3165-.7371-.5414-1.0519-.7716Z"/><path class="cls-12" d="M100.1986,52.2365c.0799.3754.1405.7573.2649,1.2397.0644.2655.1349.5181.2286.7934a6.32668,6.32668,0,0,0,.2474.6287,4.58034,4.58034,0,0,0,.3304.584,11.72816,11.72816,0,0,0,.8553,1.0496c.5347.6079,1.0337,1.0734,1.4315,1.4962l.8937-.4985c-.1523-.5667-.3004-1.2367-.5511-2.0076a10.56273,10.56273,0,0,0-.4759-1.2767,4.06225,4.06225,0,0,0-.34-.5808,5.84924,5.84924,0,0,0-.4198-.5328c-.1926-.2211-.3781-.4098-.5733-.6018-.3603-.3417-.6636-.5893-.9539-.8433Z"/><path class="cls-12" d="M105.4441,61.5202c.0365.3783.046.7661.103,1.264.0347.2676.0701.5289.1286.8191a6.4019,6.4019,0,0,0,.1678.6586,4.04853,4.04853,0,0,0,.2496.6238,10.9616,10.9616,0,0,0,.7162,1.1657c.453.6764.8874,1.214,1.2376,1.6821l.9425-.3865c-.0848-.5763-.1422-1.2627-.2921-2.0651a10.98461,10.98461,0,0,0-.3079-1.333,4.86065,4.86065,0,0,0-.2589-.6283,6.012,6.012,0,0,0-.3542-.5888c-.161-.2452-.3187-.4575-.4922-.6751-.3153-.3953-.5859-.6841-.8436-.9712Z"/><path class="cls-12" d="M109.4016,71.3293c.0126.3881-.0063.8186.0208,1.3682.0124.2893.0322.5737.0726.8891.0287.2403.0637.4821.1177.7282a5.22671,5.22671,0,0,0,.2128.7002,12.059,12.059,0,0,0,.6372,1.3365c.4212.8033.8342,1.4468,1.1289,1.9514l.9745-.2998c-.0412-.5791-.055-1.3463-.1517-2.2475a12.08579,12.08579,0,0,0-.2203-1.4661,4.96352,4.96352,0,0,0-.2128-.7002,7.03217,7.03217,0,0,0-.3142-.6738c-.1493-.2841-.2922-.5338-.449-.7801-.297-.4755-.5595-.8248-.7838-1.1489Z"/><path class="cls-12" d="M112.3418,81.5797c-.0601.3827-.131.7851-.1814,1.3095a8.43306,8.43306,0,0,0-.0433.8583,6.16516,6.16516,0,0,0,.0277.697,4.405,4.405,0,0,0,.1205.6825,11.47018,11.47018,0,0,0,.4594,1.3215c.3097.7823.6245,1.4116.836,1.9445l1.0128-.1425c.0605-.579.1421-1.2977.1649-2.1572a11.36282,11.36282,0,0,0-.0325-1.409,4.418,4.418,0,0,0-.1306-.6831,6.17219,6.17219,0,0,0-.2214-.6643c-.1073-.2808-.2198-.5292-.3384-.7801-.2242-.462-.4316-.8105-.6046-1.1487Z"/><path class="cls-12" d="M114.0545,92.0142c-.1352.3426-.2645.6219-.3897,1.0001-.0732.2272-.1337.4324-.1855.6685a3.42362,3.42362,0,0,0-.0902.5544,2.92419,2.92419,0,0,0,.0029.5501,7.66854,7.66854,0,0,0,.2295,1.0912c.1597.6055.3494,1.099.505,1.6391l1.023.0181c.1768-.5478.3648-1.0556.513-1.6721a6.2894,6.2894,0,0,0,.208-1.111,2.716,2.716,0,0,0-.0086-.5534,3.29535,3.29535,0,0,0-.1103-.5466,5.79689,5.79689,0,0,0-.2035-.661c-.1362-.3693-.2695-.6444-.4059-.9804Z"/><path class="cls-12" d="M113.8013,102.4746c-.2234.2854-.4026.489-.612.7883a4.62837,4.62837,0,0,0-.3376.5446,3.53232,3.53232,0,0,0-.2202.4637,2.613,2.613,0,0,0-.1237.4877,6.43576,6.43576,0,0,0-.0362,1.028c.0102.5577.0735,1.0247.102,1.5826l.9835.2765c.3207-.4671.6063-.8569.89-1.3473a5.87856,5.87856,0,0,0,.4631-.9362,2.20761,2.20761,0,0,0,.1236-.4923,3.20877,3.20877,0,0,0,.0227-.5116,4.90646,4.90646,0,0,0-.0436-.6359c-.0385-.357-.1028-.6228-.1595-.9754Z"/><path class="cls-12" d="M111.0139,111.4348c-.2469.2603-.4433.4522-.6729.7279a5.58315,5.58315,0,0,0-.383.513,2.867,2.867,0,0,0-.2593.4469,2.43524,2.43524,0,0,0-.1692.4739,6.361,6.361,0,0,0-.118,1.0192c-.0413.5548-.0127,1.0247-.0358,1.5813l.9593.3574c.3596-.4373.6774-.7963,1.0023-1.2644a5.80015,5.80015,0,0,0,.541-.8871,2.54406,2.54406,0,0,0,.1604-.4793,3.8768,3.8768,0,0,0,.0705-.5108,5.87988,5.87988,0,0,0,.01-.6357c-.013-.3585-.0551-.6235-.0773-.9829Z"/></g></g></g></g></svg>