<svg xmlns="http://www.w3.org/2000/svg" xmlns:xlink="http://www.w3.org/1999/xlink" viewBox="0 0 172.70374 191.16698"><defs><style>.cls-1{mask:url(#mask);filter:url(#luminosity-noclip-2);}.cls-2{mix-blend-mode:multiply;fill:url(#linear-gradient);}.cls-3{fill:url(#linear-gradient-2);}.cls-4{fill:url(#linear-gradient-3);}.cls-5{fill:url(#linear-gradient-4);}.cls-6{fill:url(#linear-gradient-5);}.cls-7{fill:url(#linear-gradient-6);}.cls-8{fill:url(#linear-gradient-7);}.cls-9{fill:url(#linear-gradient-8);}.cls-10{mask:url(#mask-2);}.cls-11{fill:url(#linear-gradient-9);}.cls-12{fill:#6fc9f3;}.cls-13{filter:url(#luminosity-noclip);}</style><filter id="luminosity-noclip" x="48.20849" y="-8211.11027" width="56.36388" height="32766" filterUnits="userSpaceOnUse" color-interpolation-filters="sRGB"><feFlood flood-color="#fff" result="bg"/><feBlend in="SourceGraphic" in2="bg"/></filter><mask id="mask" x="48.20849" y="-8211.11027" width="56.36388" height="32766" maskUnits="userSpaceOnUse"><g class="cls-13"/></mask><linearGradient id="linear-gradient" x1="-147.0484" y1="228.39148" x2="-142.85169" y2="228.62315" gradientTransform="matrix(7.8298, -11.1849, -11.8961, -7.3618, 3920.67027, 111.98608)" gradientUnits="userSpaceOnUse"><stop offset="0"/><stop offset="0.5" stop-color="#fff"/><stop offset="1"/></linearGradient><linearGradient id="linear-gradient-2" x1="-142.81101" y1="226.74833" x2="-138.61432" y2="226.74833" gradientTransform="matrix(14.8428, -0.726, -0.7259, -14.8428, 2382.64745, 3371.4559)" gradientUnits="userSpaceOnUse"><stop offset="0" stop-color="#cbcbcb"/><stop offset="1" stop-color="#898989"/></linearGradient><linearGradient id="linear-gradient-3" x1="81.8022" y1="121.1197" x2="164.39577" y2="83.0348" gradientTransform="translate(7.4026)" gradientUnits="userSpaceOnUse"><stop offset="0" stop-color="#d7d7d7"/><stop offset="1" stop-color="#929292"/></linearGradient><linearGradient id="linear-gradient-4" x1="-145.75309" y1="229.25093" x2="-141.55639" y2="229.2451" gradientTransform="matrix(30.7571, 0.2423, 0.2613, -28.5121, 4451.40838, 6653.69462)" gradientUnits="userSpaceOnUse"><stop offset="0" stop-color="#3f94ba"/><stop offset="1" stop-color="#135f81"/></linearGradient><linearGradient id="linear-gradient-5" x1="79.01997" y1="89.97162" x2="78.10232" y2="11.96656" gradientTransform="translate(7.4026)" xlink:href="#linear-gradient-4"/><linearGradient id="linear-gradient-6" x1="105.75527" y1="67.57493" x2="66.22836" y2="85.79834" gradientTransform="translate(7.4026)" gradientUnits="userSpaceOnUse"><stop offset="0" stop-color="#21607c"/><stop offset="1" stop-color="#3687ab"/></linearGradient><linearGradient id="linear-gradient-7" x1="-146.52891" y1="227.96764" x2="-142.33222" y2="227.96764" gradientTransform="matrix(6.2401, -11.0767, -11.0766, -6.2401, 3506.32706, -130.52034)" gradientUnits="userSpaceOnUse"><stop offset="0" stop-color="#3f94ba"/><stop offset="1" stop-color="#2ba8e0"/></linearGradient><linearGradient id="linear-gradient-8" x1="92.84266" y1="34.76183" x2="64.73011" y2="51.37378" gradientTransform="translate(7.4026)" gradientUnits="userSpaceOnUse"><stop offset="0" stop-color="#2a7b9f"/><stop offset="1" stop-color="#3295c1"/></linearGradient><filter id="luminosity-noclip-2" x="48.20849" y="9.76347" width="56.36388" height="69.4227" filterUnits="userSpaceOnUse" color-interpolation-filters="sRGB"><feFlood flood-color="#fff" result="bg"/><feBlend in="SourceGraphic" in2="bg"/></filter><mask id="mask-2" x="48.20849" y="9.76347" width="56.36388" height="69.4227" maskUnits="userSpaceOnUse"><g class="cls-1"><path class="cls-2" d="M57.44776,77.67737c-3.5708-19.4588,4.7641-31.0308,17.0219-40.7419,8.9019-7.0502,19.7698-13.1677,30.1027-20.2819l-4.7413-6.8901c-10.493,7.2239-21.5163,13.4557-30.5553,20.6156-14.649,11.6085-24.319,25.5534-20.0532,48.8071Z"/></g></mask><linearGradient id="linear-gradient-9" x1="-147.0484" y1="228.39148" x2="-142.85169" y2="228.62315" gradientTransform="matrix(7.8298, -11.1849, -11.8961, -7.3618, 3920.67027, 111.98608)" gradientUnits="userSpaceOnUse"><stop offset="0" stop-color="#71cbf4"/><stop offset="0.5" stop-color="#71cbf4"/><stop offset="1" stop-color="#71cbf4"/></linearGradient></defs><title>Asset 3</title><g id="Layer_2" data-name="Layer 2"><g id="balls"><path class="cls-3" d="M13.19956,64.50707c-9.3499,13.8-13.4694,28.0102-13.1859,41.8289.0503,2.4282.3383,14.7928.6584,17.1977,1.7236,13.0171,7.3199,25.5588,16.08,36.9214,32.3476,41.9874,107.03276,40.2956,139.417-1.2304,9.167-11.7495,15.1976-24.8458,16.3863-38.6738.2058-2.3723.1646-14.7136.0732-17.1277-.4709-12.5511-5.0384-25.6008-14.9142-38.7111C122.02916,17.351,44.92986,17.68187,13.19956,64.50707Z"/><path class="cls-4" d="M137.13076,138.65157c-9.0436,5.7517-19.74229,8.9751-30.88447,10.9593a121.84386,121.84386,0,0,1-21.93233,1.6186c-10.9776-.0686-21.9918-1.3762-32.343-4.8236a80.46054,80.46054,0,0,1-19.6692-9.0939c-12.2806-7.6903-21.7403-17.7215-27.5834-31.3281a89.3786,89.3786,0,0,1-3.9212-11.1148,65.0814,65.0814,0,0,0-.7835,11.4669c.0503,2.4282.3383,14.7928.6584,17.1977a70.50838,70.50838,0,0,0,5.3035,18.8529,105.649,105.649,0,0,0,12.1527,13.3601,99.52248,99.52248,0,0,0,37.8158,20.2407,102.31809,102.31809,0,0,0,28.2373,3.9502,103.78756,103.78756,0,0,0,28.15041-3.9136,100.7397,100.7397,0,0,0,37.77919-19.7789,99.41529,99.41529,0,0,0,20.3363-24.2359,61.549,61.549,0,0,0,2.1081-11.4583c.2058-2.3723.1646-14.7136.0732-17.1278a58.46812,58.46812,0,0,0-.7197-7.1956q-1.37445,3.52215-2.9334,6.8989A78.16639,78.16639,0,0,1,137.13076,138.65157Z"/><path class="cls-5" d="M26.34016,55.24847c-16.3376,19.8633-13.2164,40.9709,2.8286,58.1252,26.5452,28.3776,87.85893,25.8734,114.4342-2.1923,15.516-16.389,20.059-35.2979,1.313-55.7943C115.63591,23.37767,52.37516,23.60127,26.34016,55.24847Z"/><path class="cls-6" d="M26.34016,55.24847c-6.9255,8.42-10.353,17.0635-10.7832,25.5348.8173,9.7969,5.5901,19.2558,13.5313,27.7462,26.5453,28.3775,87.859,25.8733,114.4343-2.1924,7.887-8.3307,12.9356-17.313,13.5345-26.8235-.7552-7.7386-4.5271-15.8016-12.1411-24.1265C115.63591,23.37767,52.37516,23.60127,26.34016,55.24847Z"/><path class="cls-7" d="M144.916,55.38707a64.81045,64.81045,0,0,0-12.0739-10.2552c-19.31963,13.7738-38.8995,28.7031-65.0698,33.619l3.3467,17.8083c30.4964-5.7293,53.02936-23.4656,75.6088-39.108Q145.85971,56.42172,144.916,55.38707Z"/><path class="cls-8" d="M77.96526,88.74967c-7.2007-3.5838-6.8381-13.3156-7.0214-21.0713a20.774,20.774,0,0,1,2.5265-10.0181c1.6059-3.2426,6.065-6.6852,11.3809-10.7356,10.6398-8.1046,24.96573-16.9189,37.24728-25.0275,8.82272-5.8266-3.00061-27.6742-13.94729-20.4479-15.00729,9.9123-32.87579,20.8988-44.189,30.4542-6.3162,5.3325-10.8032,10.5513-12.991,14.9741a44.04936,44.04936,0,0,0-5.0488,21.3732c.1952,8.1635.8926,14.3194-3.7817,20.8439C44.16106,113.85557,80.11716,106.30767,77.96526,88.74967Z"/><path class="cls-9" d="M74.25466,42.48167a21.35065,21.35065,0,0,0-3.1341,22.2435,23.18809,23.18809,0,0,1,2.3498-7.0649c1.6059-3.2426,6.0651-6.6852,11.3809-10.7356,10.6398-8.1046,24.96573-16.919,37.24728-25.0275,3.99032-2.6353,3.75692-8.5477,1.29184-13.5653-4.68034,3.0667-9.295,6.0633-13.67457,8.7793C97.65926,24.58657,83.49946,31.41267,74.25466,42.48167Z"/><g class="cls-10"><path class="cls-11" d="M57.44776,77.67737c-3.5708-19.4588,4.7641-31.0308,17.0219-40.7419,8.9019-7.0502,19.7698-13.1677,30.1027-20.2819l-4.7413-6.8901c-10.493,7.2239-21.5163,13.4557-30.5553,20.6156-14.649,11.6085-24.319,25.5534-20.0532,48.8071Z"/></g><path class="cls-12" d="M17.58756,70.96057a34.91179,34.91179,0,0,0,2.4507,26.2667,48.946,48.946,0,0,0,11.2839,14.2741,56.70614,56.70614,0,0,0,5.3722,4.2292,60.13778,60.13778,0,0,0,5.8066,3.5754,74.57973,74.57973,0,0,0,12.4772,5.267,87.68915,87.68915,0,0,0,19.7515,3.8726,88.42785,88.42785,0,0,0,19.8977-.6721,92.62748,92.62748,0,0,1-19.5777-1.7009,98.88046,98.88046,0,0,1-18.6084-5.5185,95.70626,95.70626,0,0,1-11.5262-5.6054c-1.8701-1.0652-3.6852-2.1671-5.4317-3.3239-1.7923-1.1841-3.516-2.4186-5.1528-3.7034a50.658,50.658,0,0,1-11.4531-12.3126A34.23564,34.23564,0,0,1,17.58756,70.96057Z"/></g></g></svg>