<svg xmlns="http://www.w3.org/2000/svg" xmlns:xlink="http://www.w3.org/1999/xlink" viewBox="0 0 147.458 147.4581"><defs><style>.cls-1{fill:url(#radial-gradient);}.cls-2{fill:url(#linear-gradient);}.cls-3{fill:#3482ce;}</style><radialGradient id="radial-gradient" cx="-517.3011" cy="373.96918" r="0.22104" gradientTransform="matrix(203.50959, 520.569, -520.5695, 203.51089, 300004.82561, 193230.87956)" gradientUnits="userSpaceOnUse"><stop offset="0" stop-color="#de7373"/><stop offset="0.54865" stop-color="#d54040"/><stop offset="1" stop-color="#b52222"/></radialGradient><linearGradient id="linear-gradient" x1="61.90674" y1="42.9861" x2="26.42958" y2="141.53364" gradientTransform="translate(7.4026)" gradientUnits="userSpaceOnUse"><stop offset="0" stop-color="#d7d7d7"/><stop offset="1" stop-color="#c4c4c4"/></linearGradient></defs><title>Asset 12</title><g id="Layer_2" data-name="Layer 2"><g id="balls"><circle class="cls-1" cx="73.729" cy="73.72903" r="73.72904"/><path class="cls-2" d="M109.9108,9.479c-16.3454-6.88777-33.2793-5.81635-48.50249.64568C47.6077,15.98209,35.1611,26.3549,26.0277,39.2541A88.94862,88.94862,0,0,0,11.9522,70.7175c-3.8771,17.0489-2.5187,35.1208,6.0822,51.3242a74.13515,74.13515,0,0,0,13.7551,12.3276C19.4814,118.5762,16.0851,100.4711,18.616,83.1114c1.98531-13.6098,7.8108-26.6219,15.8351-37.8864,8.17621-11.4775,18.6705-21.1013,30.6624-27.00834,17.9824-8.85935,38.984-9.59742,59.14681,4.16684l1.01349-1.3644A73.9839,73.9839,0,0,0,109.9108,9.479Z"/><path class="cls-3" d="M126.1558,21.8942c-18.1953-9.2369-36.1637-9.67463-51.9132-4.18015C59.85431,22.7341,47.2608,32.7086,38.0885,45.4486A85.86134,85.86134,0,0,0,24.0532,76.7998c-4.3928,19.7321-1.7045,41.1619,10.8587,59.6186q2.1972,1.36335,4.4946,2.5743A72.04325,72.04325,0,0,1,26.4138,88.5593,84.9909,84.9909,0,0,1,42.1224,48.3536c8.644-11.9717,20.1845-21.5364,33.5855-26.6134,16.3423-6.1922,35.3273-5.781,54.81541,4.9737Q128.44624,24.2077,126.1558,21.8942Z"/><path class="cls-3" d="M100.975,5.20047A73.2586,73.2586,0,0,0,82.0052.465,66.66414,66.66414,0,0,0,58.6701,4.992C44.235,10.5429,31.45031,20.818,21.9189,33.7022A92.38849,92.38849,0,0,0,6.7654,65.4364a78.95543,78.95543,0,0,0-.7752,37.4398,73.50983,73.50983,0,0,0,5.3714,10.1855C5.5968,97.8641,5.6024,81.5437,9.8302,66.251A93.18491,93.18491,0,0,1,24.787,35.8267C33.95131,23.449,46.0306,13.44126,59.7997,7.85352A63.74676,63.74676,0,0,1,100.975,5.20047Z"/></g></g></svg>