<svg xmlns="http://www.w3.org/2000/svg" xmlns:xlink="http://www.w3.org/1999/xlink" viewBox="0 0 305.3037 308.0724"><defs><style>.cls-1{fill:url(#radial-gradient);}.cls-2{opacity:0.48;}.cls-3,.cls-4{fill:#243b85;fill-opacity:0.43;}.cls-4{opacity:0.45;}.cls-5{fill:#fff;}</style><radialGradient id="radial-gradient" cx="184.40952" cy="331.30271" r="0.2633" gradientTransform="matrix(477.70529, 1024.3616, -1024.3589, 477.70619, 251375.54077, -347100.13535)" gradientUnits="userSpaceOnUse"><stop offset="0" stop-color="#90ddeb"/><stop offset="1" stop-color="#105a67"/></radialGradient></defs><title>Asset 2</title><g id="Layer_2" data-name="Layer 2"><g id="balls"><ellipse class="cls-1" cx="152.65187" cy="154.0362" rx="152.65182" ry="154.0362"/><g class="cls-2"><path class="cls-3" d="M210.7185,18.3574c-13.4252-6.4389-27.3044-8.487-38.5254-6.5524-10.1613,1.7597-18.1461,6.8084-21.9232,14.6523-3.7986,7.9305-2.6924,17.4123,2.3531,26.5177,5.5995,10.1091,16.098,19.7486,29.7638,26.216,13.7449,6.3242,27.8846,8.1851,39.2335,5.9758,10.2494-1.9886,18.2338-7.2624,21.8744-15.2921,3.5834-7.9599,2.3115-17.3518-2.9037-26.2791C234.8408,33.757,224.3314,24.4466,210.7185,18.3574Zm-.6125,1.3153c12.9535,6.322,22.8705,15.575,28.1507,25.2397,4.436,8.1144,5.5736,16.5054,2.1806,23.5384-3.3332,6.9708-10.5264,11.2634-19.5316,12.8801-10.6726,1.9136-23.8895.0519-36.7231-5.9958-12.8976-5.9104-22.8556-14.8225-28.2689-24.2149-4.5857-7.9528-5.9293-16.2469-2.7338-23.3076,3.2147-7.1417,10.3894-11.6871,19.4804-13.5146C183.466,12.1251,196.9482,13.7761,210.106,19.6727Z"/><path class="cls-3" d="M213.0393,13.3785C193.5549,4.0669,173.5118.909,157.3337,3.3556c-14.8521,2.2429-26.4587,9.2271-31.7587,20.3527-5.32,11.2076-3.3671,24.7167,4.3239,37.7323,8.4126,14.2275,23.7221,27.8626,43.4538,37.1525,19.8131,9.1544,40.1063,12.1279,56.4176,9.415,14.9419-2.475,26.5567-9.6925,31.7298-20.9959,5.1047-11.2349,2.9881-24.6468-4.8717-37.4765-8.5498-13.972-23.8871-27.2733-43.5716-36.1946Zm-.6145,1.3196c19.0648,9.1162,33.8097,22.3971,41.9039,36.2117,7.0266,11.9945,9.0187,24.3815,4.1138,34.6783-4.8586,10.2365-15.647,16.4431-29.293,18.5635-15.6567,2.4431-35.0692-.5216-54.002-9.4121-18.9992-8.748-33.7828-21.6912-42.0101-35.2394-7.1774-11.8275-9.3628-24.1128-4.6546-34.4376,4.7355-10.4031,15.5243-16.865,29.253-19.2024,15.7939-2.6985,35.4561.0632,54.7099,8.793Z"/></g><path class="cls-4" d="M154.9263,305.8656a168.34188,168.34188,0,0,1-39.1882-6.8086,177.58857,177.58857,0,0,1-24.8383-9.404,170.184,170.184,0,0,1-50.0971-34.6405,144.92394,144.92394,0,0,1-27.6145-38.2577,154.40153,154.40153,0,0,0,37.9131,52.2887,175.37606,175.37606,0,0,0,38.0229,24.4219,172.50356,172.50356,0,0,0,25.4495,9.555q3.77985,1.08015,7.5609,1.9719a152.61523,152.61523,0,0,0,66.64-1.2593A146.20577,146.20577,0,0,1,154.9263,305.8656Z"/><path class="cls-4" d="M180.029,298.7109c-27.0984.6732-56.6389-5.2608-85.1757-18.7079-27.8662-12.7764-50.9391-30.8527-67.7706-51.2904A145.53086,145.53086,0,0,1,4.5896,191.6615a153.86,153.86,0,0,0,5.2288,16.8396A153.72451,153.72451,0,0,0,24.5993,230.717c16.8142,21.1245,40.2141,39.7567,68.4609,53.1361,29.2401,13.4386,59.4444,19.3679,87.0729,18.2465a152.525,152.525,0,0,0,23.0453-2.6665,150.94532,150.94532,0,0,0,16.8137-7.1229A144.80035,144.80035,0,0,1,180.029,298.7109Z"/><path class="cls-4" d="M222.5538,282.0827c-19.0128,4.8203-40.4274,5.7868-62.7139,2.7156a210.35124,210.35124,0,0,1-60.3145-18.0695c-42.796-19.6398-74.8553-50.891-90.9649-84.2415A121.45553,121.45553,0,0,1,.0947,159.4402q.2079,6.08685.8756,12.0486a128.451,128.451,0,0,0,4.9621,12.2404c15.9417,34.214,48.4003,66.3684,91.7913,86.8682a211.70125,211.70125,0,0,0,61.6049,18.0652c22.7853,2.9222,44.6636,1.5888,63.9784-3.6286a124.2687,124.2687,0,0,0,20.6699-7.5565q5.20635-3.92835,10.0609-8.2848A115.84351,115.84351,0,0,1,222.5538,282.0827Z"/><path class="cls-4" d="M281.5673,236.5617c-13.0213,14.8342-31.4597,25.1419-52.9954,30.5528-19.0408,4.7848-40.477,5.7189-62.7907,2.6126a211.91124,211.91124,0,0,1-60.4345-18.0805c-31.8991-14.6322-57.868-35.6938-75.7743-59.2326C13.5635,171.3844,3.9915,148.353,2.516,126.051q-.69435,3.8175-1.2012,7.6988c2.5601,20.4062,11.4958,41.2632,25.7396,60.5403,17.8977,24.2299,44.1851,45.9105,76.5078,61.1882a212.43955,212.43955,0,0,0,61.6846,18.1695c22.8211,2.9839,44.7461,1.6722,64.1065-3.5464,17.8107-4.7808,33.4609-12.8669,45.6936-23.9981Q278.4795,241.4644,281.5673,236.5617Z"/><path class="cls-4" d="M275.2753,105.2325c6.5868-14.4175,4.128-31.5114-5.4644-47.854a90.02143,90.02143,0,0,0-5.9785-8.8891,153.81336,153.81336,0,0,0-25.9821-22.2838c12.9272,9.6752,23.0819,20.93,29.6415,32.5107,8.792,15.5173,11.124,31.6111,4.7288,45.0935-6.3442,13.4229-20.1821,21.7597-37.6643,24.8021-20.2238,3.5165-45.3171-.0707-69.7078-11.5016-24.4546-11.2938-43.367-28.1775-53.7038-45.915-8.9501-15.3527-11.4695-31.3433-5.2785-44.8613,6.223-13.5864,20.0515-22.1777,37.62-25.43q2.8197-.5244,5.7629-.8639a152.29464,152.29464,0,0,0-18.528,1.5404c-12.723,4.5242-22.5564,12.4273-27.7567,23.402-6.8052,14.3873-4.5197,31.5792,4.9102,48.0963,10.5198,18.4421,29.9563,36.0462,55.1779,47.8879,25.295,11.7091,51.2875,15.2863,72.1877,11.4893C253.9749,129.0441,268.6233,119.715,275.2753,105.2325Z"/><path class="cls-4" d="M288.2681,126.6967c5.5449-12.0938,5.9442-25.7047,1.955-39.4984a154.28854,154.28854,0,0,0-15.4127-25.5467q2.67225,3.9279,4.8994,7.9194c10.6725,19.1313,13.399,38.9927,5.5032,55.7028-7.8505,16.643-24.8453,27.1136-46.2846,31.0394-24.8957,4.5534-55.7784.2981-85.7771-13.7467-30.049-13.9062-53.2144-34.793-65.7672-56.7726C76.5632,66.8291,73.6467,47.0707,81.3453,30.3274A49.85773,49.85773,0,0,1,99.4923,9.6003q-5.0505,1.89345-9.9284,4.1302A50.7803,50.7803,0,0,0,78.43,28.9697c-8.3012,17.6108-5.618,38.5707,5.6759,58.6832,12.7306,22.6952,36.433,44.3178,67.2483,58.7724,30.9063,14.3202,62.7159,18.5656,88.2858,13.7226C262.3317,155.8486,280.1189,144.4075,288.2681,126.6967Z"/><path class="cls-4" d="M295.7537,146.0627a60.84561,60.84561,0,0,0,5.3877-27.8908,153.83536,153.83536,0,0,0-8.6362-25.9704c7.0898,18.2084,7.699,36.5199.1927,52.438-9.0258,19.1734-28.2557,31.4509-52.4673,36.2869-28.401,5.6752-63.6821,1.1364-97.8299-14.8523-34.2196-15.8348-60.4239-39.8974-74.3697-65.2947C56.1259,79.1227,53.1548,56.4887,62.0356,37.2138a55.78687,55.78687,0,0,1,8.2142-12.8653q-3.97875,2.57955-7.7848,5.3981a58.47228,58.47228,0,0,0-3.3404,6.1114c-9.4882,20.1321-6.7421,43.9373,5.5952,66.731,14.1331,26.131,40.8861,50.9426,75.8837,67.344,35.0758,16.2678,71.3033,20.8049,100.4061,14.8271C266.4289,179.5337,286.4302,166.2885,295.7537,146.0627Z"/><path class="cls-4" d="M303.8103,132.4083a71.48548,71.48548,0,0,1,.031,10.9707,62.36772,62.36772,0,0,1-5.8441,22.0881c-10.0319,21.1241-31.3664,34.5649-58.2439,39.7287-19.6712,3.7739-42.311,3.0943-65.7758-2.2875a211.0182,211.0182,0,0,1-41.8035-14.388c-37.7201-17.3254-66.666-43.6857-82.209-71.491C36.7217,93.3056,33.2166,68.5195,42.5848,47.3077q-1.835,1.92645-3.6037,3.9165c-7.5833,20.6511-4.0395,44.3897,8.3499,67.2586,15.4613,28.5861,44.7881,55.7567,83.0694,73.8458a211.1932,211.1932,0,0,0,42.6502,14.6523c24.0642,5.3818,47.2872,5.7933,67.4039,1.6685,27.784-5.7096,49.6107-20.1309,59.6873-42.1836a63.68791,63.68791,0,0,0,5.0764-17.5418A156.33833,156.33833,0,0,0,303.8103,132.4083Z"/><path class="cls-5" d="M34.1876,130.4592,20.713,161.6366l3.1081,5.7552,4.8711-11.2959,4.3465,4.6521,3.167-5.1413-5.0981-5.0914,3.7957-8.5655s7.8449,9.9731,7.7938,10.642c-.0503.6639,2.9874-5.6854,2.9874-5.6854Z"/><path class="cls-5" d="M50.1657,170.0473l-4.8423-4.2828-7.5083,18.5437,4.7575,4.2628Z"/><path class="cls-5" d="M66.3738,176.686,56.186,202.4674l4.5124,4.4625,10.7917-26.4303Z"/><path class="cls-5" d="M63.4787,167.5266a22.07317,22.07317,0,0,0-1.9717,4.4425,80.36694,80.36694,0,0,0,17.79,14.4805c.7737-2.0466,1.158-3.2346,1.9966-5.2512Z"/><path class="cls-5" d="M49.769,155.0732a4.99136,4.99136,0,0,0-1.4616,4.6663c.3927,2.0571,2.2641,4.2131,4.2635,2.9668,2.278-1.4127,2.152-4.6647,1.3036-6.2334C52.8267,154.5376,51.2256,153.8143,49.769,155.0732Z"/><path class="cls-5" d="M90.0557,189.9441c-4.5357,10.2745-12.8484,31.3306-12.8484,31.3306l5.5381,3.8826s5.9993-14.5565,9.3503-22.7845c2.7582,10.5335,5.303,21.184,8.171,31.8013,1.8546,1.1504,3.7233,2.285,5.5641,3.4562,4.3954-10.8115,8.2457-21.8023,12.345-32.7222-2.0929-1.3869-4.4189-2.3858-6.5896-3.6433-2.6382,7.6578-5.0962,15.3205-7.2567,23.1164-1.6171-10.4228-5.3647-20.4155-7.4168-30.7488Z"/><path class="cls-5" d="M155.4343,235.4471c1.076-4.7478.1982-11.4503-2.4967-15.7485-6.162-9.8567-20.8471-8.9087-27.2795-1.3591a23.05558,23.05558,0,0,0-4.474,8.3981c-2.5616,7.7185,2.1966,16.5061,8.8972,19.9373,6.6902,3.4271,14.2077,1.8493,20.6955-1.295-.9464-1.6578-1.8784-3.8071-2.7285-5.5169-13.0497,6.5043-23.6187-1.3252-19.4296-13.501A255.14319,255.14319,0,0,0,155.4343,235.4471Zm-11.8584-16.614a11.49537,11.49537,0,0,1,7.0977,9.7135c-6.4134-2.2313-13.1031-4.9626-19.5909-7.1184C133.5995,219.1482,137.7022,216.5176,143.5759,218.8331Z"/><path class="cls-5" d="M188.088,231.1035a13.95505,13.95505,0,0,0-9.3173-5.8867,12.38784,12.38784,0,0,0-8.101,1.3168,6.90945,6.90945,0,0,0-3.4999,5.4356,8.99515,8.99515,0,0,0,3.1353,7.5653c2.0314,1.9481,5.0567,3.3945,6.776,5.3819a6.88857,6.88857,0,0,1,.9718,1.4185,1.47862,1.47862,0,0,1,.1897,1.1767c-1.127,2.9543-5.2387,4.8059-8.6127,4.1521a8.72367,8.72367,0,0,1-5.298-3.3803l-5.1061,3.8427a15.08514,15.08514,0,0,0,9.1884,5.8107c6.2693,1.2158,13.7066-2.6557,15.7985-8.1475,1.246-3.2674-.1952-6.6181-2.2987-9.0515-1.5971-1.8501-4.1557-3.3509-6.2879-5.0413-1.1003-.8733-2.2194-1.7166-2.0923-3.1636.037-.43.4725-.5791.8656-.7354a6.16514,6.16514,0,0,1,3.2623-.2859,7.8887,7.8887,0,0,1,5.2636,3.3629Z"/><path class="cls-5" d="M216.9087,233.6657a14.30092,14.30092,0,0,0-9.6844-5.4596,12.47581,12.47581,0,0,0-8.0613,1.6466,6.746,6.746,0,0,0-3.2116,5.5464,9.03784,9.03784,0,0,0,3.5701,7.3855c2.1484,1.8506,5.267,3.1614,7.1042,5.0641a6.98607,6.98607,0,0,1,1.0549,1.3687,1.46865,1.46865,0,0,1,.2562,1.1612c-.9671,2.9822-4.9927,4.9935-8.4173,4.4848a8.94313,8.94313,0,0,1-5.5085-3.1372l-4.9132,4.0311a15.46384,15.46384,0,0,0,9.5506,5.3893c6.3632.9463,13.6158-3.2108,15.4103-8.7544,1.0691-3.2982-.5649-6.5671-2.8128-8.8968-1.7069-1.7715-4.3599-3.1557-6.5951-4.7462-1.1536-.8216-2.3244-1.6128-2.2774-3.0557.0132-.4288.4422-.5951.8282-.7668a6.2315,6.2315,0,0,1,3.2599-.4203,8.08425,8.08425,0,0,1,5.4731,3.1214Z"/></g></g></svg>