<svg xmlns="http://www.w3.org/2000/svg" xmlns:xlink="http://www.w3.org/1999/xlink" viewBox="0 0 160.2338 159.78623"><defs><style>.cls-1{fill:url(#radial-gradient);}.cls-2{fill:#eff0f0;}.cls-3{fill:url(#linear-gradient);}.cls-4{fill:url(#linear-gradient-2);}.cls-5{fill:#5f5f5f;}.cls-6{fill:url(#linear-gradient-3);}.cls-7{fill:#c8d9d9;}.cls-8{fill:#cadada;}.cls-9{fill:#fff;}.cls-10{fill:#83abab;}.cls-11{fill:#a3bfbf;}.cls-12{fill:url(#linear-gradient-4);}.cls-13{fill:#3b3b3b;}.cls-14{fill:#525252;}.cls-15{fill:url(#linear-gradient-5);}</style><radialGradient id="radial-gradient" cx="130.22818" cy="526.9766" r="0.25296" gradientTransform="matrix(274.58, 444.83659, -444.8365, 274.57929, 198721.21302, -202590.67415)" gradientUnits="userSpaceOnUse"><stop offset="0" stop-color="#f0f0f0"/><stop offset="0.54" stop-color="#dfe6e6"/><stop offset="1" stop-color="#a2c3c3"/></radialGradient><linearGradient id="linear-gradient" x1="6.01358" y1="58.48968" x2="-11.27679" y2="52.47564" gradientTransform="translate(7.4026)" gradientUnits="userSpaceOnUse"><stop offset="0" stop-color="#5f5f5f"/><stop offset="1" stop-color="#818181"/></linearGradient><linearGradient id="linear-gradient-2" x1="78.26039" y1="19.96099" x2="63.22525" y2="-1.83997" xlink:href="#linear-gradient"/><linearGradient id="linear-gradient-3" x1="99.47367" y1="114.14669" x2="119.01934" y2="139.33056" gradientTransform="translate(7.4026)" gradientUnits="userSpaceOnUse"><stop offset="0" stop-color="#5f5f5f"/><stop offset="1" stop-color="#323232"/></linearGradient><linearGradient id="linear-gradient-4" x1="106.71739" y1="525.1496" x2="111.11913" y2="525.1496" gradientTransform="matrix(7.6329, 10.0405, 10.0405, -7.6329, -6014.62276, 3004.89458)" xlink:href="#linear-gradient-3"/><linearGradient id="linear-gradient-5" x1="45.84721" y1="117.06788" x2="28.93266" y2="146.01053" xlink:href="#linear-gradient-3"/></defs><title>Asset 9</title><g id="Layer_2" data-name="Layer 2"><g id="balls"><path class="cls-1" d="M81.2564,0c44.8499,0,78.9774,35.6171,78.9774,79.711,0,44.0945-34.1275,80.07523-78.9774,80.07523S0,123.9874,0,79.8929C0,35.7989,36.4064,0,81.2564,0Z"/><path class="cls-2" d="M79.3397,19.5711c-.8536-.5002-1.8031-1.0503-2.9396-1.6497-1.314-.6915-2.7862-1.4434-4.5318-2.2232-.9591-.4282-1.9853-.8507-3.1026-1.2689-.6714-.2522-1.3668-.503-2.1052-.7255-.6858-.2086-1.4052-.3899-2.1532-.5635-1.0455-.2426-2.1293-.4546-3.2802-.6651-1.0646-.1957-2.1532-.3746-3.3088-.5458-1.597-.2373-3.2275-.4325-4.9922-.656,1.6305.7016,3.1267,1.3758,4.6133,2.0084,1.0694.4555,2.0812.8795,3.0835,1.2833,1.0742.4339,2.0956.8444,3.0931,1.2137.7145.2628,1.4098.5093,2.0908.7208.7241.2258,1.4387.4119,2.1245.5874,1.1412.2916,2.2107.5414,3.2273.7644,1.8511.4062,3.4624.7121,4.901,1.0171C77.3112,19.1337,78.3806,19.3471,79.3397,19.5711Z"/><path class="cls-3" d="M22.5607,33.7515c-3.6446,1.6324-7.2872,3.2368-10.9013,4.9109A78.45362,78.45362,0,0,0,.1044,75.821c2.3098,2.9458,4.7451,5.802,7.3169,8.5024A131.03663,131.03663,0,0,1,25.3996,62.8501,124.84,124.84,0,0,1,22.5607,33.7515Z"/><path class="cls-4" d="M61.9007,2.2906a78.715,78.715,0,0,0-8.9749,8.983,252.58309,252.58309,0,0,1,26.5239,8.2972c8.4593-4.0297,17.4221-6.4058,26.2985-9.2678A69.1679,69.1679,0,0,0,95.1554,1.1769,82.81409,82.81409,0,0,0,61.9007,2.2906Z"/><path class="cls-5" d="M147.6578,36.0298a82.69326,82.69326,0,0,0-10.7436-5.2236,103.35311,103.35311,0,0,1-.2878,28.7576,128.70338,128.70338,0,0,1,17.0048,22.5,45.627,45.627,0,0,0,6.2354-10.1975A80.37855,80.37855,0,0,0,147.6578,36.0298Z"/><path class="cls-6" d="M141.4784,131.9539a79.11006,79.11006,0,0,0,1.3966-14.6312,169.727,169.727,0,0,1-27.2864,7.6526c-3.7693,8.9978-8.8621,17.4005-13.8494,25.7595a88.534,88.534,0,0,0,9.3726,3.3204A77.569,77.569,0,0,0,141.4784,131.9539Z"/><path class="cls-7" d="M52.9306,69.6065c1.0982-.8363,2.2203-1.6439,3.3808-2.4893,1.6641-1.2152,3.3712-2.403,5.0976-3.6388,1.127-.8047,2.2443-1.6157,3.3617-2.4395.7433-.5477,1.4818-1.0953,2.2059-1.6631.729-.5721,1.4339-1.1624,2.134-1.7508,1.079-.903,2.1244-1.8084,3.165-2.6932,1.0886-.9217,2.1388-1.8175,3.1842-2.6922,1.6977-1.4252,3.2993-2.7574,4.8771-3.961-1.8128.8296-3.7021,1.7402-5.6683,2.7976-1.2133.6532-2.4265,1.3442-3.6638,2.0885-1.1845.7164-2.3738,1.4617-3.5534,2.2644-.7673.5241-1.5346,1.066-2.2779,1.6429-.7337.5726-1.4482,1.1788-2.1532,1.7984q-1.5825,1.3962-3.0739,2.8772c-1.5202,1.5135-2.9396,3.061-4.3159,4.6263C54.681,67.4562,53.8034,68.5295,52.9306,69.6065Z"/><path class="cls-7" d="M47.625,127.3081c.8067-.9409,1.5501-1.7722,2.2846-2.6348,1.2043-1.4139,2.2997-2.6687,3.3522-3.9515.7462-.908,1.4365-1.7853,2.1173-2.678.4594-.6051.9051-1.2053,1.3242-1.8288.4231-.6271.8063-1.2711,1.1916-1.9253.5725-.9742,1.1067-1.9597,1.6688-2.9873.5429-.9901,1.0658-1.9804,1.6216-3.047.7673-1.4756,1.5026-2.9753,2.3665-4.6519-1.3879,1.2787-2.6367,2.4-3.8342,3.5604-.8695.8442-1.6657,1.6483-2.4449,2.477-.8177.8682-1.5826,1.7117-2.3147,2.5996-.4912.5983-.965,1.2052-1.4001,1.8423-.4358.6347-.8287,1.297-1.2118,1.976-.5564.9955-1.0816,2.0124-1.5814,3.1003-.7032,1.5245-1.324,3.0925-1.9803,4.849C48.3828,125.0727,48.0301,126.1342,47.625,127.3081Z"/><path class="cls-7" d="M18.9737,121.8348c-.9256-2.861-1.6593-5.7441-2.4074-8.6775-.446-1.7398-.8776-3.4705-1.3187-5.2122-.2973-1.1581-.5946-2.3124-.9112-3.4624-.2733-.9878-.5563-1.9723-.8632-2.9473-.4603-1.476-.983-2.9224-1.4674-4.3807-.6426-1.758-1.3283-3.5534-2.0237-5.3724-.4556-1.1912-.9111-2.3675-1.3331-3.5625-.4604-1.3092-.8824-2.5963-1.2277-3.8964a49.19286,49.19286,0,0,0,.6378,5.4525c.4604,2.7257,1.0934,5.4223,1.5969,8.0349.235,1.0478.4508,2.0975.7049,3.1453.2542,1.0426.5275,2.0827.8296,3.1157.2446.8257.5132,1.6443.7913,2.4596.422,1.2252.8728,2.4361,1.3524,3.6417.4747,1.2104.9734,2.402,1.5058,3.5865C16.0964,116.5391,17.4822,119.1991,18.9737,121.8348Z"/><path class="cls-8" d="M109.1294,68.2228c1.1679-.3964,2.2552-.7332,3.3341-1.0749,1.7623-.5576,3.3896-1.0135,4.985-1.4649,1.1276-.3209,2.218-.6213,3.2938-.9231.7353-.2052,1.4676-.4013,2.1872-.6199.7256-.2216,1.4423-.4619,2.1638-.7015,1.0798-.3596,2.1489-.7328,3.2572-1.102,1.0795-.3587,2.1599-.72,3.2968-1.0995,1.5917-.531,3.2024-1.0889,4.9785-1.6733-1.8708.094-3.5779.1666-5.2582.2956-1.2089.0947-2.3588.2091-3.4992.356-1.1882.1537-2.3429.3281-3.4871.5621-.7703.1583-1.5372.3368-2.2939.5607-.7511.2223-1.4917.4889-2.2308.7813-1.0815.4257-2.1494.9014-3.2372,1.4524-1.504.7688-2.998,1.6446-4.5853,2.6641C111.0767,66.8504,110.1404,67.5078,109.1294,68.2228Z"/><path class="cls-9" d="M109.1294,68.2228c1.2355-.0374,2.3808-.0623,3.5166-.1192,1.8807-.0932,3.6001-.2031,5.2703-.3926,1.2129-.1369,2.3651-.3192,3.495-.5408.7843-.1546,1.5499-.3296,2.3038-.5448.7661-.2218,1.5108-.4856,2.2438-.775,1.1054-.4364,2.1739-.9291,3.2462-1.4791,1.0416-.5335,2.0563-1.1077,3.0916-1.759,1.4319-.9015,2.8312-1.9027,4.3291-3.0486-1.9333.7833-3.7154,1.3858-5.4763,1.9545-1.5007.4854-2.9401.8931-4.3981,1.2805-.7325.1966-1.4644.3767-2.1972.5742-.7268.1944-1.4575.386-2.1859.6007-1.0349.3006-2.0741.6292-3.1486.9577-.6923.2125-1.3885.4368-2.1077.6696-1.5234.493-3.0828,1.0029-4.778,1.5565C111.292,67.4946,110.2532,67.8526,109.1294,68.2228Z"/><path class="cls-9" d="M22.5589,33.7512c1.1557-.8886,2.3834-1.7652,3.6829-2.6888,1.7888-1.2737,3.6734-2.5397,5.606-3.8599q1.8558-1.269,3.7165-2.569c.8248-.5764,1.6497-1.1528,2.4505-1.7479.8104-.6028,1.6017-1.2234,2.3834-1.8381,1.2132-.9577,2.3881-1.9096,3.5342-2.826q1.85595-1.48185,3.5487-2.8245c2.0525-1.6176,3.8748-3.0289,5.4429-4.1232-1.7695.7553-3.8748,1.7292-6.2053,2.943-1.2901.6728-2.6328,1.4055-4.0139,2.2083-1.2852.7452-2.5992,1.5312-3.9083,2.3838-.844.5482-1.6928,1.1174-2.5177,1.724-.8152.599-1.6112,1.2339-2.3977,1.8832q-1.77675,1.4646-3.448,3.0154c-1.7312,1.6099-3.3425,3.2495-4.8578,4.8742C24.4867,31.4767,23.4988,32.6262,22.5589,33.7512Z"/><path class="cls-9" d="M80.5718,48.2795c.2878-1.1945.5563-2.3018.7865-3.4125.3789-1.8275.6857-3.5156.8968-5.1873.1534-1.195.2493-2.3531.2973-3.5055.0335-.7883.0431-1.5696.0144-2.3474-.0336-.7831-.1103-1.5609-.2062-2.3392-.1487-1.1553-.3501-2.2985-.5899-3.4715-.2302-1.125-.4987-2.2457-.8104-3.4168-.4364-1.6189-.9447-3.246-1.5106-5.0285.072,1.8597.0911,3.5558.1151,5.2232.0191,1.1912.0287,2.3225.0383,3.4513.0145,1.1644,0,2.2913.0096,3.4231.0049.7581.0049,1.5115.0288,2.2682.0288.7515.0767,1.5039.1247,2.2645.0671,1.1197.1439,2.2457.2254,3.4144.1151,1.6578.2494,3.342.3645,5.1796C80.4232,45.9235,80.5095,47.0562,80.5718,48.2795Z"/><path class="cls-7" d="M80.5718,48.2795c-.0288-1.2253-.0335-2.3623-.0623-3.4959-.0431-1.8319-.0576-3.5214-.0959-5.2007-.024-1.161-.0527-2.2889-.0863-3.4221-.0192-.7548-.0384-1.5072-.0768-2.2639-.0383-.7481-.1007-1.4972-.1582-2.2583-.0863-1.112-.1822-2.2322-.259-3.4062-.0719-1.113-.1438-2.2404-.2014-3.4408-.0815-1.6482-.1631-3.3434-.1822-5.2208-.4843,1.8285-.8967,3.4878-1.2181,5.1168-.2397,1.2046-.4268,2.345-.5754,3.4753-.1535,1.207-.2686,2.3675-.3165,3.5199-.0336.7941-.0432,1.5782-.0096,2.3569.0383.7865.1199,1.5658.2205,2.3441.1535,1.1566.3549,2.3018.6139,3.4691.3645,1.6597.8248,3.3093,1.3524,5.087C79.8381,46.029,80.1978,47.1108,80.5718,48.2795Z"/><path class="cls-7" d="M25.3996,62.8502c1.1126.256,2.1964.5505,3.3329.8569,1.6257.4388,3.2274.9375,4.9058,1.4473,1.0694.3237,2.1388.6488,3.237.974.7145.2105,1.429.4243,2.1627.6147.7194.187,1.4483.3511,2.1916.5165,1.0933.2441,2.1915.4671,3.3185.7102,1.103.2388,2.2059.4724,3.3376.7198,1.6688.3635,3.3185.7141,5.0401,1.1351-1.5489-.8723-3.0355-1.6942-4.5701-2.4605-1.055-.5261-2.0909-1.0095-3.1411-1.466-1.079-.4686-2.1435-.9016-3.2225-1.2852-.7337-.2604-1.4675-.4992-2.206-.6973-.7529-.2014-1.5105-.3592-2.2635-.4973-1.1604-.2129-2.3018-.3769-3.4431-.4877a51.13,51.13,0,0,0-5.2175-.2216C27.6775,62.7144,26.5506,62.7734,25.3996,62.8502Z"/><path class="cls-9" d="M25.3996,62.8502c.9639.6483,1.9134,1.2684,2.9349,1.8663a48.73136,48.73136,0,0,0,4.642,2.4271c1.055.4776,2.1388.9015,3.2514,1.2842.7337.2513,1.477.4829,2.2347.6714.7529.186,1.5153.3299,2.2874.4507,1.1462.1794,2.3019.2993,3.4767.3837,1.1606.0825,2.3067.1251,3.4912.1251,1.7312,0,3.4336-.0935,5.2079-.234-1.923-.3721-3.7453-.8296-5.5868-1.3015-1.4914-.3817-2.93-.7841-4.3735-1.1993-.7288-.2086-1.4434-.4216-2.1675-.6196-.7241-.199-1.4434-.3961-2.1628-.5731-1.0598-.2585-2.11-.4858-3.1506-.7308-.7098-.1664-1.4099-.3194-2.1149-.4791-1.6304-.3702-3.2033-.7423-4.7811-1.1696C27.5049,63.4577,26.4595,63.1767,25.3996,62.8502Z"/><path class="cls-10" d="M65.3126,150.3104c1.4338.2777,2.8629.5515,4.3351.7922,2.1628.353,4.3255.6748,6.5459.9184,1.453.1596,2.9108.2805,4.383.3668.9735.0576,1.9518.1012,2.9301.1065.9735.0053,1.9517-.0269,2.93-.0734,1.4675-.07,2.9253-.1856,4.3831-.316,1.4722-.1314,2.9205-.2868,4.3783-.4632,2.2155-.2681,4.3735-.5889,6.5411-.9069-2.182-.1482-4.3543-.3333-6.5746-.4978-1.4579-.1083-2.9013-.2129-4.3688-.3083-1.453-.0945-2.9012-.1923-4.3639-.2618-.9687-.0456-1.9326-.0859-2.9012-.0964-.9687-.011-1.9374.0086-2.9061.0316q-2.18685.05325-4.3591.1535c-2.2203.1017-4.3879.2369-6.5603.3419C68.2186,150.1694,66.7704,150.2543,65.3126,150.3104Z"/><path class="cls-10" d="M142.875,117.3227c.6377-1.303,1.2803-2.6246,1.9182-4.0225.9015-1.9796,1.7983-4.0114,2.647-6.1363q.81285-2.04795,1.5538-4.163c.3213-.9289.6378-1.8645.9159-2.8111.2782-.9462.5228-1.9014.7577-2.8581.3501-1.4492.6618-2.8932.9592-4.3337.3069-1.4737.5898-2.9205.8535-4.3606.422-2.2745.7817-4.4583,1.1509-6.5736-.8056,1.9901-1.6544,4.0344-2.5032,6.1866-.5323,1.3615-1.0646,2.7345-1.5921,4.1429-.5131,1.3749-1.0262,2.7559-1.5106,4.162-.3213.927-.633,1.8582-.9159,2.7991-.2877.9409-.5371,1.8904-.7817,2.8385q-.56115,2.1579-1.0502,4.2939c-.5131,2.2188-.9687,4.3807-1.4386,6.4936C143.508,114.4765,143.201,115.9128,142.875,117.3227Z"/><path class="cls-8" d="M105.7482,10.303a41.96342,41.96342,0,0,1,6.378,3.7582c1.5538,1.0474,3.1603,2.2036,4.8291,3.4005.7913.5697,1.5873,1.1423,2.4025,1.7077.8057.5625,1.6161,1.1207,2.4313,1.6631.5947.3951,1.1894.7759,1.784,1.1499,1.4578.9179,2.8773,1.7935,4.2152,2.6371,1.2996.8191,2.508,1.5772,3.611,2.286a40.43,40.43,0,0,1,5.2271,3.7103,36.31776,36.31776,0,0,0-4.5845-4.9581c-1.0022-.9533-2.1148-1.969-3.3376-3.0245-1.0886-.9423-2.2444-1.9091-3.472-2.8586-.7816-.6047-1.5873-1.2032-2.4217-1.7705-.8249-.5616-1.6785-1.09-2.5368-1.5998-1.314-.7783-2.6375-1.5053-3.9563-2.1685-1.4051-.7083-2.7814-1.3284-4.1146-1.8765A35.11591,35.11591,0,0,0,105.7482,10.303Z"/><path class="cls-11" d="M99.1975,102.3065c.4748.8728.9304,1.7207,1.4148,2.5872.7289,1.2919,1.4434,2.5474,2.2011,3.8215.4987.8421.9974,1.6669,1.5202,2.4946.3452.5487.7001,1.0896,1.0597,1.6267.3645.5342.729,1.0646,1.1126,1.5849.2542.3462.5131.6876.7865,1.0214,1.0214,1.2598,2.086,2.4592,3.1122,3.7161,1.2229,1.37,2.4649,2.6802,3.6782,4.067.5179.5951,1.0214,1.1735,1.5058,1.7969-.3885-.9869-.8153-1.9259-1.2948-2.8763-.7098-1.4104-1.477-2.7527-2.2012-4.1486-.8152-1.4243-1.6064-2.8447-2.4888-4.2244-.235-.3659-.4843-.7236-.7385-1.0751-.3837-.527-.7865-1.0411-1.1941-1.5475-.4124-.5079-.8296-1.0028-1.2612-1.4929-.6522-.7375-1.3092-1.4511-1.9902-2.1632-1.0214-1.0737-2.0429-2.0971-3.1026-3.1396C100.6123,103.6569,99.9121,102.998,99.1975,102.3065Z"/><path class="cls-11" d="M80.4951,48.4445c2.1004,1.64,4.0378,3.3803,6.0519,5.1182,1.3332,1.1528,2.6615,2.2889,4.0234,3.4091.729.5999,1.4675,1.1879,2.2204,1.7542.7577.5678,1.5441,1.0982,2.321,1.6386.9207.5726,1.8367,1.1476,2.7814,1.6871,1.8702,1.0718,3.7644,2.0731,5.6635,3.1008,1.9086,1.0315,3.7932,2.0251,5.6347,3.1535-1.5585-1.5173-3.1459-2.9507-4.8291-4.3462-1.4962-1.2449-3.0068-2.4438-4.5509-3.6326-1.0119-.7836-2.0477-1.5355-3.0547-2.322-1.0263-.7058-2.0333-1.4453-3.0644-2.145-.6234-.4229-1.2516-.8282-1.8894-1.2305-.9639-.6081-1.923-1.1979-2.9013-1.7748-1.6496-.9692-3.2897-1.8832-4.9873-2.7598C82.7826,49.51,81.6556,48.9748,80.4951,48.4445Z"/><path class="cls-12" d="M52.8539,69.6828A321.8678,321.8678,0,0,1,80.5718,48.2795c9.7301,6.2989,19.23,13.0596,28.5573,19.9435a213.16545,213.16545,0,0,1-9.8308,33.9723c-11.8977,1.0837-23.8049,1.2343-35.7457,1.4079A245.92167,245.92167,0,0,1,52.8539,69.6828Z"/><path class="cls-13" d="M63.1258,103.6104c1.4435.0662,2.8821.1473,4.3687.2058,2.1484.0843,4.316.1755,6.5315.2177,1.4434.0273,2.8869.0335,4.3399.0191.9591-.0095,1.923-.0253,2.8869-.0719.9591-.0465,1.9182-.1237,2.8773-.2071,1.4482-.1262,2.8821-.2815,4.316-.4312,1.453-.1525,2.8868-.3117,4.3159-.4694,2.2251-.2451,4.3735-.4964,6.5075-.6877-2.134-.269-4.2872-.5242-6.5219-.7174-1.4434-.1252-2.8869-.2264-4.3591-.3012-1.453-.0738-2.9013-.1318-4.3639-.1448-.9687-.0086-1.9374-.0039-2.9061.0379s-1.9326.1204-2.8965.2105q-2.1795.2043-4.3303.5006c-2.2011.3036-4.3399.6695-6.4643,1.0402C65.96,103.0676,64.5453,103.3447,63.1258,103.6104Z"/><path class="cls-13" d="M99.4901,102.0131c.5659-1.2992,1.1461-2.5704,1.7264-3.8882.8487-1.9302,1.712-3.8484,2.5368-5.8424.5371-1.3005,1.0502-2.614,1.5346-3.9548.3212-.8829.6329-1.7734.9111-2.6802.2733-.9011.5131-1.8151.7385-2.7378.3309-1.3758.6186-2.7617.8871-4.1702.2638-1.3959.494-2.789.6906-4.2133.2925-2.1052.494-4.2023.6618-6.3626-.633,2.0601-1.3236,4.0368-2.0285,6.0303-.4747,1.3404-.9495,2.6519-1.4243,3.9731-.4795,1.3317-.9686,2.6418-1.429,3.9615-.3118.8867-.6139,1.7696-.892,2.6591-.2781.8982-.5275,1.8003-.7721,2.7004-.3692,1.3729-.7145,2.7339-1.0358,4.0987-.4987,2.1028-.9255,4.1649-1.3379,6.2351C99.9744,99.236,99.7346,100.6161,99.4901,102.0131Z"/><path class="cls-2" d="M79.3397,19.5711c-.8536-.5002-1.8031-1.0503-2.9396-1.6497-1.314-.6915-2.7862-1.4434-4.5318-2.2232-.9591-.4282-1.9853-.8507-3.1026-1.2689-.6714-.2522-1.3668-.503-2.1052-.7255-.6858-.2086-1.4052-.3899-2.1532-.5635-1.0455-.2426-2.1293-.4546-3.2802-.6651-1.0646-.1957-2.1532-.3746-3.3088-.5458-1.597-.2373-3.2275-.4325-4.9922-.656,1.6305.7016,3.1267,1.3758,4.6133,2.0084,1.0694.4555,2.0812.8795,3.0835,1.2833,1.0742.4339,2.0956.8444,3.0931,1.2137.7145.2628,1.4098.5093,2.0908.7208.7241.2258,1.4387.4119,2.1245.5874,1.1412.2916,2.2107.5414,3.2273.7644,1.8511.4062,3.4624.7121,4.901,1.0171C77.3112,19.1337,78.3806,19.3471,79.3397,19.5711Z"/><path class="cls-14" d="M74.9179,17.1304c-1.0166-.5242-2.014-1.0052-3.0307-1.4656-1.031-.4675-2.0525-.9072-3.0979-1.3082-.6953-.2671-1.3955-.5193-2.11-.737-.7049-.2163-1.429-.3966-2.1532-.5659-1.079-.2503-2.1627-.4714-3.2849-.6647-1.6208-.2805-3.2466-.4963-4.9777-.7217-1.0982-.1429-2.182-.2565-3.3377-.3937a249.92082,249.92082,0,0,1,26.2345,8.1947C77.703,18.6312,76.3271,17.8547,74.9179,17.1304Z"/><path class="cls-13" d="M139.5037,48.4915c.0672-.7136.1487-1.4214.1823-2.1398.0239-.4757.0335-.9528.0192-1.43a35.64181,35.64181,0,0,0-.2782-3.5698c-.187-1.4391-.4508-2.8341-.7721-4.2488-.4697-2.0632-1.0604-3.9955-1.701-5.9896a103.56361,103.56361,0,0,1-.3275,28.4503l.0166.0178a30.669,30.669,0,0,0,1.8776-5.4084C138.981,52.2852,139.2304,50.3958,139.5037,48.4915Z"/><path class="cls-13" d="M153.5769,81.974l.0685.0713.0325-.0423c-1.0244-2.2818-1.9499-4.4901-3.0726-6.7172-.7577-1.5029-1.5489-2.9535-2.4361-4.385-.2925-.4733-.6043-.9327-.9303-1.3825q-.49635-.67485-1.0359-1.3116c-.5419-.6411-1.1029-1.2578-1.688-1.8621-.5898-.6076-1.1941-1.173-1.8127-1.7561-1.1988-1.0454-2.3162-2.1028-3.5678-3.0988a26.76028,26.76028,0,0,0-2.1726-1.5651A128.63959,128.63959,0,0,1,153.5769,81.974Z"/><path class="cls-13" d="M107.6616,144.0681c.7433-.9294,1.4435-1.8764,2.1149-2.8605.4459-.6536.8775-1.3178,1.266-2.0079.3884-.6929.7336-1.4079,1.0549-2.133.494-1.1001.916-2.2064,1.314-3.341.3981-1.1457.7481-2.2692,1.0598-3.4389.4651-1.7616.8055-3.4704,1.098-5.2664-3.7673,8.9807-8.851,17.3694-13.83,25.7144.82-.8857,1.6161-1.7158,2.4265-2.6198C105.3694,146.779,106.5299,145.479,107.6616,144.0681Z"/><path class="cls-13" d="M115.7298,124.9486c-.0514.015-.1012.0291-.1474.0411l-.0232.0541a33.36209,33.36209,0,0,0,5.1174-.1121c1.079-.0815,2.2251-.1952,3.4671-.3549,1.1126-.1429,2.254-.304,3.424-.5284.7482-.1425,1.501-.3026,2.2444-.5084.7432-.2057,1.4721-.456,2.1867-.7178q1.676-.6129,3.2082-1.3035c1.7935-.808,3.352-1.6242,4.6803-2.3522a27.13217,27.13217,0,0,0,2.9877-1.8438A170.01756,170.01756,0,0,1,115.7298,124.9486Z"/><path class="cls-15" d="M57.2801,141.3184a141.49728,141.49728,0,0,1-9.6533-14.0105,93.78112,93.78112,0,0,1-28.6531-5.4731,75.98744,75.98744,0,0,0,1.25,10.7737,81.49749,81.49749,0,0,0,31.9328,21.8882,94.309,94.309,0,0,0,13.1561-4.1863A64.69784,64.69784,0,0,1,57.2801,141.3184Z"/><path class="cls-13" d="M28.9244,126.4034q.70485.24315,1.4242.4417a29.52409,29.52409,0,0,0,3.2226.749,48.69174,48.69174,0,0,0,4.9633.3861c1.2708.0072,2.4553.0067,3.6686-.072,1.7887-.116,3.4863-.339,5.4237-.6003a93.78112,93.78112,0,0,1-28.6531-5.4731c2.2395,1.1916,4.3783,2.3205,6.6945,3.3199C26.7472,125.6184,27.8166,126.0236,28.9244,126.4034Z"/><path class="cls-13" d="M51.185,135.4765q.81285,1.51425,1.7935,3.0466c.422.6565.8585,1.3096,1.338,1.934.4748.6268.9926,1.2214,1.5154,1.7988.82.9039,1.6496,1.7379,2.4792,2.5335.9208.8871,1.7935,1.677,2.6375,2.3934a22.98292,22.98292,0,0,0,4.364,3.1276,64.69784,64.69784,0,0,1-8.0325-8.992,141.49728,141.49728,0,0,1-9.6533-14.0105,28.70119,28.70119,0,0,0,1.242,3.352C49.4874,132.0904,50.2403,133.7185,51.185,135.4765Z"/><path class="cls-13" d="M21.8366,39.0396c-.1247,1.1892-.2158,2.3603-.2734,3.5539-.0575,1.1912-.0911,2.3723-.0718,3.5645.0143.7922.0431,1.5835.1198,2.3718.0719.7889.187,1.5725.3165,2.3537.2014,1.1748.4364,2.3344.7241,3.492.4316,1.7427.9447,3.4264,1.5202,5.1312.3789,1.1356.7961,2.2232,1.2276,3.3434a124.84,124.84,0,0,1-2.8389-29.0986C22.2778,35.5259,22.0236,37.2556,21.8366,39.0396Z"/><path class="cls-13" d="M25.29,62.957c-1.2602.9193-2.4824,1.8068-3.722,2.7781-.9111.7126-1.7791,1.4209-2.6566,2.1757-.8729.7491-1.7169,1.4982-2.5369,2.3014-.5419.5313-1.0742,1.0742-1.5681,1.6501-.4988.5755-.9543,1.1811-1.4003,1.7969-.6713.9317-1.2996,1.8736-1.899,2.8543-.9064,1.4923-1.6977,2.9765-2.4889,4.5312-.5285,1.038-.9862,2.0397-1.4714,3.095A130.9756,130.9756,0,0,1,25.29,62.957Z"/></g></g></svg>