<svg xmlns="http://www.w3.org/2000/svg" xmlns:xlink="http://www.w3.org/1999/xlink" viewBox="0 0 191.26247 146.05459"><defs><style>.cls-1{fill:url(#linear-gradient);}.cls-2{fill:url(#linear-gradient-2);}.cls-3{fill:#43c13f;}.cls-4{fill:#faa033;}.cls-5{fill:#a4f2a2;}</style><linearGradient id="linear-gradient" x1="-299.18451" y1="324.03596" x2="-294.98781" y2="324.03596" gradientTransform="matrix(2.14693, 38.03284, 38.03284, -2.14693, -11589.38522, 12088.44482)" gradientUnits="userSpaceOnUse"><stop offset="0" stop-color="#78d375"/><stop offset="1" stop-color="#20851d"/></linearGradient><linearGradient id="linear-gradient-2" x1="-300.06179" y1="324.6067" x2="-295.86509" y2="324.6067" gradientTransform="matrix(29.9917, 21.3307, 21.3307, -29.9917, 2126.70879, 16166.7691)" gradientUnits="userSpaceOnUse"><stop offset="0" stop-color="#5dca5a"/><stop offset="1" stop-color="#319e2f"/></linearGradient></defs><title>Asset 6</title><g id="Layer_2" data-name="Layer 2"><g id="balls"><ellipse class="cls-1" cx="95.63121" cy="73.02731" rx="65.27487" ry="101.05405" transform="translate(-11.07333 128.63718) rotate(-64.89322)"/><path class="cls-2" d="M15.02834,22.95741c-13.6511,29.133,12.7363,70.3,58.9377,91.949,46.2016,21.6491,94.7217,15.5821,108.37269-13.5508,5.288-11.285,4.5642-24.3756-.9878-37.4381-11.30279-19.3339-31.67709-37.6526-58.02319-49.9978-34.3123-16.0781-69.9253-17.8855-94.0462-7.1751A39.80736,39.80736,0,0,0,15.02834,22.95741Z"/><path class="cls-3" d="M119.66384,17.82981c-23.4618-10.9937-47.5781-13.6617-65.5535-8.8707-12.2461,3.2635-21.6648,9.9855-26.2783,19.8313s-3.7517,21.385,1.5772,32.8837c7.8229,16.8757,25.3058,33.7002,48.7676,44.6939s47.578,13.6616,65.5519,8.8738c12.2461-3.2635,21.6648-9.9855,26.2783-19.8312,4.61359-9.8459,3.75169-21.385-1.5772-32.8838-7.8214-16.8789-25.3043-33.7034-48.766-44.697Zm-1.1836,2.5259c22.7834,10.6758,39.825,26.9517,47.4194,43.3391,4.94769,10.6797,5.86939,21.3903,1.585,30.5338s-13.1047,15.2893-24.476,18.3182c-17.454,4.6542-40.8649,1.9711-63.6483-8.7047s-39.8265-26.9486-47.4193-43.3392c-4.9493-10.6764-5.871-21.3871-1.5866-30.5305s13.1047-15.2893,24.4776-18.3215c17.4524-4.651,40.8647-1.9711,63.6482,8.7048Z"/><path class="cls-3" d="M118.51974,19.86761c-21.9608-10.2903-44.4764-12.9242-61.2016-8.6472-11.428,2.9215-20.1852,9.0637-24.4274,18.1172s-3.3568,19.7104,1.7113,30.3617c7.4163,15.5892,23.8473,31.2084,45.8081,41.4988s44.4745,12.9197,61.2029,8.6442c11.428-2.9215,20.1838-9.0608,24.4261-18.1142s3.3581-19.7134-1.71-30.3647c-7.4195-15.5907-23.8486-31.2054-45.8094-41.4958Zm-1.1826,2.5239c21.2944,9.9781,37.2832,25.0554,44.4741,40.1717,4.6729,9.8181,5.613,19.6366,1.7027,27.9817-3.9102,8.3449-12.0553,13.9028-22.5917,16.5977-16.2175,4.1477-38.0351,1.5097-59.3295-8.4684s-37.2833-25.0554-44.4741-40.1717c-4.6716-9.8211-5.6131-19.6367-1.7028-27.9817s12.0568-13.9057,22.5918-16.5977c16.2174-4.1477,38.035-1.5097,59.3295,8.4684Z"/><path class="cls-3" d="M118.22264,21.482c-20.3223-9.5226-41.1326-12.0059-56.5751-8.1271-10.5789,2.6574-18.668,8.2926-22.5696,16.6192s-3.0555,18.1486,1.6722,27.9783c6.9015,14.3486,22.1268,28.7509,42.4492,38.2736s41.1326,12.0058,56.5751,8.1271c10.5789-2.6574,18.665-8.294,22.5666-16.6206s3.0585-18.1472-1.6692-27.9769c-6.9015-14.3487-22.1268-28.751-42.4492-38.2736ZM117.04,24.006c19.6593,9.2119,34.4455,23.0785,41.121,36.9583,4.3232,8.9903,5.2269,17.9684,1.6574,25.5862s-11.0457,12.6659-20.7219,15.0996c-14.9363,3.7498-35.0553,1.2638-54.7145-7.9481-19.6594-9.2119-34.4443-23.0812-41.1211-36.9584-4.322-8.9929-5.227-17.9683-1.6575-25.5861s11.047-12.6687,20.7219-15.0997c14.9377-3.7524,35.0554-1.2637,54.7147,7.9482Z"/><ellipse class="cls-3" cx="102.84189" cy="56.53521" rx="29.15379" ry="49.14935" transform="translate(8.01178 125.67228) rotate(-64.89328)"/><path class="cls-4" d="M67.72554,43.56371l40.1867.6374,1.2314,11.519,27.2571,8.2078L96.90174,64.99l.0165-13.8096Z"/><path class="cls-5" d="M13.91424,25.00491a56.05549,56.05549,0,0,0-2.775,12.453,50.21249,50.21249,0,0,0-.0808,8.6151,51.6283,51.6283,0,0,0,1.3393,8.5482,57.69945,57.69945,0,0,0,4.5122,12.154c7.9535,15.8616,23.3094,30.5558,46.3619,42.2554-17.5736-10.4058-29.9436-22.4497-37.8897-34.9952a78.6359,78.6359,0,0,1-9.9128-23.378,71.42938,71.42938,0,0,1-1.922-12.6334A65.2297,65.2297,0,0,1,13.91424,25.00491Z"/></g></g></svg>