<svg xmlns="http://www.w3.org/2000/svg" xmlns:xlink="http://www.w3.org/1999/xlink" viewBox="0 0 89.3974 87.3325"><defs><style>.cls-1{fill:url(#radial-gradient);}.cls-2{opacity:0.54;}.cls-3{fill:url(#linear-gradient);}.cls-4{fill:url(#linear-gradient-2);}.cls-5{fill:url(#linear-gradient-3);}.cls-6{fill:url(#linear-gradient-4);}.cls-7{fill:url(#linear-gradient-5);}.cls-8{fill:url(#linear-gradient-6);}.cls-9{fill:url(#linear-gradient-7);}.cls-10{fill:url(#linear-gradient-8);}.cls-11{fill:url(#linear-gradient-9);}.cls-12{fill:url(#linear-gradient-10);}.cls-13{fill:url(#linear-gradient-11);}.cls-14{fill:url(#linear-gradient-12);}.cls-15{fill:url(#linear-gradient-13);}.cls-16{fill:url(#linear-gradient-14);}.cls-17{fill:url(#linear-gradient-15);}.cls-18{fill:url(#linear-gradient-16);}.cls-19{fill:url(#linear-gradient-17);}.cls-20{fill:url(#linear-gradient-18);}.cls-21{fill:url(#linear-gradient-19);}.cls-22{fill:url(#linear-gradient-20);}.cls-23{fill:url(#linear-gradient-21);}.cls-24{fill:url(#linear-gradient-22);}.cls-25{fill:url(#linear-gradient-23);}.cls-26{fill:url(#linear-gradient-24);}.cls-27{fill:url(#linear-gradient-25);}.cls-28{fill:url(#linear-gradient-26);}.cls-29{fill:url(#linear-gradient-27);}.cls-30{fill:url(#linear-gradient-28);}.cls-31{fill:url(#linear-gradient-29);}.cls-32{fill:url(#linear-gradient-30);}.cls-33{fill:url(#linear-gradient-31);}.cls-34{fill:url(#linear-gradient-32);}.cls-35{fill:url(#linear-gradient-33);}.cls-36{fill:url(#linear-gradient-34);}.cls-37{fill:url(#linear-gradient-35);}.cls-38{fill:url(#linear-gradient-36);}.cls-39{fill:url(#linear-gradient-37);}</style><radialGradient id="radial-gradient" cx="156.84989" cy="-31.64276" r="0.24117" gradientTransform="matrix(151.7419, 281.11829, -281.1176, 151.7413, -32658.7374, -39266.30707)" gradientUnits="userSpaceOnUse"><stop offset="0" stop-color="#fff"/><stop offset="1" stop-color="#ccc"/></radialGradient><linearGradient id="linear-gradient" x1="155.11957" y1="-16.12833" x2="159.31626" y2="-16.03479" gradientTransform="matrix(-9.7832, -24.425, -23.8936, 10.1861, 1192.09182, 4040.85346)" gradientUnits="userSpaceOnUse"><stop offset="0" stop-color="#b1b1b1"/><stop offset="1" stop-color="#ececec"/></linearGradient><linearGradient id="linear-gradient-2" x1="154.90438" y1="-15.13291" x2="159.10109" y2="-15.1043" gradientTransform="matrix(-9.5393, -23.305, -23.1574, 9.6631, 1173.30285, 3847.38299)" xlink:href="#linear-gradient"/><linearGradient id="linear-gradient-3" x1="154.91174" y1="-16.22156" x2="159.10843" y2="-16.19295" gradientTransform="matrix(-9.5393, -23.305, -23.1574, 9.6631, 1173.30305, 3847.38349)" xlink:href="#linear-gradient"/><linearGradient id="linear-gradient-4" x1="154.8787" y1="-16.72373" x2="159.07539" y2="-16.69512" gradientTransform="matrix(-9.5393, -23.305, -23.1575, 9.6631, 1172.66951, 3846.65339)" xlink:href="#linear-gradient"/><linearGradient id="linear-gradient-5" x1="154.86456" y1="-14.65532" x2="159.06127" y2="-14.62671" gradientTransform="matrix(-9.5393, -23.305, -23.1575, 9.6631, 1172.66911, 3846.65379)" xlink:href="#linear-gradient"/><linearGradient id="linear-gradient-6" x1="154.88573" y1="-15.70941" x2="159.08244" y2="-15.6808" gradientTransform="matrix(-9.5393, -23.305, -23.1574, 9.6631, 1173.22855, 3846.79739)" xlink:href="#linear-gradient"/><linearGradient id="linear-gradient-7" x1="154.88514" y1="-15.63282" x2="159.08182" y2="-15.60421" gradientTransform="matrix(-9.5393, -23.305, -23.1574, 9.6631, 1173.22925, 3846.79769)" xlink:href="#linear-gradient"/><linearGradient id="linear-gradient-8" x1="154.90025" y1="-16.83213" x2="159.09693" y2="-16.80352" gradientTransform="matrix(-9.5393, -23.3051, -23.1574, 9.6631, 1173.56255, 3846.86239)" xlink:href="#linear-gradient"/><linearGradient id="linear-gradient-9" x1="154.88435" y1="-14.48707" x2="159.08104" y2="-14.45846" gradientTransform="matrix(-9.5393, -23.3051, -23.1574, 9.6631, 1173.56215, 3846.86179)" xlink:href="#linear-gradient"/><linearGradient id="linear-gradient-10" x1="150.99149" y1="-18.1711" x2="155.18821" y2="-18.16117" gradientTransform="matrix(-0.0411, -26.7185, -26.5242, 0.1031, -442.79799, 4133.70909)" xlink:href="#linear-gradient"/><linearGradient id="linear-gradient-11" x1="153.18774" y1="-17.26059" x2="157.38442" y2="-17.23925" gradientTransform="matrix(-5.4245, -26.1414, -25.9637, 5.5246, 434.78638, 4187.83601)" xlink:href="#linear-gradient"/><linearGradient id="linear-gradient-12" x1="158.07429" y1="-16.4725" x2="162.27101" y2="-16.44041" gradientTransform="matrix(-16.2246, -21.0994, -20.9834, 16.3923, 2304.66045, 3678.68598)" xlink:href="#linear-gradient"/><linearGradient id="linear-gradient-13" x1="157.35096" y1="-15.26752" x2="161.54765" y2="-15.23544" gradientTransform="matrix(-14.8188, -22.1254, -21.9986, 14.9787, 2052.85771, 3802.76956)" xlink:href="#linear-gradient"/><linearGradient id="linear-gradient-14" x1="155.61046" y1="-15.13209" x2="159.80719" y2="-14.63758" gradientTransform="matrix(-8.6289, -24.5072, -21.8884, 10.545, 1060.91415, 4064.47069)" xlink:href="#linear-gradient"/><linearGradient id="linear-gradient-15" x1="155.0902" y1="-16.91592" x2="159.28688" y2="-16.88731" gradientTransform="matrix(-10.1027, -24.6812, -24.5251, 10.2338, 1225.57176, 4083.64386)" xlink:href="#linear-gradient"/><linearGradient id="linear-gradient-16" x1="154.88659" y1="-14.67455" x2="159.08327" y2="-14.64594" gradientTransform="matrix(-9.5394, -23.305, -23.1575, 9.6631, 1173.38581, 3846.95739)" xlink:href="#linear-gradient"/><linearGradient id="linear-gradient-17" x1="154.8819" y1="-16.27772" x2="159.0786" y2="-16.24911" gradientTransform="matrix(-9.5393, -23.305, -23.1574, 9.6631, 1173.22115, 3846.59109)" xlink:href="#linear-gradient"/><linearGradient id="linear-gradient-18" x1="154.87359" y1="-15.0589" x2="159.0703" y2="-15.03029" gradientTransform="matrix(-9.5393, -23.305, -23.1574, 9.6631, 1173.22125, 3846.59119)" xlink:href="#linear-gradient"/><linearGradient id="linear-gradient-19" x1="154.88394" y1="-16.71033" x2="159.08063" y2="-16.68173" gradientTransform="matrix(-9.5394, -23.305, -23.1575, 9.6631, 1172.87431, 3846.71819)" xlink:href="#linear-gradient"/><linearGradient id="linear-gradient-20" x1="154.87041" y1="-14.81338" x2="159.06708" y2="-14.78477" gradientTransform="matrix(-9.5393, -23.305, -23.1574, 9.6631, 1173.27415, 3846.52829)" xlink:href="#linear-gradient"/><linearGradient id="linear-gradient-21" x1="154.88347" y1="-17.08793" x2="159.08016" y2="-17.05932" gradientTransform="matrix(-9.5393, -23.305, -23.1574, 9.6631, 1173.36635, 3846.42109)" xlink:href="#linear-gradient"/><linearGradient id="linear-gradient-22" x1="154.89238" y1="-15.42704" x2="159.08906" y2="-15.39843" gradientTransform="matrix(-9.5393, -23.305, -23.1574, 9.6631, 1173.48465, 3846.92369)" xlink:href="#linear-gradient"/><linearGradient id="linear-gradient-23" x1="154.90905" y1="-17.27646" x2="159.10578" y2="-17.24785" gradientTransform="matrix(-9.5393, -23.3049, -23.1574, 9.6631, 1173.54745, 3846.9907)" xlink:href="#linear-gradient"/><linearGradient id="linear-gradient-24" x1="154.88724" y1="-14.09706" x2="159.08397" y2="-14.06846" gradientTransform="matrix(-9.5393, -23.3049, -23.1574, 9.6631, 1173.54765, 3846.9917)" xlink:href="#linear-gradient"/><linearGradient id="linear-gradient-25" x1="154.87123" y1="-15.27273" x2="159.06794" y2="-15.24412" gradientTransform="matrix(-9.5393, -23.305, -23.1576, 9.6631, 1172.87338, 3846.63059)" xlink:href="#linear-gradient"/><linearGradient id="linear-gradient-26" x1="154.89411" y1="-17.53691" x2="159.09078" y2="-17.50831" gradientTransform="matrix(-9.5393, -23.3051, -23.1574, 9.6631, 1173.63175, 3846.53339)" xlink:href="#linear-gradient"/><linearGradient id="linear-gradient-27" x1="154.90168" y1="-15.86749" x2="159.09844" y2="-15.83888" gradientTransform="matrix(-9.5393, -23.3049, -23.1574, 9.6631, 1173.00035, 3847.2886)" xlink:href="#linear-gradient"/><linearGradient id="linear-gradient-28" x1="154.89105" y1="-16.46542" x2="159.08777" y2="-16.43682" gradientTransform="matrix(-9.5393, -23.305, -23.1574, 9.6631, 1173.19405, 3846.81799)" xlink:href="#linear-gradient"/><linearGradient id="linear-gradient-29" x1="154.91874" y1="-16.9731" x2="159.1154" y2="-16.94449" gradientTransform="matrix(-9.5393, -23.305, -23.1574, 9.6632, 1173.49555, 3847.35543)" xlink:href="#linear-gradient"/><linearGradient id="linear-gradient-30" x1="154.88577" y1="-16.05424" x2="159.08247" y2="-16.02563" gradientTransform="matrix(-9.5393, -23.305, -23.1575, 9.6631, 1173.13171, 3846.77569)" xlink:href="#linear-gradient"/><linearGradient id="linear-gradient-31" x1="154.88324" y1="-17.25579" x2="159.07992" y2="-17.22718" gradientTransform="matrix(-9.5393, -23.305, -23.1575, 9.6631, 1172.66751, 3846.67969)" xlink:href="#linear-gradient"/><linearGradient id="linear-gradient-32" x1="154.86192" y1="-14.1354" x2="159.05864" y2="-14.10679" gradientTransform="matrix(-9.5393, -23.305, -23.1575, 9.6631, 1172.66781, 3846.67969)" xlink:href="#linear-gradient"/><linearGradient id="linear-gradient-33" x1="154.90496" y1="-16.64491" x2="159.10169" y2="-16.61631" gradientTransform="matrix(-9.5393, -23.305, -23.1575, 9.6632, 1172.52331, 3847.45403)" xlink:href="#linear-gradient"/><linearGradient id="linear-gradient-34" x1="154.90023" y1="-16.98843" x2="159.09693" y2="-16.95982" gradientTransform="matrix(-9.5393, -23.305, -23.1575, 9.6631, 1172.86951, 3847.10819)" xlink:href="#linear-gradient"/><linearGradient id="linear-gradient-35" x1="154.8824" y1="-14.38438" x2="159.07911" y2="-14.35577" gradientTransform="matrix(-9.5393, -23.305, -23.1575, 9.6631, 1172.87021, 3847.10859)" xlink:href="#linear-gradient"/><linearGradient id="linear-gradient-36" x1="154.86307" y1="-14.73004" x2="159.0597" y2="-14.70143" gradientTransform="matrix(-9.5393, -23.305, -23.1574, 9.6631, 1172.71255, 3846.58229)" xlink:href="#linear-gradient"/><linearGradient id="linear-gradient-37" x1="154.90669" y1="-17.37417" x2="159.10319" y2="-17.34556" gradientTransform="matrix(-9.5393, -23.305, -23.1574, 9.6631, 1173.55795, 3846.92139)" xlink:href="#linear-gradient"/></defs><title>Asset 19</title><g id="Layer_2" data-name="Layer 2"><g id="balls"><ellipse class="cls-1" cx="44.6987" cy="43.66633" rx="44.6987" ry="43.66618"/><g class="cls-2"><path class="cls-3" d="M39.0673,32.4434a5.1166,5.1166,0,1,0,4.2152,5.6412A4.99044,4.99044,0,0,0,39.0673,32.4434Z"/><path class="cls-4" d="M12.6287,22.1052a2.62677,2.62677,0,0,0,1.9117.5852,5.5239,5.5239,0,0,0,3.7185-2.0388,5.60212,5.60212,0,0,0,1.4655-4.0108,2.68947,2.68947,0,0,0-.8575-1.8318,2.63191,2.63191,0,0,0-1.9134-.5867,5.51254,5.51254,0,0,0-3.7168,2.0403,5.60769,5.60769,0,0,0-1.4655,4.0109A2.68629,2.68629,0,0,0,12.6287,22.1052Z"/><path class="cls-5" d="M57.5366,58.7875a2.63173,2.63173,0,0,0,1.9133.5868,5.51268,5.51268,0,0,0,3.7168-2.0404,5.60687,5.60687,0,0,0,1.4655-4.0108,2.6859,2.6859,0,0,0-.8575-1.8318,2.627,2.627,0,0,0-1.9116-.5852,5.52365,5.52365,0,0,0-3.7185,2.0389,5.6011,5.6011,0,0,0-1.4655,4.0108A2.68944,2.68944,0,0,0,57.5366,58.7875Z"/><path class="cls-6" d="M54.3433,15.848a5.47178,5.47178,0,0,0,3.9609,1.4643,2.64729,2.64729,0,0,0,1.8129-.8684,2.706,2.706,0,0,0,.5929-1.9451,5.561,5.561,0,0,0-2.0162-3.7448,5.47208,5.47208,0,0,0-3.9609-1.4642,2.65668,2.65668,0,0,0-1.8144.8702,2.70061,2.70061,0,0,0-.5914,1.9432A5.55139,5.55139,0,0,0,54.3433,15.848Z"/><path class="cls-7" d="M22.0602,57.7491a5.4728,5.4728,0,0,0-3.9609-1.4642,2.64678,2.64678,0,0,0-1.8129.8685,2.70515,2.70515,0,0,0-.5929,1.945,5.56128,5.56128,0,0,0,2.0161,3.7448,5.47223,5.47223,0,0,0,3.9609,1.4642,2.65617,2.65617,0,0,0,1.8144-.8701,2.70132,2.70132,0,0,0,.5915-1.9434A5.55221,5.55221,0,0,0,22.0602,57.7491Z"/><path class="cls-8" d="M24.8649,12.7244a5.45924,5.45924,0,0,0,4.2197-.0863,5.54979,5.54979,0,0,0,3.127-2.8828,2.7005,2.7005,0,0,0,.0752-2.0299A2.65352,2.65352,0,0,0,30.8559,6.31a5.47114,5.47114,0,0,0-4.2216.0895,5.55818,5.55818,0,0,0-3.1278,2.8807,2.706,2.706,0,0,0-.0744,2.0321A2.651,2.651,0,0,0,24.8649,12.7244Z"/><path class="cls-9" d="M51.5386,60.8727a5.46014,5.46014,0,0,0-4.2197.0863,5.54982,5.54982,0,0,0-3.127,2.8828,2.70078,2.70078,0,0,0-.0753,2.03,2.65352,2.65352,0,0,0,1.4309,1.4154,5.47163,5.47163,0,0,0,4.2216-.0896A5.55823,5.55823,0,0,0,52.897,64.317a2.70667,2.70667,0,0,0,.0743-2.0322A2.65185,2.65185,0,0,0,51.5386,60.8727Z"/><path class="cls-10" d="M65.1238,29.8811a2.62664,2.62664,0,0,0,1.9978.0716A2.68463,2.68463,0,0,0,68.53,28.5016a5.6035,5.6035,0,0,0-.0761-4.2698,5.52137,5.52137,0,0,0-2.8471-3.1432,2.636,2.636,0,0,0-2-.0706,2.68855,2.68855,0,0,0-1.4083,1.4511,5.60819,5.60819,0,0,0,.0761,4.2698A5.51711,5.51711,0,0,0,65.1238,29.8811Z"/><path class="cls-11" d="M14.2072,51.1281a5.608,5.608,0,0,0-.0761-4.2699,5.51645,5.51645,0,0,0-2.8492-3.1422,2.62615,2.62615,0,0,0-1.9978-.0715,2.68346,2.68346,0,0,0-1.4083,1.4511,5.603,5.603,0,0,0,.0761,4.2698,5.52069,5.52069,0,0,0,2.847,3.1431,2.6365,2.6365,0,0,0,2,.0707A2.68855,2.68855,0,0,0,14.2072,51.1281Z"/><path class="cls-12" d="M27.8397,24.6917c.7055,2.0611,3.4569,2.7969,6.0599,1.8875,2.6121-.9126,4.3284-3.2201,3.6213-5.286-.7047-2.0587-3.4538-2.798-6.0599-1.8875C28.8489,20.3183,27.1326,22.6258,27.8397,24.6917Z"/><path class="cls-13" d="M46.1871,55.0353c2.3777-1.429,3.5982-4.0377,2.4878-5.9173-1.1052-1.8707-3.9475-2.0261-6.3171-.6021-2.375,1.4272-3.5954,4.036-2.4863,5.9134C40.9779,56.3022,43.8203,56.4576,46.1871,55.0353Z"/><path class="cls-14" d="M43.8572,22.5717c-1.194,1.8292-.0983,4.4869,2.209,6.0122,2.2994,1.52,5.1476,1.4816,6.3388-.3433,1.194-1.8291.1009-4.4851-2.209-6.0122C47.8966,20.7084,45.047,20.749,43.8572,22.5717Z"/><path class="cls-15" d="M32.3708,53.6193c1.3099-1.7469.3891-4.4715-1.814-6.1456-2.1981-1.6703-5.0396-1.8174-6.3465-.0746-1.3099,1.7469-.3891,4.4715,1.814,6.1456C28.2199,55.213,31.0655,55.3601,32.3708,53.6193Z"/><path class="cls-16" d="M21.5807,40.013c2.1729.2565,4.0536-1.9266,4.3814-4.6907s-.9906-5.3216-3.1636-5.5782-4.0532,1.9234-4.3814,4.6907C18.0896,37.1957,19.4077,39.7564,21.5807,40.013Z"/><path class="cls-17" d="M58.955,38.8489c.3633-2.7629-.9751-5.341-3.1901-5.6315-2.2175-.291-4.1746,1.8549-4.5384,4.621-.3634,2.7628.9724,5.3406,3.19,5.6315C56.6315,43.7604,58.5912,41.6149,58.955,38.8489Z"/><path class="cls-18" d="M13.3485,33.6724c.3053-2.5741-.9914-4.9618-3.0845-5.2089s-3.9101,1.773-4.2157,4.3501c-.3053,2.5741.989,4.9616,3.082,5.2087S13.0429,36.2495,13.3485,33.6724Z"/><path class="cls-19" d="M41.9745,10.9774c2.5506.3346,4.9361-.9596,5.2127-3.0628s-1.6907-3.9658-4.2413-4.3004-4.9328.9576-5.2094,3.0608C37.4596,8.7806,39.4269,10.6433,41.9745,10.9774Z"/><path class="cls-20" d="M34.4302,62.6195c-2.5506-.3346-4.9361.9596-5.2127,3.0628s1.6906,3.9658,4.2412,4.3004,4.9328-.9576,5.2094-3.0607C38.9451,64.8163,36.9777,62.9536,34.4302,62.6195Z"/><path class="cls-21" d="M71.1787,40.6611c.3379-2.5699-.9258-4.9741-3.0155-5.2482s-3.9347,1.7223-4.2731,4.2953c-.338,2.57.9282,4.9744,3.0179,5.2485S70.8402,43.2342,71.1787,40.6611Z"/><path class="cls-22" d="M32.5289,75.705a6.64564,6.64564,0,0,0-4.19.6418,1.26239,1.26239,0,0,0-.2945,2.2394,6.63248,6.63248,0,0,0,3.8792,1.6984,6.64442,6.64442,0,0,0,4.1897-.6401,1.26619,1.26619,0,0,0,.2948-2.2411A6.65024,6.65024,0,0,0,32.5289,75.705Z"/><path class="cls-23" d="M80.7777,37.956a1.22676,1.22676,0,0,0-2.1977-.2883,6.791,6.791,0,0,0-1.7005,3.926,6.777,6.777,0,0,0,.6281,4.2284,1.22684,1.22684,0,0,0,2.1977.2883,6.791,6.791,0,0,0,1.7005-3.926A6.77692,6.77692,0,0,0,80.7777,37.956Z"/><path class="cls-24" d="M51.7657,73.9162a6.62682,6.62682,0,0,0-4.2297.1724,6.72164,6.72164,0,0,0-3.5064,2.4139,1.54394,1.54394,0,0,0-.3119,1.2966,1.51438,1.51438,0,0,0,1.0059.8454,6.63882,6.63882,0,0,0,4.2298-.1724,6.72134,6.72134,0,0,0,3.5063-2.4139,1.55589,1.55589,0,0,0,.312-1.2966A1.51114,1.51114,0,0,0,51.7657,73.9162Z"/><path class="cls-25" d="M77.6964,30.0126a1.498,1.498,0,0,0,1.2667.3082,1.53166,1.53166,0,0,0,.8414-1.0215,6.79631,6.79631,0,0,0-.1593-4.2769,6.69982,6.69982,0,0,0-2.3873-3.5236,1.49035,1.49035,0,0,0-1.266-.3118,1.53461,1.53461,0,0,0-.843,1.0222,6.79665,6.79665,0,0,0,.1609,4.2763A6.729,6.729,0,0,0,77.6964,30.0126Z"/><path class="cls-26" d="M1.0959,47.1117A8.40621,8.40621,0,0,0,.0192,44.9123a42.81986,42.81986,0,0,0,.8215,7.2105,2.22531,2.22531,0,0,0,.4161-.7348A6.79524,6.79524,0,0,0,1.0959,47.1117Z"/><path class="cls-27" d="M51.2458,83.6469a9.16443,9.16443,0,0,0-4.3201.1476,9.2216,9.2216,0,0,0-3.9406,1.8139,1.946,1.946,0,0,0-.3633.4174.37255.37255,0,0,0-.0359.0701.69521.69521,0,0,0,.0557.042,1.89174,1.89174,0,0,0,.5053.2088,9.14618,9.14618,0,0,0,4.3204-.1464,9.22232,9.22232,0,0,0,3.9405-1.8138,1.95634,1.95634,0,0,0,.3631-.4186.4299.4299,0,0,0,.0361-.069c-.0191-.016-.0409-.0313-.0557-.042A2.07905,2.07905,0,0,0,51.2458,83.6469Z"/><path class="cls-28" d="M84.9429,27.0816a9.32326,9.32326,0,0,0,1.7922,3.9682,2.43865,2.43865,0,0,0,.3282.305,1.14324,1.14324,0,0,0,.1375.0816.50342.50342,0,0,0,.0359-.0487,2.04355,2.04355,0,0,0,.2104-.5119,42.79724,42.79724,0,0,0-2.8279-6.869A11.6716,11.6716,0,0,0,84.9429,27.0816Z"/><path class="cls-29" d="M64.769,77.7489a11.01277,11.01277,0,0,0-7.5875,3.845,1.97907,1.97907,0,0,0-.2592.4934c-.0067.0201-.0106.0459-.0183.0707a.90132.90132,0,0,0,.158.0557,2.09245,2.09245,0,0,0,.4432.0579,9.19081,9.19081,0,0,0,4.1696-1.1565,9.28167,9.28167,0,0,0,3.4178-2.6885,2.09161,2.09161,0,0,0,.2587-.4944.52587.52587,0,0,0,.0155-.0694.83548.83548,0,0,0-.1552-.057A2.204,2.204,0,0,0,64.769,77.7489Z"/><path class="cls-30" d="M77.2092,67.5392a2.34413,2.34413,0,0,0-.4392.0809,11.09312,11.09312,0,0,0-6.0869,5.9828,1.985,1.985,0,0,0-.0981.5498.46848.46848,0,0,0,.0034.0682,1.3054,1.3054,0,0,0,.1597.0054,2.35,2.35,0,0,0,.4401-.08,11.10892,11.10892,0,0,0,6.0869-5.9828,2.02747,2.02747,0,0,0,.098-.5498.46715.46715,0,0,0-.0034-.0681A1.16734,1.16734,0,0,0,77.2092,67.5392Z"/><path class="cls-31" d="M84.2758,53.4666a.48146.48146,0,0,0-.0261-.0533,1.16341,1.16341,0,0,0-.1481.0581,2.368,2.368,0,0,0-.3759.2459,9.36212,9.36212,0,0,0-2.4336,3.6188,9.40446,9.40446,0,0,0-.8667,4.2834,2.06182,2.06182,0,0,0,.1224.541.49236.49236,0,0,0,.0261.0535,1.15837,1.15837,0,0,0,.1492-.0578,2.2734,2.2734,0,0,0,.3748-.2464,9.34538,9.34538,0,0,0,2.4348-3.6182,9.406,9.406,0,0,0,.8667-4.2834A2.06989,2.06989,0,0,0,84.2758,53.4666Z"/><path class="cls-32" d="M64.6375,65.7572a6.66548,6.66548,0,0,0-3.9718,1.4929,6.77964,6.77964,0,0,0-2.5904,3.3984,1.54813,1.54813,0,0,0,.1039,1.3276,1.49331,1.49331,0,0,0,1.2126.4839,6.67667,6.67667,0,0,0,3.9709-1.4943,6.75134,6.75134,0,0,0,2.5878-3.3966,1.543,1.543,0,0,0-.1003-1.328A1.49934,1.49934,0,0,0,64.6375,65.7572Z"/><path class="cls-33" d="M71.9102,15.8737a1.49067,1.49067,0,0,0,1.3013-.1064,1.5478,1.5478,0,0,0,.4881-1.2373,6.76688,6.76688,0,0,0-1.4772-4.0095,6.66369,6.66369,0,0,0-3.3563-2.5949,1.50222,1.50222,0,0,0-1.3013.1064,1.543,1.543,0,0,0-.4877,1.2408,6.76307,6.76307,0,0,0,1.4753,4.007A6.6649,6.6649,0,0,0,71.9102,15.8737Z"/><path class="cls-34" d="M8.841,65.5652a1.54286,1.54286,0,0,0,.4876-1.2409,6.76192,6.76192,0,0,0-1.4753-4.0069,6.66419,6.66419,0,0,0-3.3578-2.594,1.491,1.491,0,0,0-1.3013.1064,1.31191,1.31191,0,0,0-.4579.912,42.95205,42.95205,0,0,0,2.5971,5.6246,5.49843,5.49843,0,0,0,2.2062,1.3051A1.50241,1.50241,0,0,0,8.841,65.5652Z"/><path class="cls-35" d="M74.2916,58.8005a6.79266,6.79266,0,0,0,1.2051-4.1073,1.53018,1.53018,0,0,0-.5647-1.1964,1.49556,1.49556,0,0,0-1.3023-.0102,6.72584,6.72584,0,0,0-3.1817,2.8342,6.79686,6.79686,0,0,0-1.2068,4.11,1.52281,1.52281,0,0,0,.5663,1.1937,1.4952,1.4952,0,0,0,1.3023.0103A6.73774,6.73774,0,0,0,74.2916,58.8005Z"/><path class="cls-36" d="M57.7201,3.4497a6.62417,6.62417,0,0,0,4.0592,1.201,1.51336,1.51336,0,0,0,1.1829-.5734.966.966,0,0,0,.1035-.232,45.08451,45.08451,0,0,0-7.6391-2.5762A7.752,7.752,0,0,0,57.7201,3.4497Z"/><path class="cls-37" d="M18.6861,70.1475a6.62493,6.62493,0,0,0-4.0593-1.201,1.513,1.513,0,0,0-1.1828.5734,1.55226,1.55226,0,0,0-.0162,1.3333,6.7129,6.7129,0,0,0,2.8063,3.1985,6.6423,6.6423,0,0,0,4.0582,1.2025,1.5158,1.5158,0,0,0,1.1829-.5733,1.54417,1.54417,0,0,0,.0136-1.335A6.68588,6.68588,0,0,0,18.6861,70.1475Z"/><path class="cls-38" d="M29.751,84.8278a45.16433,45.16433,0,0,0,5.592,1.5437,9.35839,9.35839,0,0,0-3.9079-1.3961A12.74882,12.74882,0,0,0,29.751,84.8278Z"/><path class="cls-39" d="M88.3596,38.6982a2.03978,2.03978,0,0,0-.2534-.4986c-.0151-.0176-.0369-.0422-.0565-.0635-.0252.0144-.0546.0311-.0743.0433a2.07789,2.07789,0,0,0-.392.399,9.23229,9.23229,0,0,0-1.5046,4.0946,9.25135,9.25135,0,0,0,.1999,4.3577,2.059,2.059,0,0,0,.2539.4956.77881.77881,0,0,0,.0578.0637.77376.77376,0,0,0,.073-.0435,2.02091,2.02091,0,0,0,.3916-.396,9.25025,9.25025,0,0,0,1.5058-4.0944l.0005-.003A9.22807,9.22807,0,0,0,88.3596,38.6982Z"/></g></g></g></svg>