<svg xmlns="http://www.w3.org/2000/svg" xmlns:xlink="http://www.w3.org/1999/xlink" viewBox="0 0 156.92505 157.8899"><defs><style>.cls-1{fill:url(#radial-gradient);}.cls-2{fill:#e46d3f;}.cls-3{fill:#ed845d;}.cls-4{fill:#d84a15;}.cls-5{fill:#e26435;}.cls-6{fill:#9a3131;}</style><radialGradient id="radial-gradient" cx="-100.95609" cy="24.66815" r="0.24118" gradientTransform="matrix(220.52549, 401.39309, -401.3903, 220.52749, 32221.24448, 35132.329)" gradientUnits="userSpaceOnUse"><stop offset="0" stop-color="#ef8a64"/><stop offset="1" stop-color="#d54109"/></radialGradient></defs><title>Asset 16</title><g id="Layer_2" data-name="Layer 2"><g id="balls"><path class="cls-1" d="M78.4315,0c43.3034,0,78.49355,38.112,78.49355,80.7084s-35.15665,77.1815-78.46,77.1815C35.1613,157.8899,0,123.3048,0,80.7084S35.1281,0,78.4315,0Z"/><path class="cls-2" d="M66.5185,24.8687c1.1384-1.1385,2.318-2.1626,3.5296-3.292,1.1522-1.0698,2.3226-2.1031,3.4702-3.2096.6768-.6492,1.3214-1.3259,1.9615-2.0117.6447-.6904,1.2573-1.3945,1.8882-2.0986a72.69831,72.69831,0,0,1,5.9666-6.1815,47.13961,47.13961,0,0,0-6.3506,3.5983,28.78913,28.78913,0,0,0-3.8268,3.0313,25.358,25.358,0,0,0-3.1274,3.7399A45.16493,45.16493,0,0,0,66.5185,24.8687Z"/><path class="cls-2" d="M34.1984,33.6974c2.2357-.8915,4.4623-1.6048,6.7438-2.3546,2.2175-.7316,4.4487-1.3762,6.7302-2.0484,1.1841-.3474,2.3683-.7223,3.5662-1.0972,1.7602-.5487,3.5342-1.1202,5.3813-1.6369a95.6331,95.6331,0,0,1,9.8986-2.3134,72.12114,72.12114,0,0,0-10.2872.32,43.88423,43.88423,0,0,0-6.7987,1.2345,38.554,38.554,0,0,0-6.4558,2.4598A61.01292,61.01292,0,0,0,34.1984,33.6974Z"/><path class="cls-3" d="M68.137,24.8687a69.192,69.192,0,0,0,5.834-3.8452,35.52236,35.52236,0,0,0,3.5022-2.9902,43.90569,43.90569,0,0,0,3.0405-3.4702c1.9339-2.3592,3.4153-4.4487,4.2108-5.546-1.079.8184-3.2004,2.2449-5.619,4.0875-1.1751.8916-2.4278,1.8197-3.5846,2.885a37.59556,37.59556,0,0,0-3.1547,3.3377C70.3773,21.6773,68.9737,23.8171,68.137,24.8687Z"/><path class="cls-3" d="M35.1344,34.6726c2.1077-.4892,5.6648-.8138,9.7248-1.5134,2.0666-.3566,4.252-.791,6.3918-1.3625,2.1717-.5761,4.2749-1.3259,6.2454-2.0391a48.80091,48.80091,0,0,0,9.0208-4.0692c-2.094.8458-6.497,1.5362-11.4806,2.4644-1.7556.3292-3.5707.6766-5.3676,1.1064-.7681.1829-1.5225.3978-2.2677.6264-2.2129.6813-4.3161,1.4128-6.2135,2.1306A60.57753,60.57753,0,0,0,35.1344,34.6726Z"/><path class="cls-2" d="M66.8522,25.6871c1.582,2.2403,3.1548,4.5812,4.9562,6.8627,1.1522,1.4585,2.3638,2.8988,3.6531,4.275,1.2802,1.367,2.6518,2.6472,4.0189,3.9274,2.094,1.966,4.22,3.804,6.2866,5.6511-1.7146-2.1717-3.4108-4.4167-5.2076-6.6479-1.175-1.4539-2.3409-2.9215-3.5937-4.316-1.2573-1.3991-2.5741-2.7295-3.9-4.0235C70.9809,29.3951,68.8457,27.5662,66.8522,25.6871Z"/><path class="cls-2" d="M68.041,25.0013c1.5682,1.2984,3.013,2.6838,4.4623,4.1194.9465.9419,1.87,1.8974,2.789,2.8667.7636.8047,1.5134,1.614,2.2724,2.4187.7589.8093,1.5316,1.6002,2.286,2.4095a64.01873,64.01873,0,0,1,6.9953,8.719,50.65665,50.65665,0,0,0-3.964-7.5348,36.14258,36.14258,0,0,0-3.4245-4.5767,33.09326,33.09326,0,0,0-4.1834-3.8955A45.99556,45.99556,0,0,0,68.041,25.0013Z"/><path class="cls-2" d="M71.5432,77.384c.8915-2.437,2.5741-5.6649,4.3481-9.2632.9784-1.9842,1.9934-4.0554,2.9398-6.1357.9784-2.1352,1.8517-4.2795,2.6975-6.2547,1.8792-4.3709,3.4291-7.9554,4.2384-9.3271a81.514,81.514,0,0,0-5.5505,8.6687c-1.0745,1.8792-2.2221,3.9138-3.2371,6.049-.9921,2.0803-1.8791,4.2383-2.6426,6.3323A65.8038,65.8038,0,0,0,71.5432,77.384Z"/><path class="cls-2" d="M43.4797,84.4707c2.789-.6492,5.642-1.1293,8.5361-1.7465,1.8746-.3978,3.7537-.8184,5.6191-1.3031,1.87-.4846,3.708-1.0607,5.5505-1.6002,2.8393-.8321,5.61-1.6917,8.3578-2.4369-2.8438.2743-5.738.5577-8.6778,1.0012-1.9112.2927-3.8314.599-5.7288,1.0516a57.55027,57.55027,0,0,0-5.5825,1.6597C48.7514,82.0795,46.1041,83.2866,43.4797,84.4707Z"/><path class="cls-3" d="M72.8508,77.9098c1.934-2.9125,3.8452-5.7929,5.5185-8.8288,1.1248-2.0346,2.1627-4.1058,3.0771-6.2135.9235-2.1398,1.6962-4.3206,2.4369-6.497,1.1339-3.3376,2.0712-6.6661,2.9627-9.9672-1.6002,3.7491-3.397,7.4708-5.2122,11.284-.8229,1.7282-1.6597,3.4611-2.4689,5.2213-.3429.7453-.6675,1.5043-.9876,2.2678-.887,2.1078-1.7602,4.2247-2.6518,6.3506C74.6385,73.6622,73.7881,75.7883,72.8508,77.9098Z"/><path class="cls-3" d="M23.1568,67.595a26.521,26.521,0,0,0,4.6041,6.7439,43.36641,43.36641,0,0,0,3.8268,3.8498,51.57834,51.57834,0,0,0,4.2978,3.3147,37.94447,37.94447,0,0,0,7.0273,4.1195,53.57311,53.57311,0,0,1-6.5609-5.6968c-1.3443-1.2802-2.7387-2.6747-4.1744-3.9869-1.2253-1.1156-2.478-2.1535-3.6302-3.1502-1.3717-1.1888-2.6244-2.2449-3.6028-3.196A14.03038,14.03038,0,0,1,23.1568,67.595Z"/><path class="cls-4" d="M22.9008,66.3972c-1.4082.1555-2.7753.2377-4.1744.4252-.608.0777-1.1933.192-1.7968.3109-1.1659.3017-2.3318.576-3.4519.9875a20.82442,20.82442,0,0,0-2.1901.9693,59.37906,59.37906,0,0,0-7.5439,4.8007c1.9294-.8092,3.8497-1.4767,5.8066-2.1763,1.2801-.4618,2.5741-.8641,3.8496-1.3533,1.3534-.5212,2.661-1.1522,4.0327-1.6643Z"/><path class="cls-5" d="M34.0246,34.2552a52.1079,52.1079,0,0,0-5.9391,8.7465,42.06875,42.06875,0,0,0-2.7524,6.5243,48.33531,48.33531,0,0,0-1.6139,6.8902,77.344,77.344,0,0,0-.9556,10.4976,96.81689,96.81689,0,0,1,2.3866-10.173c.6356-2.222,1.3808-4.3937,2.126-6.5655.7407-2.1717,1.5043-4.3298,2.3501-6.4695A69.98869,69.98869,0,0,1,34.0246,34.2552Z"/><path class="cls-5" d="M116.7155,43.0931a23.1663,23.1663,0,0,0,1.3076-6.977,32.63376,32.63376,0,0,0-.0961-4.7139,41.3605,41.3605,0,0,0-.7864-4.6407,38.53117,38.53117,0,0,0-1.975-6.7713,65.7867,65.7867,0,0,1,.544,7.5166c.0732,1.5911.1097,3.2919.2378,4.9881.1097,1.4083.2971,2.7982.4343,4.1241.16,1.518.3292,2.9078.3749,4.1469A15.8314,15.8314,0,0,1,116.7155,43.0931Z"/><path class="cls-6" d="M110.598,146.272a.15394.15394,0,0,1-.0503-.128.15011.15011,0,0,1,.0686-.1235,110.99313,110.99313,0,0,0,13.8214-11.316c1.8106-1.7831,3.5022-3.6531,5.0887-5.5551a85.68061,85.68061,0,0,0,6.5336-8.9933.12033.12033,0,0,1,.0228-.0275l.4755-.4663c1.1751-1.0561,2.3409-2.1169,3.4794-3.2142,1.271-1.2299,2.5009-2.5055,3.7674-3.7492,1.6048-1.7831,3.237-3.5433,4.7458-5.4133.7773-.9647,1.5179-1.9569,2.2129-2.9856a.16652.16652,0,0,1,.1326-.0686.16912.16912,0,0,1,.1326.064c.4067.535.9012,1.2398,1.4572,2.0307q.34028-.9504.65595-1.9116c-.88035-.9684-1.53255-1.6645-1.53255-1.6645a.1657.1657,0,0,1-.0411-.1371c.7727-4.9791,1.47679-9.9215,1.8014-14.9006.1326-2.1031.17372-4.2109.16916-6.3186-.00457-3.0862-.1646-6.1678-.36573-9.2723a.22218.22218,0,0,1,.00457-.0548l.19656-.7498c.51209-1.6643,1.17049-3.9732,1.78314-6.5748.02012-.0844.03983-.1719.05993-.2569q-.49762-2.3523-1.13358-4.6637l-1.953,11.1159a.15695.15695,0,0,1-.2103.128l-.631-.2012a47.38216,47.38216,0,0,0-7.1371-1.6185,65.67667,65.67667,0,0,0-6.8992-.2698.17156.17156,0,0,1-.1371-.0777c-2.9216-4.6224-5.834-9.263-9.1397-13.6111-1.3579-1.7877-2.8026-3.5069-4.3023-5.1757a93.42282,93.42282,0,0,0-6.9039-6.8856.15765.15765,0,0,1-.0503-.1326l.3566-5.7014a79.8327,79.8327,0,0,0-.4251-9.2311,81.60834,81.60834,0,0,0-1.4997-8.0653.18781.18781,0,0,1,.0366-.1462.17617.17617,0,0,1,.1417-.0503c2.0392.2514,4.1058.5944,6.2043.8412,2.4004.2789,4.8145.4573,7.1828.7956.9352.1346,1.8619.2618,2.7764.4161q-1.0449-1.0056-2.124-1.9739a47.34752,47.34752,0,0,0-5.7915-1.1626c-1.2207-.16-2.4506-.2332-3.6759-.2743-1.6688-.0594-5.427.0137-5.427.0137a.14512.14512,0,0,1-.0732-.0183l-8.8745-4.4716A108.059,108.059,0,0,0,95.286,10.1785c-3.4016-1.0517-6.8764-1.8243-10.3557-2.5376a.1858.1858,0,0,1-.1097-.0594c-.0046-.0046-.0275-.032-.0275-.032l.1281.0594-.1326-.0686c-.9373-1.2756-1.8792-2.5283-2.9125-3.7217C81.1538,2.982,80.4085,2.1635,79.613,1.4,79.1134.9211,78.6014.457,78.0807.0024q-1.35195.0063-2.6933.0605c.8977.9647,1.7961,1.9258,2.7213,2.8642.7636.7726,1.5591,1.5087,2.3501,2.254.9922.9327,2.0072,1.8334,2.9902,2.7753a.197.197,0,0,1,.0502.128.17125.17125,0,0,1-.064.1189,113.31993,113.31993,0,0,0-8.7326,7.2971c-1.1843,1.1202-2.309,2.2952-3.4109,3.4931-1.4996,1.6276-4.6498,5.3539-4.6498,5.3539a.14891.14891,0,0,1-.096.0549c-5.9163.983-11.2885,1.934-16.2583,3.2553-2.2312.5944-4.371,1.2848-6.4512,2.0301a95.57083,95.57083,0,0,0-8.9476,3.7445.16209.16209,0,0,1-.1738-.0228,71.33765,71.33765,0,0,1-5.7699-5.4911c-1.1659-1.2162-2.2907-2.4598-3.4154-3.7081q-.5724-.6327-1.1444-1.2675-.73635.7341-1.4544,1.4866c.9806,1.1784,1.9943,2.324,3.0697,3.4112a55.10756,55.10756,0,0,0,7.7497,6.3964.16563.16563,0,0,1,.0412.2241,66.9002,66.9002,0,0,0-7.2696,15.1839c-.7407,2.2175-1.3351,4.4853-1.8609,6.7668-.7498,3.2645-1.303,6.5747-1.8151,9.8757a.16023.16023,0,0,1-.1052.128c-2.2952.7819-4.6544,1.4631-6.9999,2.2404-1.6459.5441-3.2918,1.1018-4.8921,1.7603a55.35319,55.35319,0,0,0-6.5884,3.2964.16287.16287,0,0,1-.1646-.0046.165.165,0,0,1-.0777-.1462c.2012-3.4108.5944-6.7896,1.1019-10.1456.3795-2.542.855-5.0659,1.3625-7.5805a119.03116,119.03116,0,0,1,3.599-13.8548A82.93107,82.93107,0,0,0,4.7526,53.773c-.1281.54-.2525,1.0808-.3688,1.6237a72.95228,72.95228,0,0,0-1.2116,7.768A90.73845,90.73845,0,0,0,2.747,74.4898l-.0137.5989c0,.0046-.0046.0138-.0046.0183a62.79313,62.79313,0,0,0-.6081,8.431,49.7505,49.7505,0,0,0,.3246,5.7792,68.055,68.055,0,0,0,3.2965,13.7574.15167.15167,0,0,1,0,.1098l-.0686.1738-1.3443,2.6593q.41115,1.16385.8591,2.3104c.3332-.7906.6621-1.5818.9653-2.3865.1509-.4024.2926-.8047.4252-1.2116a.16724.16724,0,0,1,.128-.1052.14871.14871,0,0,1,.1555.0594c1.8197,2.3318,3.5662,4.7185,5.3676,7.0686,1.4036,1.8242,2.8073,3.6439,4.3023,5.3904a103.35726,103.35726,0,0,0,7.9006,8.175.17531.17531,0,0,1,.0412.0594s1.9614,5.2442,2.949,7.5806c.7178,1.6962,1.4767,3.3788,2.3409,5.0019a55.75007,55.75007,0,0,0,3.5955,5.8887q1.7697,1.22595,3.6108,2.3555c-.9877-1.4423-1.8975-2.9343-2.7714-4.4539-1.2574-2.1855-2.3684-4.4533-3.5159-6.7073-1.5957-3.1502-3.2097-6.2867-4.7413-9.4277a.15472.15472,0,0,1,0-.1417.14333.14333,0,0,1,.1097-.0869c1.8334-.439,3.6897-.9007,5.546-1.4631,1.4036-.4252,2.8072-.8779,4.1835-1.4082,3.3604-1.2985,6.5975-2.8804,9.7293-4.4076a.15981.15981,0,0,0-.0868.1783.29878.29878,0,0,0,.0137.0367l.1371-.0686-.0091-.1646.096-.0138.0138.1647h.0091l.032.0091.0274-.1646c.8184.3063,1.6231.6492,2.4187,1.0104,2.2723,1.0288,4.4852,2.2221,6.7346,3.2417,3.2096,1.3396,6.4101,2.7158,9.6975,3.8588,3.1547,1.0973,6.3689,1.9797,9.6059,2.7845a.16407.16407,0,0,1,.1006.0823c1.2345,2.2906,2.3409,4.6361,3.5022,6.9633.8276,1.6505,1.646,3.3056,2.5513,4.9104,1.3898,2.4644,2.9398,4.8236,4.5583,7.1417a.15359.15359,0,0,1,.0229.1326.15874.15874,0,0,1-.0823.1051c-2.0712,1.0744-4.1972,1.9615-6.3369,2.8301-2.2358.9099-4.499,1.742-6.7713,2.5741q-3.8811,1.418-7.7744,2.8478,1.7541.32295,3.535.5676c1.1428-.3135,2.2812-.6382,3.4118-.9875,2.0209-.6219,4.028-1.2894,5.9757-2.1078a53.5706,53.5706,0,0,0,9.1351-4.979.17126.17126,0,0,1,.0823-.0229c2.7707-.2149,5.5597-.2514,8.3624-.3657,1.8974-.0778,3.7993-.1509,5.6876-.343a68.00839,68.00839,0,0,0,9.0116-1.5682.162.162,0,0,1,.1692.0594l.1509.1921c.9124,1.1332,1.824,2.2604,2.7762,3.3532q.95415-.44925,1.8952-.9211-.2433-.2244-.488-.4478C112.6646,148.0688,111.6222,147.1864,110.598,146.272Zm26.5867-75.9062a.16277.16277,0,0,1,.1829-.1144c2.1671.3567,4.3161.8184,6.5015,1.1248,2.3683.3292,4.7504.4664,7.0959.887l.8595.1463a.16311.16311,0,0,1,.1326.1646c-.0686,4.2018-.3658,8.3578-.5989,12.5184-.1601,2.917-.2652,5.8341-.4481,8.751-.1829,2.9628-.3703,5.9255-.6355,8.9065a.20834.20834,0,0,1-.0366.0869c-.0319.0366-1.5453,1.7968-2.1626,2.4689-1.8699,2.0347-3.8543,3.9686-5.8294,5.9026l-6.3049,7.2331a.163.163,0,0,1-.2652-.0274c-1.0836-1.966-2.1031-3.9503-3.1593-5.9163-.8138-1.5134-1.6231-3.0313-2.4918-4.5173-1.3945-2.3683-2.9124-4.6498-4.4029-6.9861a.16037.16037,0,0,1-.0091-.1509l3.7673-8.5362c1.3671-3.772,2.8896-7.4342,4.243-11.156C134.9169,77.6034,136.0508,74.0097,137.1847,70.3658ZM115.9062,44.0853c2.2083,2.3409,4.2475,4.8098,6.2729,7.297,1.9523,2.4004,3.8497,4.8465,5.7334,7.3063,2.7615,3.6074,5.5139,7.2193,8.1658,10.9044a.17131.17131,0,0,1,.0182.1555c-1.7145,4.3664-3.6073,8.5773-5.2853,12.8979-1.1522,2.9674-2.1534,5.9941-3.1821,9.0483v.0046l-3.1548,8.6138a.1591.1591,0,0,1-.128.1052c-3.141.4891-6.0764.8869-8.8836,1.271-2.9993.416-5.8568.7407-8.6824,1.1065-4.156.544-8.2298,1.143-12.6144,1.5362a.16936.16936,0,0,1-.1463-.064q-2.1192-2.93535-4.3709-5.7472c-2.3683-2.9719-4.8235-5.866-7.1508-8.879-2.3546-2.7799-4.5126-5.7197-6.8169-8.5499-.9008-1.111-1.8289-2.19-2.7799-3.2553a.1546.1546,0,0,1-.032-.1692c1.6048-3.7445,3.4108-7.2971,5.1482-10.8633q1.83795-3.7515,3.5937-7.5257c1.8745-4.0418,3.6393-8.1476,5.3173-12.395a.16251.16251,0,0,1,.1235-.1007c1.4219-.2468,2.8529-.416,4.2886-.5577,2.3729-.2332,4.7503-.3749,7.1233-.5258,1.7694-.1555,3.5342-.256,5.2945-.4252,4.0097-.3795,7.9919-.8779,12.0154-1.239A.15736.15736,0,0,1,115.9062,44.0853ZM68.0227,24.7544,84.6148,8.8982a.15077.15077,0,0,1,.1554-.0365c2.6381.7727,5.2397,1.6459,7.8412,2.5421,2.0438.7041,4.0692,1.4448,6.0992,2.1809,2.0345.7406,4.0737,1.4448,6.0854,2.2403l8.8196,3.7263a.16676.16676,0,0,1,.1006.1372l1.5819,17.7352v.0091l.1509,5.2214a.15847.15847,0,0,1-.0458.1143.14845.14845,0,0,1-.1143.0503c-3.3193.0274-6.6203.0411-9.926.224-2.3637.1326-4.7229.384-7.0913.6127-2.382.3017-4.7732.5806-7.1416.983-1.4356.2469-2.8575.5395-4.2657.8915a.16765.16765,0,0,1-.1783-.064c-1.5317-2.2906-3.077-4.5721-4.7458-6.7713-1.1796-1.5499-2.3958-3.0678-3.7034-4.508A69.70642,69.70642,0,0,0,68.041,25.0013a.15831.15831,0,0,1-.0183-.2469ZM27.1437,54.912c.7772-2.6427,1.5819-5.2762,2.4963-7.8686a72.916,72.916,0,0,1,5.4774-12.3493.173.173,0,0,1,.0823-.0686c4.0051-1.5499,8.1246-2.7616,12.4498-3.9914,2.4917-.7133,5.043-1.4448,7.7085-2.1535,3.5663-.9464,7.3154-1.9157,11.3434-2.8347a.15816.15816,0,0,1,.1463.0366s5.4773,5.1345,7.8914,7.7863c1.5408,1.6917,3.0405,3.4245,4.5401,5.1619,2.1809,2.5238,4.3663,5.0339,6.4604,7.6172a.16949.16949,0,0,1,.0182.1737c-1.7191,3.6714-3.5707,7.1919-5.3584,10.7262-1.2619,2.4873-2.5239,4.9699-3.6806,7.5028-1.8654,4.0738-3.4976,8.2664-5.0064,12.6191a.17258.17258,0,0,1-.1189.1051L61.0823,79.7935c-2.9902.7726-5.994,1.4265-8.9567,2.2174-2.8622.7636-5.6786,1.646-8.5133,2.5604a.16381.16381,0,0,1-.1555-.032c-2.8072-2.4003-5.4316-4.9379-8.1154-7.4159-1.8608-1.7101-3.7537-3.3743-5.6099-5.0934-1.8929-1.7557-3.7857-3.5068-5.642-5.3311a.15391.15391,0,0,1-.0457-.1508C24.949,62.648,26.0144,58.7709,27.1437,54.912Zm17.5888,62.1442c-3.1456,1.1979-6.4375,2.2723-9.702,3.4519-1.3716.4938-2.725,1.0333-4.0783,1.5591-1.8562.7224-5.706,2.1946-5.706,2.1946a.15807.15807,0,0,1-.1783-.0457c-2.1671-2.4278-4.1514-4.9927-6.1951-7.5349q-2.14665-2.66775-4.3527-5.299c-2.3729-2.8393-4.8281-5.6009-7.329-8.3167a.093.093,0,0,1-.0183-.0274l-.2287-.3795a.16135.16135,0,0,1-.0182-.0412,84.96521,84.96521,0,0,1-2.3501-13.538c-.192-1.8608-.3749-3.7308-.4892-5.6054-.16-2.5878-.256-5.1756-.1692-7.7726a.18284.18284,0,0,0,.0457.1189.164.164,0,0,0,.1143.0503V75.866a.15408.15408,0,0,1-.0868-.0412.16162.16162,0,0,1-.0457-.1188v-.2743a.16168.16168,0,0,1,.096-.1463c2.19-.9831,4.4807-1.7603,6.7713-2.6016q2.414-.89145,4.8098-1.838c2.5421-1.0013,5.0338-2.0849,7.4708-3.2005a.17.17,0,0,1,.192.0412c2.9078,3.3194,5.8248,6.5656,9.007,9.5557,1.3305,1.2482,2.7204,2.4278,4.1423,3.58,2.0163,1.6322,4.1149,3.1593,6.2547,4.6773a.16555.16555,0,0,1,.0686.1417c-.1327,2.5329-.0961,9.1259.32,15.8332.1372,2.1855.3475,4.3755.5669,6.4421.3886,3.6257.8458,6.8491,1.1888,8.9614A.15813.15813,0,0,1,44.7325,117.0562ZM74.483,127.668s-.0411.0229-.0457.0275a.14355.14355,0,0,1-.0868.0274.23333.23333,0,0,1-.0549-.0091c-1.7282-.6035-3.4382-1.2528-5.1481-1.9066-2.2587-.8596-4.4899-1.774-6.7347-2.661-2.2541-.8869-4.5264-1.7145-6.7713-2.6106-2.3135-.8642-4.5904-1.9203-6.9222-2.789-.8366-.311-1.6779-.599-2.5283-.8459a.1671.1671,0,0,1-.1143-.1463c-.2103-2.7295-.3475-7.3337-.6447-12.2121-.1554-2.5741-.384-5.2214-.5898-7.7131-.3932-4.7642-.7726-8.9569-.8275-10.9594a.16258.16258,0,0,1,.1234-.1646c4.028-.9281,8.0606-1.6368,12.0657-2.5558,1.8015-.4161,3.5846-.919,5.3768-1.399L71.7992,78.623a.16059.16059,0,0,1,.1783.0594L80.82,90.9906l12.0748,13.9083a.15917.15917,0,0,1,.0046.2058c-2.1305,2.6518-4.4211,5.1619-6.6523,7.7314q-2.3799,2.74335-4.6864,5.5551-3.67605,4.499-7.0273,9.2311A.236.236,0,0,1,74.483,127.668Zm34.7617,17.7993a.13684.13684,0,0,1-.0823.0366c-2.725.3794-5.4729.4847-8.2344.6584q-2.8254.1782-5.6511.4343c-3.0084.2743-5.9985.6629-8.9658,1.1476a.15971.15971,0,0,1-.1692-.0778c-1.2436-2.2677-2.3318-4.6086-3.5068-6.913q-1.255-2.4621-2.6152-4.8647c-1.4082-2.4918-2.917-4.9105-4.499-7.2925a.15815.15815,0,0,1,.0092-.1921c2.19-2.6563,4.5081-5.1984,6.7895-7.7862,1.6048-1.8152,3.2188-3.6303,4.755-5.5094,2.4827-3.0405,4.7779-6.2227,6.977-9.478a.1537.1537,0,0,1,.1326-.0732c3.1273-.032,6.1129-.1006,9.0756-.3109,2.094-.1509,4.1789-.3475,6.2821-.6447,4.6818-.6584,9.4733-1.7053,14.9004-2.917a.16021.16021,0,0,1,.1829.0869c.8595,1.7831,1.678,3.5663,2.5649,5.3265.6493,1.2848,1.3122,2.5604,2.0346,3.8086,1.71,2.9444,3.6257,5.7563,5.5825,8.5864a.14483.14483,0,0,1,.0092.1646v.0091c.0457.1189-.1464.2286-.1464.2286l.1281-.064c-2.0437,2.7296-4.3298,5.386-6.7484,8.0241-1.6414,1.7923-3.3697,3.5571-5.1253,5.3311C118.8186,137.3198,109.2447,145.4673,109.2447,145.4673Z"/></g></g></svg>