<svg xmlns="http://www.w3.org/2000/svg" xmlns:xlink="http://www.w3.org/1999/xlink" viewBox="0 0 106.48005 99.58143"><defs><style>.cls-1{fill:url(#linear-gradient);}.cls-2{fill:#393447;fill-opacity:0.61;}.cls-3{fill:url(#linear-gradient-2);}.cls-4{fill:#484159;fill-opacity:0.43;}.cls-5{fill:#746a8a;}</style><linearGradient id="linear-gradient" x1="-454.3145" y1="510.654" x2="-449.75039" y2="510.654" gradientTransform="matrix(-11.8361, 5.0124, 5.0124, 11.8361, -7869.42061, -3703.81578)" gradientUnits="userSpaceOnUse"><stop offset="0" stop-color="#484159"/><stop offset="1" stop-color="#332b45"/></linearGradient><linearGradient id="linear-gradient-2" x1="-432.01155" y1="525.39023" x2="-427.44745" y2="525.39023" gradientTransform="matrix(-6.31471, 15.57561, 15.5757, 6.31475, -10849.74839, 3419.22612)" gradientUnits="userSpaceOnUse"><stop offset="0" stop-color="#776d8c"/><stop offset="1" stop-color="#685e7e"/></linearGradient></defs><title>Asset 14</title><g id="Layer_2" data-name="Layer 2"><g id="balls"><path class="cls-1" d="M95.48523,18.606l8.9449,21.544h0c7.6007,18.3883-6.571,42.2389-31.9835,53.5397-25.0518,11.1406-51.8415,6.0012-60.8021-11.3591h0l-.0029-.0035c-.2369-.4577-.4568-.9216-.6701-1.3952q-.55395-1.24965-.9745-2.5344L2.303,60.02522Z"/><path class="cls-2" d="M25.14263,95.13542q1.6986.84,3.5236,1.5251c-4.1905-10.7264-8.706-21.3074-12.4142-32.2277l-2.58.8751C17.104,75.41292,21.22513,85.228,25.14263,95.13542Z"/><path class="cls-2" d="M42.49923,99.48572c-4.4389-11.5349-9.3474-22.8617-13.3262-34.5791l-2.58.8751c3.8485,11.3313,8.5628,22.2984,12.8855,33.4398Q40.96968,99.39477,42.49923,99.48572Z"/><path class="cls-2" d="M44.80693,65.69592l-2.58.8751c3.7216,10.9575,8.2531,21.5742,12.4569,32.3374q1.36365-.2028,2.738-.4688C53.175,87.53652,48.57453,76.79122,44.80693,65.69592Z"/><path class="cls-2" d="M76.606,91.67432l-12.6079-30.3111-2.5151,1.0462,12.6828,30.4854Q75.40513,92.30427,76.606,91.67432Z"/><path class="cls-2" d="M92.14433,80.47122l-12.5334-30.1321-2.5151,1.0462,12.925,31.0676Q91.11538,81.47957,92.14433,80.47122Z"/><path class="cls-2" d="M102.36033,66.776,89.96383,36.973l-2.5151,1.0462,13.2266,31.7924Q101.58433,68.307,102.36033,66.776Z"/><path class="cls-2" d="M92.09693,28.99212l12.9434,31.1118a35.02846,35.02846,0,0,0,1.0479-4.5675L94.612,27.94592Z"/><path class="cls-2" d="M20.37,92.28172c-4.0891-10.4154-8.4548-20.7065-12.0581-31.318l-2.5799.8752c3.0478,8.9741,6.6394,17.7195,10.1492,26.5041A29.86111,29.86111,0,0,0,20.37,92.28172Z"/><ellipse class="cls-3" cx="48.9215" cy="39.37372" rx="50.9866" ry="36.63677" transform="translate(-11.77826 23.27585) rotate(-23.97512)"/><path class="cls-4" d="M82.813,20.44592c-2.3791-5.3498-7.1602-9.1611-13.349-11.2132-9.0544-3.0012-21.1543-2.22-32.8788,2.994-11.7249,5.2142-20.4092,13.6758-24.245,22.4095-2.6213,5.9701-2.9935,12.073-.6144,17.4228s7.1614,9.1636,13.3502,11.2157c9.0544,3.0012,21.1532,2.2174,32.878-2.9967,11.7245-5.214,20.41-13.6731,24.2458-22.4068,2.6213-5.97,2.9923-12.0755.6132-17.4253Zm-1.7966.799c2.1625,4.8627,1.7649,10.4089-.6169,15.8357-3.6713,8.3581-12.0242,16.4097-23.2449,21.3997-11.2211,4.9901-22.7945,5.7999-31.4596,2.9279-5.6252-1.866-10.0097-5.2856-12.1722-10.1483-2.1614-4.8602-1.7652-10.4088.6181-15.8332,3.6709-8.3579,12.0227-16.4121,23.2437-21.4022,11.2208-4.99,22.7954-5.7972,31.4607-2.9253,5.6238,1.8635,10.0097,5.2855,12.1711,10.1457Z"/><path class="cls-5" d="M95.50913,18.65582c3.4563,8.3615,2.331,17.4608-2.2922,25.9449a54.60311,54.60311,0,0,1-16.1523,17.6166,74.14247,74.14247,0,0,1-13.9356,7.9348,78.24373,78.24373,0,0,1-9.5049,3.5372,73.21005,73.21005,0,0,1-9.8823,2.2683,54.70586,54.70586,0,0,1-20.1795-.3676c-9.6143-2.1437-17.3214-7.3151-21.2289-15.4982,3.5383,8.5728,11.1532,14.2847,20.8709,16.944a54.81086,54.81086,0,0,0,20.8593,1.2456,67.6974,67.6974,0,0,0,10.2954-2.0718,75.21333,75.21333,0,0,0,9.873-3.5771,73.27283,73.27283,0,0,0,14.2807-8.4728,54.396,54.396,0,0,0,15.9857-18.8999C98.81833,36.38012,99.49,27.00512,95.50913,18.65582Z"/><path class="cls-4" d="M49.97773,29.17642l.6488-15.1015-9.3963,1.8432-1.4223,15.8668-20.1341,1.7267-3.0866,6.9691,21.0062-1.1405L25.92713,57.648l8.7335.6661,11.7233-17.5408,18.4923,8.7956,6.8907-6.4691-17.3605-8.5773,21.7053-11.0777-3.1148-5.6904Z"/></g></g></svg>