<svg xmlns="http://www.w3.org/2000/svg" xmlns:xlink="http://www.w3.org/1999/xlink" viewBox="0 0 76.1866 76.6383"><defs><style>.cls-1{fill:url(#radial-gradient);}.cls-2{fill:#683e10;}.cls-3{fill:#e0513f;}</style><radialGradient id="radial-gradient" cx="-364.3394" cy="134.56939" r="0.24117" gradientTransform="matrix(97.5131, 223.46249, -223.4625, 97.5131, 65637.04629, 68314.74875)" gradientUnits="userSpaceOnUse"><stop offset="0" stop-color="#f0b840"/><stop offset="1" stop-color="#d17404"/></radialGradient></defs><title>Asset 5</title><g id="Layer_2" data-name="Layer 2"><g id="balls"><ellipse class="cls-1" cx="38.09335" cy="38.31908" rx="38.09325" ry="38.31923"/><path class="cls-2" d="M27.4433,13.9413a16.8297,16.8297,0,0,1,7.902,1.5981,15.93054,15.93054,0,0,1,5.7434,4.5755l1.3141-1.0341a17.58992,17.58992,0,0,0-6.3391-5.0501,18.499,18.499,0,0,0-8.6898-1.7626Z"/><path class="cls-2" d="M42.4793,38.2536c-3.9659,8.8609-14.2986,12.5539-23.3739,8.1887C10.7111,42.4002,7.4916,32.287,11.947,23.7747l-1.4849-.7745a18.0558,18.0558,0,0,0,7.9202,24.9485c9.9491,4.7859,21.2759.7038,25.6237-9.0113Z"/><path class="cls-2" d="M21.9152,11.3968l-1.5161,4.4411,3.9111,2.3496-4.845.3961-1.5183,4.4441-1.4762-4.1979-4.8472.3991L15.554,16.234l-1.4811-4.1965,3.9112,2.3496Z"/><path class="cls-3" d="M34.2874,17.4603l-.874,4.6045,4.1656,2.0037-4.7025.8427-.8758,4.6078-2.0305-4.0854-4.7043.8459,3.4449-3.3719L26.6757,18.824l4.1655,2.0036Z"/><path class="cls-2" d="M46.5678,22.7444l.0263,4.7314,4.4317,1.3795-4.4122,1.5448.0252,4.7349L43.887,31.3564l-4.4133,1.5483,2.7081-3.8841-2.7559-3.7761,4.4317,1.3795Z"/><path class="cls-2" d="M11.6821,29.9279,35.7085,41.4222l3.2507-6.7896L14.9284,23.1383Z"/><path class="cls-2" d="M11.3864,35.3193,30.7035,44.811l1.1066-2.254L12.4884,33.0653Z"/></g></g></svg>