<svg xmlns="http://www.w3.org/2000/svg" xmlns:xlink="http://www.w3.org/1999/xlink" viewBox="0 0 101.9084 100.8998"><defs><style>.cls-1{fill:url(#linear-gradient);}.cls-2{fill:url(#linear-gradient-2);}.cls-3{fill:#e7e4dc;}.cls-4{fill:#585858;}.cls-5{fill:#fff;}</style><linearGradient id="linear-gradient" x1="35.23432" y1="-4.36652" x2="39.43103" y2="-4.36652" gradientTransform="matrix(-10.3409, -14.8617, -14.8617, 10.3409, 366.90525, 642.94512)" gradientUnits="userSpaceOnUse"><stop offset="0" stop-color="#212121"/><stop offset="1" stop-color="#7e7e7e"/></linearGradient><linearGradient id="linear-gradient-2" x1="144.93081" y1="36.07616" x2="226.20644" y2="92.02855" gradientTransform="matrix(10.4092, 9.1064, 9.1064, -10.4092, -88.0103, -695.67501)" gradientUnits="userSpaceOnUse"><stop offset="0" stop-color="#212121"/><stop offset="0.64515" stop-color="#2d2d2d"/><stop offset="1" stop-color="#212121"/></linearGradient></defs><title>Asset 20</title><g id="Layer_2" data-name="Layer 2"><g id="balls"><ellipse class="cls-1" cx="50.9542" cy="50.4499" rx="50.9542" ry="50.4499"/><path class="cls-2" d="M17.3425,32.6482c-9.8619,22.8412,2.681,50.2249,28.0152,61.1631A54.30327,54.30327,0,0,0,67.081,98.3184,50.23582,50.23582,0,0,0,85.1789,13.0745q-1.9941-1.0608-4.1082-1.9788C55.7365.1575,27.2043,9.8069,17.3425,32.6482Z"/><path class="cls-3" d="M58.476,14.3044c13.1395,0,23.8075,10.1311,23.8075,22.6081A22.33142,22.33142,0,0,1,58.476,59.5185c-13.1202-.6761-23.8053-10.129-23.8053-22.606S45.3365,14.3044,58.476,14.3044Z"/><path class="cls-4" d="M70.9137,37.4011a9.07533,9.07533,0,0,0-3.7923-3.8563,23.09,23.09,0,0,0-3.1606-1.4869,14.68264,14.68264,0,0,0,1.6105-1.7748,6.89286,6.89286,0,0,0,1.462-3.6814,6.10812,6.10812,0,0,0-1.4907-4.2807c-1.9609-2.4462-5.6107-3.4567-8.9549-2.8207-3.4728.6586-6.4375,2.9929-7.0015,6.5715a6.35877,6.35877,0,0,0,2.7994,6.4469,12.70475,12.70475,0,0,0,2.115,1.2672,21.36273,21.36273,0,0,0-2.0781,2.085,9.45323,9.45323,0,0,0-2.3935,6.8048c.196,6.4131,7.1033,9.3673,13.678,7.6465C70.7436,48.4828,73.3455,42.6029,70.9137,37.4011ZM54.5462,26.8515c.2218-1.4329,1.5912-2.1573,2.9746-2.4196,1.5062-.284,3.217-.0794,4.103,1.0236a1.40025,1.40025,0,0,1,.4034.8299c-.021.6217-.5312,1.1158-1.0548,1.6772a31.49257,31.49257,0,0,1-2.343,2.1596,17.28426,17.28426,0,0,1-2.5901-1.1926C55.1499,28.4081,54.3835,27.865,54.5462,26.8515Zm7.8914,18.6169a8.45485,8.45485,0,0,1-5.4181-.2202,3.01123,3.01123,0,0,1-1.9748-2.7226,5.20583,5.20583,0,0,1,1.8455-4.1022c.8181-.8268,1.7879-1.6437,2.8473-2.5781a36.65678,36.65678,0,0,1,4.0184,1.5866,5.14425,5.14425,0,0,1,2.6076,2.0906C67.5344,42.0292,65.8261,44.5832,62.4376,45.4684Z"/><path class="cls-5" d="M36.002,18.4457c5.0031,4.3941,5.1088,12.454.2359,18.0024s-12.879,6.4841-17.8821,2.0901-5.1088-12.454-.236-18.0023S30.9988,14.0517,36.002,18.4457Z"/></g></g></svg>