<svg xmlns="http://www.w3.org/2000/svg" xmlns:xlink="http://www.w3.org/1999/xlink" viewBox="0 0 110.3843 110.2992"><defs><style>.cls-1{fill:url(#radial-gradient);}.cls-2{fill:#afc73a;}.cls-3{fill:url(#linear-gradient);}</style><radialGradient id="radial-gradient" cx="-563.10018" cy="520.9706" r="0.23019" gradientTransform="matrix(202.972, 368.49749, -368.4975, 202.97109, 306310.1466, 101797.67357)" gradientUnits="userSpaceOnUse"><stop offset="0" stop-color="#c8e14e"/><stop offset="0.54" stop-color="#b4cc3d"/><stop offset="1" stop-color="#6c8203"/></radialGradient><linearGradient id="linear-gradient" x1="48.26837" y1="50.56786" x2="85.55098" y2="93.6652" gradientTransform="translate(7.4026)" gradientUnits="userSpaceOnUse"><stop offset="0" stop-color="#ede8de"/><stop offset="1" stop-color="#d6bb78"/></linearGradient></defs><title>Asset 11</title><g id="Layer_2" data-name="Layer 2"><g id="balls"><path class="cls-1" d="M55.2106,0A55.10229,55.10229,0,0,1,99.40771,22.1533a39.6306,39.6306,0,0,0,3.21289,7.8287c1.26,2.1799,1.14911,2.423,3.734,4.459A55.17383,55.17383,0,1,1,1.1862,66.357a71.77307,71.77307,0,0,0,.6602-10.6919A5.81133,5.81133,0,0,0,0,53.3222C0,22.8842,24.7642,0,55.2106,0Z"/><path class="cls-2" d="M41.6304,75.7365c2.6882,2.126,5.1231,4.5104,7.7022,6.7591,1.1128.9705,2.2473,1.9074,3.4386,2.795A45.83038,45.83038,0,0,0,59.09,89.2342a35.59238,35.59238,0,0,0,7.0083,2.7147,29.07343,29.07343,0,0,0,7.5188,1.012,27.65839,27.65839,0,0,0,7.5144-1.0993,34.78522,34.78522,0,0,0,12.3715-5.998,37.84547,37.84547,0,0,0,8.9633-10.217,38.23285,38.23285,0,0,1-9.6703,9.2286,34.68425,34.68425,0,0,1-12.2099,4.9346,28.041,28.041,0,0,1-6.9646.7689,32.06231,32.06231,0,0,1-6.9777-.8235,38.80943,38.80943,0,0,1-6.7465-2.2347,47.57315,47.57315,0,0,1-6.3624-3.3492c-.8247-.5093-1.6233-1.0434-2.41319-1.5937C47.9143,80.3442,44.912,77.863,41.6304,75.7365Z"/><path class="cls-2" d="M.8463,50.9767a24.39582,24.39582,0,0,1,1.5492-2.0915,7.31315,7.31315,0,0,1,1.22621-1.1451A8.56219,8.56219,0,0,1,7.8284,46.204a18.34811,18.34811,0,0,1,6.7726.7331,25.9658,25.9658,0,0,1,4.3595,1.5767c.947.4285,1.8677.902,2.771,1.4012.9163.5066,1.8153,1.039,2.6881,1.5967,1.3572.8649,2.6532,1.7765,3.8795,2.7235,1.7847,1.3807,3.408,2.8028,4.8481,4.1661,3.6656,3.4644,6.0919,6.475,6.69851,7.0384a95.48964,95.48964,0,0,0-5.66861-7.9932,48.727,48.727,0,0,0-6.9952-7.0262,31.27745,31.27745,0,0,0-2.7143-1.9645,26.49284,26.49284,0,0,0-2.9455-1.6404,25.80589,25.80589,0,0,0-6.4585-2.0506,19.50819,19.50819,0,0,0-7.4795.0843,9.35239,9.35239,0,0,0-4.4119,2.363,7.92277,7.92277,0,0,0-1.1127,1.4265A25.33463,25.33463,0,0,0,.8463,50.9767Z"/><path class="cls-3" d="M101.4669,77.1896a43.33114,43.33114,0,0,0,6.2621-13.8541c2.0248-7.412,1.7804-15.5029.3753-23.3015-.0954-.5299-.1979-1.0579-.3035-1.5848q-.6486-2.03865-1.4462-4.0082c-2.58489-2.036-2.474-2.279-3.734-4.459a39.628,39.628,0,0,1-3.21289-7.8287c-.06251-.0834-.12791-.1644-.19081-.2475a105.636,105.636,0,0,1,5.0909,18.7793c1.1782,7.2204,1.3353,14.6942-.6415,21.5057A39.17756,39.17756,0,0,1,97.845,74.5779a27.34455,27.34455,0,0,1-10.2375,8.485c-9.41279,4.6789-17.6297,4.3036-24.9697,1.1115C50.8774,79.063,41.3381,67.0783,32.6454,56.949,26.5536,49.8496,17.12771,44.8927,9.4692,45.4504c-4.8417.3522-7.8652,2.403-9.466,7.6235-.0004.083-.0032.1652-.0032.2483a5.81133,5.81133,0,0,1,1.8464,2.3429A71.77307,71.77307,0,0,1,1.1862,66.357c.0212.102.0449.2031.0666.305l.1564.0205C1.3744,56.6601,4.7868,52.151,9.971,51.6871c6.0352-.5393,13.3576,3.5976,18.2538,9.1165C37.607,71.377,48.07571,83.724,60.613,88.9309c8.6316,3.5822,18.2275,3.9684,29.124-1.6722A31.82527,31.82527,0,0,0,101.4669,77.1896Z"/></g></g></svg>