<svg xmlns="http://www.w3.org/2000/svg" xmlns:xlink="http://www.w3.org/1999/xlink" viewBox="0 0 185.9459 184.14801"><defs><style>.cls-1{fill:url(#linear-gradient);}.cls-2{fill:#255a71;}.cls-3{fill:url(#linear-gradient-2);}.cls-4{fill:url(#linear-gradient-3);}.cls-5{fill:url(#linear-gradient-4);}.cls-6{fill:#fff;}.cls-7{fill:#f8de81;}.cls-8{fill:#dea222;}.cls-9{fill:url(#linear-gradient-5);}.cls-10{fill:#dae2e4;}.cls-11{fill:url(#linear-gradient-6);}.cls-12{fill:#347d9e;}</style><linearGradient id="linear-gradient" x1="389.02051" y1="31.00231" x2="393.21722" y2="31.00231" gradientTransform="matrix(-15.94539, -0.2212, -0.22126, 15.94552, 6263.53822, -316.76909)" gradientUnits="userSpaceOnUse"><stop offset="0" stop-color="#3a87ab"/><stop offset="1" stop-color="#115473"/></linearGradient><linearGradient id="linear-gradient-2" x1="367.66034" y1="26.99197" x2="371.85704" y2="26.17731" gradientTransform="matrix(14.0409, 16.0234, 17.3012, -10.2592, -5591.65901, -5501.69149)" gradientUnits="userSpaceOnUse"><stop offset="0" stop-color="#f5cd41"/><stop offset="1" stop-color="#c57300"/></linearGradient><linearGradient id="linear-gradient-3" x1="367.58971" y1="35.8167" x2="371.7864" y2="35.8167" gradientTransform="matrix(17.365, 23.8139, 23.8139, -17.365, -7113.07426, -8036.71532)" xlink:href="#linear-gradient-2"/><linearGradient id="linear-gradient-4" x1="369.84156" y1="22.07379" x2="374.03828" y2="22.07379" gradientTransform="matrix(7.6836, 12.3377, 12.3377, -7.6835, -2970.64977, -4264.44155)" gradientUnits="userSpaceOnUse"><stop offset="0" stop-color="#eee"/><stop offset="1" stop-color="#8db3bd"/></linearGradient><linearGradient id="linear-gradient-5" x1="365.14424" y1="35.05208" x2="369.34093" y2="35.05208" gradientTransform="matrix(17.8685, 21.3248, 21.3249, -17.8685, -7184.6345, -7104.29283)" xlink:href="#linear-gradient-4"/><linearGradient id="linear-gradient-6" x1="386.37685" y1="81.57733" x2="390.57356" y2="81.57733" gradientTransform="matrix(-7.9594, -6.3824, -6.3824, 7.9594, 3705.53383, 1867.92408)" gradientUnits="userSpaceOnUse"><stop offset="0" stop-color="#3a87ab"/><stop offset="1" stop-color="#3a9dcb"/></linearGradient></defs><title>Asset 17</title><g id="Layer_2" data-name="Layer 2"><g id="balls"><ellipse class="cls-1" cx="92.97297" cy="92.07401" rx="91.94792" ry="93.04832" transform="translate(-22.9192 152.82432) rotate(-72.38505)"/><path class="cls-2" d="M19.51117,61.86311c-2.2893,4.5675-4.7093,9.2219-6.7777,14.0089a78.69224,78.69224,0,0,0-3.5562,9.8528,75.21,75.21,0,0,0-2.409,13.506,72.69232,72.69232,0,0,0,.128,13.7482,75.398,75.398,0,0,0,2.7552,13.4557,85.666,85.666,0,0,0,5.0018,12.7241c.8349,1.6872,1.7562,3.3148,2.7492,4.9104,2.287,3.6669,5.7938,5.8439,8.1402,9.4695-1.9112-3.8542-4.979-6.301-6.8454-10.1827-.7887-1.6413-1.522-3.2964-2.1566-5.011a96.21032,96.21032,0,0,1-3.8013-12.7241,106.09921,106.09921,0,0,1-2.1228-13.0305,97.544,97.544,0,0,1-.5304-13.1722,78.23671,78.23671,0,0,1,4.0528-23.0159C15.75107,71.46451,17.681,66.61351,19.51117,61.86311Z"/><path class="cls-3" d="M39.18517,138.51481c-5.3917-24.68-3.0436-48.927,7.5458-74.4764l-25.7112-5.7891c-13.7595,28.2894-21.3518,54.7664,2.6719,94.7165l.0363.0597a93.31694,93.31694,0,0,0,36.8632,25.111C49.78167,167.49871,42.196,152.30451,39.18517,138.51481Z"/><path class="cls-2" d="M90.669,165.37071a76.598,76.598,0,0,1-3.5433-10.7307c-.621-2.4324-1.134-4.8968-1.6017-7.3748a118.3454,118.3454,0,0,1-2.0794-18.8462c-.1101-2.6244-.2711-5.2442-.3287-7.8686-.0384-1.7236-.0407-3.4428.0741-5.171.1244-1.87.3324-3.7308.5825-5.5917.5875-4.3755,1.4114-8.719,2.0611-13.0716-.9309,3.6669-2.0049,7.3016-2.9212,10.9822-.6163,2.4781-1.1498,4.9607-1.5481,7.4753-.2807,1.774-.4535,3.548-.5632,5.3311-.1619,2.6381-.182,5.2807-.2725,7.9234a99.04139,99.04139,0,0,0,1.3209,19.5138,68.32952,68.32952,0,0,0,3.5986,12.6235,56.3837,56.3837,0,0,0,8.0488,14.2557,46.429,46.429,0,0,0,9.1798,8.8851q.2598-.02535.5193-.0519A50.865,50.865,0,0,1,90.669,165.37071Z"/><path class="cls-4" d="M142.60667,62.10971c-17.5092,15.5811-35.2209,25.5286-56.6501,34.5452a80.0349,80.0349,0,0,0-3.5932,21.9663c-.8646,21.0146,2.1065,47.2432,17.9563,62.6324a25.968,25.968,0,0,0,2.8837,2.3999c35.5072-3.6706,67.0731-27.5741,78.4549-63.4209a91.76593,91.76593,0,0,0-21.5382-91.3713C160.15627,40.97241,155.74487,50.41921,142.60667,62.10971Z"/><path class="cls-5" d="M181.96917,73.30771c-1.281,7.4461-4.9285,13.6369-9.1028,19.8189-10.4363,15.4523-26.1663,27.3002-41.5944,37.4211-7.0426,4.6188-35.8126,19.0374-46.0371,22.3102,1.4192,6.5956,5.233,15.8942,9.1742,21.3574,28.4375,1.4512,56.8322-12.7949,77.4264-32.8475a91.23733,91.23733,0,0,0,10.5281-73.9443A30.59459,30.59459,0,0,1,181.96917,73.30771Z"/><path class="cls-6" d="M181.96917,73.30771c-1.281,7.4461-4.9285,13.6369-9.1028,19.8189-10.4363,15.4523-26.1663,27.3002-41.5944,37.4211-3.9902,2.6169-14.9549,8.3794-25.5698,13.4785-2.4877,1.2295-5.0416,2.4259-7.6202,3.5769-.3015.1345-.6037.2668-.9056.4-4.8117,2.1678-9.0612,3.9287-11.8995,4.8411,4.3105-1.2501,8.772-2.6997,13.1822-4.313,4.4364-1.6231,8.8041-3.4108,12.9144-5.267,3.0898-1.4037,6.1449-2.8622,9.1648-4.403,3.0221-1.5453,5.9999-3.1685,8.9531-4.8464,4.3567-2.5192,8.9658-5.2853,13.5466-8.3852,2.9001-1.966,5.7924-4.0555,8.6097-6.2821,2.0895-1.6505,4.1369-3.3787,6.1138-5.1801a96.76275,96.76275,0,0,0,12.6396-13.8123c6.0864-8.2265,10.3943-17.3686,11.6124-27.3289C181.99847,73.12,181.98537,73.214,181.96917,73.30771Z"/><path class="cls-7" d="M86.04227,96.67a217.20924,217.20924,0,0,0,29.7172-11.348,132.99514,132.99514,0,0,0,16.7128-9.4779,114.45961,114.45961,0,0,0,10.1999-7.8274,78.72139,78.72139,0,0,0,7.9381-8.1658,63.74221,63.74221,0,0,0,6.4791-9.3545,35.33987,35.33987,0,0,0,3.6732-10.2689,30.02731,30.02731,0,0,0,.2497-10.7261,29.8916,29.8916,0,0,1-1.3524,10.4518,34.24138,34.24138,0,0,1-4.4117,9.4094,65.62785,65.62785,0,0,1-6.9111,8.4675,82.278,82.278,0,0,1-8.0191,7.4205c-3.1803,2.7112-6.5243,5.1939-9.915,7.6079a183.29629,183.29629,0,0,1-15.8734,10.118A242.62754,242.62754,0,0,1,86.04227,96.67Z"/><path class="cls-8" d="M44.60027,69.81811a137.28322,137.28322,0,0,0-8.6792,30.5736,113.39206,113.39206,0,0,0-1.3707,21.3196,88.6068,88.6068,0,0,0,.9821,10.6942,80.94261,80.94261,0,0,0,2.366,10.4975,77.56221,77.56221,0,0,0,6.1171,14.8958,72.1096,72.1096,0,0,0,9.1414,13.1448,31.70981,31.70981,0,0,0,3.0327,2.9947c1.5842,1.3854,3.2535,2.6472,4.8939,4.0052-1.4882-1.5134-3.008-2.9445-4.4454-4.4715a32.42615,32.42615,0,0,1-2.6715-3.1731,74.61765,74.61765,0,0,1-7.7812-13.5699,86.4445,86.4445,0,0,1-4.9937-14.7176c-.8221-3.3422-1.4576-6.7393-1.9683-10.1684-.5079-3.4061-.8892-6.8444-1.1224-10.31a131.91648,131.91648,0,0,1,.2816-20.835A144.62715,144.62715,0,0,1,44.60027,69.81811Z"/><path class="cls-9" d="M38.62127,67.51731c17.3956,7.0056,32.712,17.4861,47.3353,29.1376,21.8692-9.3326,43.6344-20.2141,60.9494-36.8499,7.9725-7.6637,14.7941-18.7721,13.9823-30.1329a93.48207,93.48207,0,0,0-40.0897-25.2346C71.81907-11.114,19.65527,15.51511,4.28767,63.91541q-.81225,2.55825-1.4648,5.1275a28.16769,28.16769,0,0,1,8.1816-5.3725C19.93647,60.12161,30.27637,64.153,38.62127,67.51731Z"/><path class="cls-10" d="M80.69517.80241c5.4316,1.2299,10.9086,2.7067,16.2917,4.5035a97.108,97.108,0,0,1,15.3998,6.4878,88.20731,88.20731,0,0,1,8.136,4.8739c2.6395,1.7465,5.1953,3.6164,7.7017,5.5596,2.516,1.9477,4.9868,3.9503,7.3844,6.0489,2.4173,2.1123,4.7861,4.2612,7.0666,6.5015,2.7776,2.6701,5.5615,5.4088,8.1393,8.3349a59.51362,59.51362,0,0,1,4.7952,6.1266,56.81659,56.81659,0,0,0-4.0285-6.7256c-2.2394-3.2416-4.749-6.2957-7.2395-9.2859-2.1109-2.4826-4.2794-4.9195-6.5806-7.2421a92.24486,92.24486,0,0,0-7.2481-6.6387,76.91438,76.91438,0,0,0-8.0281-5.7334,75.57541,75.57541,0,0,0-8.7314-4.6315,94.51364,94.51364,0,0,0-16.2963-5.3402A157.08417,157.08417,0,0,0,80.69517.80241Z"/><path class="cls-11" d="M155.47887,49.19891c-8.1718-13.6226-28.8555-33.6201-47.6506-41.7463A85.06132,85.06132,0,0,0,80.46.75911a92.87549,92.87549,0,0,0-55.8943,28.5032,41.38053,41.38053,0,0,1,9.8557-2.9897c14.1146-2.2343,27.3986.9521,40.6451,5.7337a182.28905,182.28905,0,0,1,60.9277,37.0463q2.48175-1.8696,4.8831-3.8329,3.0918-2.60535,6.0287-5.4147c.0829-.0797.1649-.162.2475-.2424a57.809,57.809,0,0,0,8.2612-10.2595C155.436,49.26831,155.45777,49.23381,155.47887,49.19891Z"/><path class="cls-12" d="M24.95827,28.85221c1.4521-.522,2.895-.9763,4.3517-1.3643a35.811,35.811,0,0,1,5.1114-1.2153c14.1146-2.2343,27.3986.9521,40.6451,5.7337a181.57,181.57,0,0,1,57.9019,34.3527c-2.4845-2.4315-5.0272-4.9-7.6272-7.2807-2.4552-2.2495-4.9561-4.4075-7.4813-6.3964a172.53228,172.53228,0,0,0-23.052-15.4171,122.21048,122.21048,0,0,0-12.5738-6.0123,129.76025,129.76025,0,0,0-13.2042-4.4715,84.441,84.441,0,0,0-15.9538-2.7112,67.58132,67.58132,0,0,0-16.0956.7635,45.30973,45.30973,0,0,0-6.8294,1.7557,50.84368,50.84368,0,0,0-4.9484,2.008C25.12127,28.68221,25.03937,28.76671,24.95827,28.85221Z"/></g></g></svg>