<svg xmlns="http://www.w3.org/2000/svg" xmlns:xlink="http://www.w3.org/1999/xlink" viewBox="0 0 171.48117 169.22561"><defs><style>.cls-1{fill:url(#radial-gradient);}.cls-2{fill:#f4d649;}.cls-3{fill:#f4c049;}.cls-4{fill:#f49a49;fill-opacity:0.46;}.cls-5{fill:#dba219;}.cls-6{fill:url(#radial-gradient-2);}</style><radialGradient id="radial-gradient" cx="-296.83839" cy="32.04583" r="0.24118" gradientTransform="matrix(67.10922, 714.42509, -714.42522, 67.10902, 42888.23, 209948.33596)" gradientUnits="userSpaceOnUse"><stop offset="0" stop-color="#fed229"/><stop offset="1" stop-color="#b04800"/></radialGradient><radialGradient id="radial-gradient-2" cx="50.83737" cy="67.22314" r="70.51772" gradientTransform="translate(7.4026)" gradientUnits="userSpaceOnUse"><stop offset="0" stop-color="#60777a"/><stop offset="1" stop-color="#543214"/></radialGradient></defs><title>Asset 4</title><g id="Layer_2" data-name="Layer 2"><g id="balls"><ellipse class="cls-1" cx="85.74061" cy="84.61283" rx="86.51811" ry="83.79649" transform="translate(-32.16065 59.91309) rotate(-32.78862)"/><path class="cls-2" d="M16.33754,73.66723c7.7629-6.692,15.3913-12.5629,23.2343-18.1426,3.98-2.8301,8.0221-5.5806,12.1616-8.3233,4.0191-2.6595,8.1233-5.3304,12.3913-8.0089,5.33309-3.3973,11.77759-7.2222,18.338-10.8335,6.5503-3.6102,13.21381-7.0106,19.0362-9.5047l-.6827-1.6595c-5.941,2.3693-12.7681,5.6086-19.4562,9.1063-6.6854,3.5015-13.2404,7.2562-18.67529,10.5884-4.3008,2.678-8.4579,5.3176-12.4788,8.0165-4.1569,2.7918-8.1763,5.6365-12.1262,8.5724a295.99952,295.99952,0,0,0-22.87,18.9193Z"/><path class="cls-3" d="M24.73594,114.94713a147.556,147.556,0,0,1,15.2459-12.0287c8.0099-5.6163,16.3929-10.7715,24.439-16.1882,7.20879-4.9263,14.53429-9.9333,21.928-14.9189,7.3039-4.9223,14.6785-9.8195,22.17971-14.461a302.745,302.745,0,0,1,30.87729-16.9745l-.7478-1.6338a297.55945,297.55945,0,0,0-31.3992,16.5275c-7.5999,4.5473-15.0908,9.3399-22.4427,14.2551-7.4251,4.9623-14.7,10.0563-21.89539,15.0121-7.9659,5.5663-16.2813,10.8519-24.1885,16.636A147.70278,147.70278,0,0,0,23.57474,113.71Z"/><path class="cls-4" d="M39.95914,137.95553a197.6448,197.6448,0,0,0,22.23-9.4187c7.17029-3.5781,13.779-7.4702,20.99819-11.9044,4.8058-2.9731,9.763-6.1102,14.7364-9.3931,7.2379-4.7825,14.5199-9.849,21.5242-14.9579,13.0019-9.4949,24.9984-19.1714,33.8364-27.6634l-1.2285-1.3011a314.54364,314.54364,0,0,1-27.0506,21.7992c-6.8573,5.015-14.1101,10.0596-21.3802,14.9667-7.3762,4.9867-14.7654,9.8495-21.8444,14.2954-7.0834,4.5162-13.5759,8.4715-20.61249,12.1668a200.7955,200.7955,0,0,1-21.8008,9.8152Z"/><path class="cls-5" d="M16.33924,71.70273a123.1517,123.1517,0,0,1,12.1974-10.9188c6.5309-5.2021,13.5204-10.047,20.0839-14.4217,1.8937-1.3068,6.4572-4.0669,12.1546-7.4813,5.55659-3.3291,12.18419-7.2664,18.62919-10.8796,8.4013-4.7047,16.4397-8.909,21.269-10.5134l-.9002-2.9171c-5.027,1.4325-13.5004,5.3244-22.2895,9.8492-6.6257,3.4086-13.448,7.1451-19.08759,10.4298-5.8801,3.4178-10.4818,6.3548-12.4193,7.6952-6.4998,4.6763-13.4466,9.7983-19.8374,15.3615a119.08835,119.08835,0,0,0-11.9344,11.8589Z"/><path class="cls-6" d="M164.64373,109.35153c-2.3077-1.3239-4.6509-2.5613-6.9959-3.8085a63.71244,63.71244,0,0,0-.3284-34.4107,73.92491,73.92491,0,0,0-10.0474-21.2971,82.22955,82.22955,0,0,0-15.9454-17.3076,78.759,78.759,0,0,0-30.6865-15.5254c-.0017-2.8844-.0499-5.7499-.1608-8.6131q-.0801-2.1507-.2127-4.2898c-.0656-1.0935-.1428-2.1838-.2224-3.2746-.9189-.1273-1.8399-.2429-2.76369-.3407.03419.8614.07519,1.723.13609,2.5849.0886,1.2266.2037,2.4523.3227,3.6754.1493,1.4646.3153,2.9294.4811,4.3943.2223,1.9383.45411,3.8697.649,5.8182-6.2581,1.4646-16.0784,6.0226-26.9695,12.1856q-2.2419,1.26885-4.5408,2.6231c-1.0444-2.1228-2.07159-4.3127-3.10689-6.5509-.9541-2.0554-1.8901-4.1501-2.8461-6.259-.9425-2.0796-1.8848-4.1756-2.8347-6.2667-.9812-2.1427-1.9692-4.2797-2.9426-6.4049q-1.1835.4734-2.3581.9854c.9955,2.4517,2.023,4.9169,3.1256,7.3536,1.1949,2.6402,2.4679,5.2413,3.7708,7.7955,1.8229,3.5577,3.7416,6.9909,5.6507,10.2601-3.6725,2.19-7.4101,4.5183-11.1177,6.9448-5.0667,3.3172-10.0694,6.8115-14.8153,10.306-2.0741-2.2113-4.2053-4.5135-6.4036-6.8405-1.5865-1.6866-3.1932-3.387-4.8179-5.0816-1.3477-1.4-2.7181-2.7848-4.0649-4.1744-1.07-1.1095-2.1347-2.2119-3.1794-3.3148q-.79755.91455-1.566,1.8479.6735.80205,1.3622,1.6013c1.593,1.84,3.2308,3.6731,4.9377,5.4449,1.7033,1.7744,3.4593,3.4876,5.2237,5.1629,2.3628,2.2379,4.7476,4.3717,7.0401,6.4411-.0714.0532-.1443.1064-.2157.1596a200.09208,200.09208,0,0,0-22.5944,19.1863c-1.7596-.8509-3.5032-1.7182-5.2773-2.5435-1.2866-.5962-2.5762-1.1796-3.8849-1.734-1.129-.4734-2.2696-.9151-3.4077-1.3619q-.3477,1.2684-.656,2.5456c.9832.4835,1.972.9521,2.9793,1.38,1.3178.5598,2.6555,1.0577,4.0077,1.5356,1.8421.6517,3.7021,1.2213,5.5606,1.8209a153.22111,153.22111,0,0,0,.5034,20.5194,73.78934,73.78934,0,0,0,2.866,13.9309,72.11316,72.11316,0,0,0,8.9186,18.7339,67.99634,67.99634,0,0,0,14.1087,15.2331c10.373,8.2604,23.1133,13.5777,37.10109,15.7901.0857,2.515.1756,4.9934.3093,7.46.102,1.8216.2167,3.6292.3519,5.4347l.0008.0108q1.3683.06675,2.7407.089-.2046-1.8618-.43429-3.7285c-.38041-3.1333-.82991-6.2758-1.223-9.4793,8.00629-3.6086,15.76149-7.3166,23.38009-11.3839.8877,2.3043,1.71391,4.6231,2.5261,6.954.6053,1.7419,1.1903,3.4862,1.7843,5.2354.492,1.456.98,2.9146,1.4859,4.367q.63841,1.8324,1.2998,3.6616c.8584-.2823,1.715-.5755,2.5684-.8856-.33859-1.0382-.682-2.0752-1.0372-3.1092-.4051-1.1694-.8283-2.3326-1.26139-3.4949q-1.09382-2.90085-2.28441-5.7671-1.64938-3.945-3.5234-7.7954c5.1989-2.8108,10.3455-5.7775,15.4522-9.0197q6.09975-3.86415,12.1634-8.2583c2.4223,2.616,4.7967,5.2632,7.2173,7.8749,1.6274,1.7582,3.256,3.5098,4.9144,5.2317q1.11945,1.1673,2.2562,2.3154.9447-.9807,1.8535-1.9865-1.03979-1.1367-2.1021-2.2529c-1.66209-1.7358-3.3704-3.4255-5.0968-5.0925-2.5079-2.4179-5.0764-4.7564-7.6396-7.1114q.84046-.6171,1.6811-1.2438c6.8799-5.1373,13.7717-10.8535,20.8467-17.2306,2.22,1.4932,4.413,3.0159,6.6424,4.511q1.15305.7746,2.3114,1.5439.50175-1.2858.9604-2.5852Q165.61083,109.90758,164.64373,109.35153ZM15.78724,71.39343l.0006-.0015.0015.0015Zm4.9388,34.2807a72.58452,72.58452,0,0,1-3.0618-13.4243,157.11478,157.11478,0,0,1-1.0272-20.4975,173.94183,173.94183,0,0,1,16.2992-13.5522c3.6706-2.7615,7.6073-5.5911,11.68-8.4209,3.2505-2.257,6.5859-4.5089,9.9372-6.7275,3.3668-2.2285,6.7418-4.4189,10.0799-6.5145,6.00749-3.7774,11.86939-7.2487,17.21709-10.1334,7.3135-3.9445,13.6409-6.8033,18.0298-7.8315a77.86124,77.86124,0,0,1,29.8176,15.9182q2.5044,2.11515,4.84371,4.428c-11.30341,5.5338-22.91431,11.7305-34.53041,18.5069-7.776,4.5357-15.5708,9.3121-23.2592,14.3299C69.14163,76.717,61.62284,81.91393,54.26014,87.26c-10.8416,7.8685-21.3118,16.1089-31.2508,24.4616Q21.75144,108.792,20.726,105.67413Zm19.4912,30.3341a69.01306,69.01306,0,0,1-10.6987-12.3784,71.69407,71.69407,0,0,1-5.7856-10.2845c10.1873-8.2127,20.964-16.2348,32.0101-24.0111,7.41-5.2137,14.94859-10.3034,22.52939-15.2519,7.6554-5.0018,15.3424-9.8611,23.0247-14.4833,11.6613-7.0209,23.2721-13.5368,34.5987-19.3165a84.606,84.606,0,0,1,9.0789,11.1194,78.3719,78.3719,0,0,1,6.8032,12.1159c-9.196,7.2273-23.4957,17.4226-39.0587,28.0063-5.2776,3.5844-10.7021,7.22-16.1093,10.8065-3.6218,2.3981-7.2368,4.7813-10.8055,7.1017-6.284,4.0913-12.42289,8.0021-18.1908,11.5435C56.53744,127.78243,46.85394,133.23713,40.21724,136.00823Zm115.586-30.5308c-7.3148,6.2025-14.4643,11.6857-21.4998,16.7012-5.1165,3.6492-10.1842,7.0279-15.2315,10.2355-5.2419,3.3277-10.4583,6.4757-15.7357,9.4617-7.8991,4.4636-15.9063,8.6118-24.2178,12.6209a77.65429,77.65429,0,0,1-36.152-16.1109c-.4413-.3617-.8765-.7309-1.3087-1.1033,6.7406-2.7361,16.3347-7.8282,27.20159-14.2377,5.8501-3.4473,12.0716-7.2809,18.4183-11.3256,3.5997-2.297,7.23991-4.6581,10.8684-7.0715,5.4201-3.6,10.8239-7.293,16.06851-10.9542,15.26279-10.6581,29.20389-21.0694,38.30849-28.4563a69.04705,69.04705,0,0,1,2.3731,6.6076A62.07415,62.07415,0,0,1,155.80323,105.47743Z"/></g></g></svg>